<svg width="160" height="160" viewBox="0 0 160 160" fill="none" xmlns="http://www.w3.org/2000/svg">
<path d="M93.5 85V85.691L92.5 85.191V85H93.5ZM92.5 82.5H93.5V83.5H92.5V82.5ZM95 83.5V82.5H96V83.5H95ZM95 85H96V86H95V85Z" stroke="black"/>
<mask id="path-2-inside-1_1_7" fill="white">
<path d="M94 63V62.5L98.5 60L104 62.4095V78L98.5 74.5V73.5V72.5L97 73H96.5L95.5 72.5L98.5 71V69.5L94.5 71.5H94V70.5L98.5 68V66.5L94 69V67.5L98.5 65V63.5L94 66V64.5L98.5 62V60.5L94 63Z"/>
<path d="M85 51.5V46.5L90 44L95.5 46.5V60.5L92.5 62V72.5L89 75V67V53.5L85 51.5Z"/>
<path d="M82 51L77 53.5V64L79.5 65.5V76.5L82 78V52L87.5 54.5V76L88 75.5V54L82 51Z"/>
<path d="M83 54.5V53.5L84 54V55L83 54.5Z"/>
<path d="M85.5 55.5V54.5L86.5 55V56L85.5 55.5Z"/>
<path d="M83 57V56L84 56.5V57.5L83 57Z"/>
<path d="M85.5 58V57L86.5 57.5V58.5L85.5 58Z"/>
<path d="M83 59.5V58.5L84 59V60L83 59.5Z"/>
<path d="M85.5 60.5V59.5L86.5 60V61L85.5 60.5Z"/>
<path d="M83 62V61L84 61.5V62.5L83 62Z"/>
<path d="M85.5 63V62L86.5 62.5V63.5L85.5 63Z"/>
<path d="M83 64.5V63.5L84 64V65L83 64.5Z"/>
<path d="M83 67V66L84 66.5V67.5L83 67Z"/>
<path d="M85.5 65.5V64.5L86.5 65V66L85.5 65.5Z"/>
<path d="M85.5 68V67L86.5 67.5V68.5L85.5 68Z"/>
<path d="M83 69.5V68.5L84 69V70L83 69.5Z"/>
<path d="M85.5 70.5V69.5L86.5 70V71L85.5 70.5Z"/>
<path d="M83 72V71L84 71.5V72.5L83 72Z"/>
<path d="M85.5 73V72L86.5 72.5V73.5L85.5 73Z"/>
<path d="M83 74.5V73.5L84 74V75L83 74.5Z"/>
<path d="M85.5 75.5V74.5L86.5 75V76L85.5 75.5Z"/>
<path d="M83 77V76L84 76.5V77.5L83 77Z"/>
</mask>
<path d="M94 63V62.5L98.5 60L104 62.4095V78L98.5 74.5V73.5V72.5L97 73H96.5L95.5 72.5L98.5 71V69.5L94.5 71.5H94V70.5L98.5 68V66.5L94 69V67.5L98.5 65V63.5L94 66V64.5L98.5 62V60.5L94 63Z" fill="black"/>
<path d="M85 51.5V46.5L90 44L95.5 46.5V60.5L92.5 62V72.5L89 75V67V53.5L85 51.5Z" fill="black"/>
<path d="M82 51L77 53.5V64L79.5 65.5V76.5L82 78V52L87.5 54.5V76L88 75.5V54L82 51Z" fill="black"/>
<path d="M83 54.5V53.5L84 54V55L83 54.5Z" fill="black"/>
<path d="M85.5 55.5V54.5L86.5 55V56L85.5 55.5Z" fill="black"/>
<path d="M83 57V56L84 56.5V57.5L83 57Z" fill="black"/>
<path d="M85.5 58V57L86.5 57.5V58.5L85.5 58Z" fill="black"/>
<path d="M83 59.5V58.5L84 59V60L83 59.5Z" fill="black"/>
<path d="M85.5 60.5V59.5L86.5 60V61L85.5 60.5Z" fill="black"/>
<path d="M83 62V61L84 61.5V62.5L83 62Z" fill="black"/>
<path d="M85.5 63V62L86.5 62.5V63.5L85.5 63Z" fill="black"/>
<path d="M83 64.5V63.5L84 64V65L83 64.5Z" fill="black"/>
<path d="M83 67V66L84 66.5V67.5L83 67Z" fill="black"/>
<path d="M85.5 65.5V64.5L86.5 65V66L85.5 65.5Z" fill="black"/>
<path d="M85.5 68V67L86.5 67.5V68.5L85.5 68Z" fill="black"/>
<path d="M83 69.5V68.5L84 69V70L83 69.5Z" fill="black"/>
<path d="M85.5 70.5V69.5L86.5 70V71L85.5 70.5Z" fill="black"/>
<path d="M83 72V71L84 71.5V72.5L83 72Z" fill="black"/>
<path d="M85.5 73V72L86.5 72.5V73.5L85.5 73Z" fill="black"/>
<path d="M83 74.5V73.5L84 74V75L83 74.5Z" fill="black"/>
<path d="M85.5 75.5V74.5L86.5 75V76L85.5 75.5Z" fill="black"/>
<path d="M83 77V76L84 76.5V77.5L83 77Z" fill="black"/>
<path d="M94 63V62.5L98.5 60L104 62.4095V78L98.5 74.5V73.5V72.5L97 73H96.5L95.5 72.5L98.5 71V69.5L94.5 71.5H94V70.5L98.5 68V66.5L94 69V67.5L98.5 65V63.5L94 66V64.5L98.5 62V60.5L94 63Z" stroke="black" stroke-width="2" mask="url(#path-2-inside-1_1_7)"/>
<path d="M85 51.5V46.5L90 44L95.5 46.5V60.5L92.5 62V72.5L89 75V67V53.5L85 51.5Z" stroke="black" stroke-width="2" mask="url(#path-2-inside-1_1_7)"/>
<path d="M82 51L77 53.5V64L79.5 65.5V76.5L82 78V52L87.5 54.5V76L88 75.5V54L82 51Z" stroke="black" stroke-width="2" mask="url(#path-2-inside-1_1_7)"/>
<path d="M83 54.5V53.5L84 54V55L83 54.5Z" stroke="black" stroke-width="2" mask="url(#path-2-inside-1_1_7)"/>
<path d="M85.5 55.5V54.5L86.5 55V56L85.5 55.5Z" stroke="black" stroke-width="2" mask="url(#path-2-inside-1_1_7)"/>
<path d="M83 57V56L84 56.5V57.5L83 57Z" stroke="black" stroke-width="2" mask="url(#path-2-inside-1_1_7)"/>
<path d="M85.5 58V57L86.5 57.5V58.5L85.5 58Z" stroke="black" stroke-width="2" mask="url(#path-2-inside-1_1_7)"/>
<path d="M83 59.5V58.5L84 59V60L83 59.5Z" stroke="black" stroke-width="2" mask="url(#path-2-inside-1_1_7)"/>
<path d="M85.5 60.5V59.5L86.5 60V61L85.5 60.5Z" stroke="black" stroke-width="2" mask="url(#path-2-inside-1_1_7)"/>
<path d="M83 62V61L84 61.5V62.5L83 62Z" stroke="black" stroke-width="2" mask="url(#path-2-inside-1_1_7)"/>
<path d="M85.5 63V62L86.5 62.5V63.5L85.5 63Z" stroke="black" stroke-width="2" mask="url(#path-2-inside-1_1_7)"/>
<path d="M83 64.5V63.5L84 64V65L83 64.5Z" stroke="black" stroke-width="2" mask="url(#path-2-inside-1_1_7)"/>
<path d="M83 67V66L84 66.5V67.5L83 67Z" stroke="black" stroke-width="2" mask="url(#path-2-inside-1_1_7)"/>
<path d="M85.5 65.5V64.5L86.5 65V66L85.5 65.5Z" stroke="black" stroke-width="2" mask="url(#path-2-inside-1_1_7)"/>
<path d="M85.5 68V67L86.5 67.5V68.5L85.5 68Z" stroke="black" stroke-width="2" mask="url(#path-2-inside-1_1_7)"/>
<path d="M83 69.5V68.5L84 69V70L83 69.5Z" stroke="black" stroke-width="2" mask="url(#path-2-inside-1_1_7)"/>
<path d="M85.5 70.5V69.5L86.5 70V71L85.5 70.5Z" stroke="black" stroke-width="2" mask="url(#path-2-inside-1_1_7)"/>
<path d="M83 72V71L84 71.5V72.5L83 72Z" stroke="black" stroke-width="2" mask="url(#path-2-inside-1_1_7)"/>
<path d="M85.5 73V72L86.5 72.5V73.5L85.5 73Z" stroke="black" stroke-width="2" mask="url(#path-2-inside-1_1_7)"/>
<path d="M83 74.5V73.5L84 74V75L83 74.5Z" stroke="black" stroke-width="2" mask="url(#path-2-inside-1_1_7)"/>
<path d="M85.5 75.5V74.5L86.5 75V76L85.5 75.5Z" stroke="black" stroke-width="2" mask="url(#path-2-inside-1_1_7)"/>
<path d="M83 77V76L84 76.5V77.5L83 77Z" stroke="black" stroke-width="2" mask="url(#path-2-inside-1_1_7)"/>
<path d="M63 74.5L59.5 77H61.5L63 76L78 84.5L63 74.5Z" fill="black"/>
<rect x="38" y="93" width="8" height="14" fill="black"/>
<path d="M49 89.0004C48 90.5004 47.7438 92.7091 46 92.9999C43 93.5002 40 96.0002 37.4999 92.5003C36.5425 91.1601 36.923 88.9308 36.5 88.0003C34 82.5006 23 90.0006 17.5 93.0003C19.1997 89.1763 28 78.6423 43 76.5001C46 76.0717 48 76 49.5 78.4998C51 80.9996 53.0007 80.5 53.5 80.0005C56 77.5 56.5 77.5002 59 77.5002C48.5 84.3704 45 86.8703 48.5 84.3705C47.6078 84.3705 47.5 92.5003 47.5 81.5C47.4068 80.6587 47.0514 80.096 47 80.0005C45 76.2836 32.5 81.0005 29 84.0006C44.6561 78.6544 47.7316 82.5 48.5 84.3705C60.7631 77.5002 48.5 84.3705 60.7631 77.5002C62 77.5002 63.0946 77.0543 63.5 78.0004C63.5 78.6028 63.5087 90.0964 63.5 90.5004C63 91.0004 63.5 91.5004 56 91.0004C54 90.0004 53.7362 89.184 52 87.0004C52.5 86.5004 56 87.5004 58.5 90.0004C60 90.0004 61.8153 90.0004 62.7219 90.0004C62.7219 88.0004 62.7219 84.2373 62.7219 84.0004C62.7219 82.5004 62.7219 82.2296 62.7219 81C62.0534 81.0528 60.5 81 58.5 81C58.5 81.7233 58.5 84.3705 58.5 85.0004C58.7474 85.0004 60.5 85.0004 62.7219 85.0004C62.7219 83.5005 64 87.0004 62.7219 86.0004C62.3989 86.0004 60 86.0004 58.5 86.0004C58.5 87.5004 58.5 88.5004 58.5 90.0004C57 94.0004 52.5 85.5004 49 89.0004Z" fill="black"/>
<path d="M36 90H29L34 87C36 87 36 90 36 90Z" fill="#5A5959"/>
<path d="M52 80C52 80 50 79.5 49 76.5C55.5001 72.2061 63 67.2525 63 67.2525L73.5 74V63.5L79 66.5V77L83 79.5L94 72.2135L107 80.5V69L104.5 70V69L107 68L112.5 71V84.5L121 90H110V87L94 76.5L85.5 82.5L98 90H84V86L63 72.5L52 80Z" fill="#5A5959"/>
<path d="M64 81H68V85H64V81Z" fill="#5A5959"/>
<rect x="64" y="86" width="4" height="4" fill="#5A5959"/>
<mask id="path-10-inside-2_1_7" fill="white">
<path d="M101 55.5L96 52.5V51.5L102 55V61L101 60.5V55.5Z"/>
</mask>
<path d="M96.1464 51.6464L95.6464 52.1464L96.3536 52.8536L96.8536 52.3536L96.1464 51.6464ZM96 52.5H95V53.0662L95.4855 53.3575L96 52.5ZM101 55.5H102V54.9338L101.514 54.6425L101 55.5ZM101 60.5H100V61.118L100.553 61.3944L101 60.5ZM102 61L101.553 61.8944L103 62.618V61H102ZM102 55H103V54.4256L102.504 54.1362L102 55ZM96 51.5L96.5039 50.6362L95 49.759V51.5H96ZM95.4855 53.3575L100.486 56.3575L101.514 54.6425L96.5145 51.6425L95.4855 53.3575ZM100 55.5V60.5H102V55.5H100ZM100.553 61.3944L101.553 61.8944L102.447 60.1056L101.447 59.6056L100.553 61.3944ZM103 61V55H101V61H103ZM102.504 54.1362L96.5039 50.6362L95.4961 52.3638L101.496 55.8638L102.504 54.1362ZM95 51.5V52.5H97V51.5H95Z" fill="black" mask="url(#path-10-inside-2_1_7)"/>
<path d="M79.0004 51.1396L78.5004 51.3063V45V44.3596L77.8791 44.5149L75.8788 45.0149L75.5 45.1096V45.5V46.1096L72.5 46.8596V43.8904L75.5002 43.1403L75.5004 44.0001L75.5006 44.8089L76.224 44.4472L78.224 43.4472L78.5004 43.309V43V40.2676L79.0004 39.9343V42.5V43.309L79.724 42.9472L80.724 42.4472L81.0004 42.309L81.0004 42.2583L81.6973 41.9596L97.5004 35.1868V35.4542L97.2999 35.5419L81.3 42.5419L81.0004 42.673L81.0004 42.691L80.2768 43.0528L79.2768 43.5528L79.0004 43.691V44V51.1396ZM97.9363 35L98.5004 34.7583V35H98.0004H97.9363Z" fill="#5A5959" stroke="#5A5959"/>
<path d="M98.5 48.5H98H97.5001C97.2801 48.5 97.1413 48.4154 97.0467 48.297C96.9418 48.166 96.875 47.9693 96.875 47.75C96.875 47.5308 96.9419 47.3341 97.0467 47.203C97.1414 47.0846 97.2803 47 97.5001 47C97.6742 47 97.8379 47 98.0021 47C98.3094 47.0001 98.6183 47.0001 99.0002 47C99.2474 47 99.3944 47.0914 99.4881 47.2064C99.5922 47.3341 99.6567 47.5259 99.6535 47.7424C99.6502 47.9587 99.5796 48.1568 99.4688 48.2911C99.3672 48.4143 99.2209 48.5 99.0001 48.5H98.5Z" fill="#5A5959" stroke="#5A5959"/>
<path d="M51.325 92.625L50.725 92.6C50.275 92.6 49.9833 92.7083 49.85 92.925C49.8167 92.975 49.775 93 49.725 93C49.5083 93 49.4 92.6333 49.4 91.9C49.4 91.15 49.5083 90.675 49.725 90.475C49.9583 90.275 50.35 90.175 50.9 90.175C51.4667 90.175 51.85 90.275 52.05 90.475C52.25 90.6583 52.35 90.975 52.35 91.425C52.35 91.875 52.275 92.1917 52.125 92.375C51.975 92.5417 51.7083 92.625 51.325 92.625ZM49.325 105.25L49.6 99.425C49.6 98.0417 49.4417 97.1 49.125 96.6C49.025 96.4333 48.9083 96.3083 48.775 96.225C48.675 96.1917 48.625 96.125 48.625 96.025C48.625 95.725 49.05 95.4333 49.9 95.15C50.75 94.8667 51.3667 94.725 51.75 94.725C52.15 94.725 52.3583 94.825 52.375 95.025C52.375 95.3583 52.325 96.3083 52.225 97.875C52.1417 99.425 52.1 101.058 52.1 102.775C52.1 104.492 52.2 105.558 52.4 105.975C52.45 106.058 52.475 106.142 52.475 106.225C52.475 106.442 52.1583 106.55 51.525 106.55C50.8917 106.55 50.2417 106.383 49.575 106.05C49.4083 105.967 49.325 105.7 49.325 105.25ZM61.624 99.3L61.724 100.175C61.724 100.492 61.424 100.65 60.824 100.65C59.6074 100.65 58.999 100.192 58.999 99.275C58.999 99.0583 59.0574 98.7583 59.174 98.375C59.2907 97.9917 59.349 97.6583 59.349 97.375C59.349 97.0917 59.2657 96.85 59.099 96.65C58.9324 96.4333 58.6907 96.325 58.374 96.325C58.0574 96.325 57.7824 96.4417 57.549 96.675C57.3324 96.8917 57.199 97.1167 57.149 97.35L57.049 97.7C56.949 98.2167 56.899 99.0833 56.899 100.3C56.899 101.5 56.9157 102.45 56.949 103.15C56.9824 103.833 57.0157 104.308 57.049 104.575C57.0824 104.825 57.099 104.975 57.099 105.025C57.099 105.442 56.8407 105.775 56.324 106.025C55.8074 106.292 55.2907 106.425 54.774 106.425C54.2574 106.425 53.999 106.317 53.999 106.1L54.124 105.325C54.3574 103.875 54.474 101.983 54.474 99.65C54.474 97.3167 54.3907 95.7333 54.224 94.9C54.224 94.7 54.399 94.6 54.749 94.6C55.649 94.6 56.249 94.9083 56.549 95.525C56.5657 95.5917 56.5907 95.625 56.624 95.625C56.674 95.625 56.7907 95.55 56.974 95.4C57.524 94.95 58.174 94.725 58.924 94.725C59.3907 94.725 59.8574 94.8167 60.324 95C61.274 95.3833 61.749 96.1833 61.749 97.4L61.624 99.3ZM62.5107 96.25L62.5857 95.25C62.6024 95.1 62.7191 95.025 62.9357 95.025H63.8107L63.7107 93.025V92.925C63.7107 92.5417 64.0024 92.175 64.5857 91.825C65.1691 91.475 65.7024 91.3 66.1857 91.3C66.3357 91.3 66.4107 91.3667 66.4107 91.5V91.525C66.3441 91.975 66.2774 93.1333 66.2107 95C66.9441 95 67.4107 94.9833 67.6107 94.95C67.8107 94.9167 67.9191 94.9 67.9357 94.9C68.0524 94.9 68.1107 95 68.1107 95.2C68.1107 95.4 68.0191 95.6583 67.8357 95.975C67.6524 96.275 67.4524 96.4333 67.2357 96.45H66.1857C66.1691 97.0167 66.1607 97.975 66.1607 99.325C66.1607 100.658 66.1691 101.758 66.1857 102.625C66.2191 103.492 66.2524 104.15 66.2857 104.6C66.3191 105.033 66.3524 105.383 66.3857 105.65C66.4357 105.917 66.4691 106.108 66.4857 106.225C66.5191 106.342 66.5357 106.417 66.5357 106.45C66.5357 106.617 66.4274 106.708 66.2107 106.725C65.5607 106.725 64.9107 106.633 64.2607 106.45C63.6274 106.267 63.3107 105.95 63.3107 105.5C63.6607 102.7 63.8357 99.6917 63.8357 96.475C63.3857 96.475 63.0441 96.4917 62.8107 96.525H62.7857C62.6357 96.525 62.5441 96.4333 62.5107 96.25ZM71.7016 92.575L71.6766 95C71.6766 95.1 71.7099 95.15 71.7766 95.15C71.8432 95.15 71.9099 95.125 71.9766 95.075C72.3932 94.7917 73.0516 94.65 73.9516 94.65C75.4682 94.65 76.5182 95.1667 77.1016 96.2C77.3182 96.5833 77.4266 97.0917 77.4266 97.725C77.4266 98.3583 77.3849 99.2333 77.3016 100.35C77.2349 101.467 77.2016 102.258 77.2016 102.725C77.2016 104.358 77.4349 105.442 77.9016 105.975C77.9849 106.058 78.0266 106.142 78.0266 106.225C78.0266 106.392 77.6682 106.475 76.9516 106.475C75.0182 106.475 74.0516 105.575 74.0516 103.775C74.0516 103.075 74.2182 102.092 74.5516 100.825C74.8849 99.5583 75.0516 98.625 75.0516 98.025C75.0516 97.425 74.9099 96.9667 74.6266 96.65C74.3432 96.3167 73.9516 96.15 73.4516 96.15C72.9516 96.15 72.5516 96.2583 72.2516 96.475C71.9682 96.6917 71.7932 96.9167 71.7266 97.15L71.6516 97.475C71.6349 97.7917 71.6266 98.8 71.6266 100.5C71.6266 102.2 71.6682 103.308 71.7516 103.825C71.8349 104.325 71.8766 104.608 71.8766 104.675C71.8766 105.158 71.5516 105.592 70.9016 105.975C70.2516 106.342 69.6099 106.525 68.9766 106.525C68.7432 106.525 68.6266 106.392 68.6266 106.125L68.6766 105.65C69.0432 102.85 69.2266 99.8167 69.2266 96.55C69.2266 95.2833 69.1766 94 69.0766 92.7L69.0516 92.15C69.0182 91.6833 68.9182 91.2833 68.7516 90.95C68.6016 90.6167 68.4599 90.4 68.3266 90.3L68.1016 90.175C67.9849 90.1083 67.9266 90.0333 67.9266 89.95C67.9266 89.7167 68.3182 89.4333 69.1016 89.1C69.8849 88.75 70.4849 88.575 70.9016 88.575C71.3349 88.575 71.5682 88.6667 71.6016 88.85C71.6682 89.7 71.7016 90.9417 71.7016 92.575Z" fill="black"/>
<path d="M87.22 102.85C87.14 103.28 87.09 103.645 87.07 103.945C87.06 104.235 87.11 104.46 87.22 104.62C87.34 104.78 87.535 104.87 87.805 104.89C88.075 104.91 88.455 104.86 88.945 104.74C89.015 104.72 89.055 104.715 89.065 104.725C89.085 104.735 89.08 104.75 89.05 104.77C89.03 104.79 89 104.81 88.96 104.83C88.8 104.93 88.625 105.01 88.435 105.07C88.255 105.13 88.075 105.165 87.895 105.175C87.715 105.175 87.545 105.155 87.385 105.115C87.225 105.075 87.095 105.005 86.995 104.905C86.795 104.705 86.68 104.43 86.65 104.08C86.62 103.72 86.645 103.355 86.725 102.985C86.785 102.685 86.86 102.39 86.95 102.1C87.04 101.8 87.155 101.525 87.295 101.275C87.445 101.015 87.615 100.79 87.805 100.6C88.005 100.4 88.235 100.25 88.495 100.15C88.625 100.1 88.765 100.075 88.915 100.075C89.065 100.075 89.2 100.095 89.32 100.135C89.44 100.175 89.54 100.235 89.62 100.315C89.71 100.395 89.765 100.49 89.785 100.6C89.795 100.71 89.78 100.82 89.74 100.93C89.7 101.03 89.64 101.125 89.56 101.215C89.49 101.305 89.41 101.38 89.32 101.44C89.23 101.5 89.14 101.535 89.05 101.545C88.97 101.565 88.92 101.56 88.9 101.53C88.89 101.5 88.91 101.475 88.96 101.455C89 101.445 89.05 101.415 89.11 101.365C89.18 101.305 89.24 101.24 89.29 101.17C89.35 101.1 89.395 101.02 89.425 100.93C89.455 100.84 89.455 100.75 89.425 100.66C89.405 100.6 89.335 100.555 89.215 100.525C89.105 100.495 88.935 100.505 88.705 100.555C88.525 100.605 88.355 100.705 88.195 100.855C88.035 100.995 87.89 101.175 87.76 101.395C87.63 101.605 87.515 101.84 87.415 102.1C87.325 102.35 87.26 102.6 87.22 102.85ZM87.4 105.94C87.5 105.94 87.55 105.95 87.55 105.97C87.55 105.98 87.54 105.99 87.52 106C87.51 106.01 87.475 106.015 87.415 106.015C87.195 106.025 86.975 106.015 86.755 105.985C86.535 105.955 86.33 105.89 86.14 105.79C85.95 105.68 85.78 105.535 85.63 105.355C85.49 105.165 85.39 104.92 85.33 104.62C85.23 104.16 85.195 103.69 85.225 103.21C85.255 102.73 85.345 102.265 85.495 101.815C85.645 101.365 85.85 100.94 86.11 100.54C86.38 100.13 86.71 99.77 87.1 99.46C87.39 99.22 87.725 99.06 88.105 98.98C88.485 98.89 88.85 98.87 89.2 98.92C89.56 98.97 89.87 99.09 90.13 99.28C90.4 99.47 90.565 99.725 90.625 100.045C90.655 100.125 90.655 100.18 90.625 100.21C90.595 100.21 90.565 100.16 90.535 100.06C90.395 99.84 90.235 99.665 90.055 99.535C89.875 99.405 89.68 99.315 89.47 99.265C89.27 99.205 89.065 99.18 88.855 99.19C88.645 99.2 88.45 99.23 88.27 99.28C87.91 99.38 87.62 99.52 87.4 99.7C87.18 99.87 86.96 100.085 86.74 100.345C86.39 100.765 86.13 101.24 85.96 101.77C85.8 102.29 85.7 102.81 85.66 103.33C85.64 103.58 85.645 103.84 85.675 104.11C85.705 104.37 85.775 104.645 85.885 104.935C85.995 105.215 86.195 105.45 86.485 105.64C86.775 105.82 87.08 105.92 87.4 105.94ZM86.23 102.325C86.29 101.995 86.365 101.68 86.455 101.38C86.545 101.07 86.67 100.79 86.83 100.54C87 100.28 87.215 100.055 87.475 99.865C87.735 99.675 88.055 99.53 88.435 99.43C88.565 99.4 88.72 99.385 88.9 99.385C89.09 99.385 89.275 99.415 89.455 99.475C89.635 99.525 89.8 99.615 89.95 99.745C90.1 99.865 90.215 100.03 90.295 100.24C90.365 100.44 90.38 100.625 90.34 100.795C90.3 100.965 90.23 101.12 90.13 101.26C90.03 101.39 89.91 101.5 89.77 101.59C89.64 101.67 89.515 101.715 89.395 101.725C89.375 101.725 89.345 101.72 89.305 101.71C89.275 101.7 89.3 101.68 89.38 101.65C89.49 101.6 89.6 101.5 89.71 101.35C89.83 101.2 89.91 101.015 89.95 100.795C90 100.565 89.94 100.365 89.77 100.195C89.6 100.025 89.38 99.925 89.11 99.895C88.85 99.865 88.615 99.89 88.405 99.97C88.195 100.05 88.015 100.145 87.865 100.255C87.715 100.365 87.595 100.475 87.505 100.585C87.415 100.685 87.355 100.75 87.325 100.78C86.965 101.24 86.655 101.77 86.395 102.37C86.395 102.38 86.37 102.435 86.32 102.535C86.28 102.635 86.25 102.685 86.23 102.685C86.21 102.685 86.2 102.67 86.2 102.64C86.2 102.6 86.2 102.56 86.2 102.52C86.21 102.48 86.215 102.44 86.215 102.4C86.225 102.36 86.23 102.335 86.23 102.325ZM89.26 105.04C89.19 105.14 89.095 105.235 88.975 105.325C88.865 105.415 88.735 105.495 88.585 105.565C88.445 105.625 88.295 105.675 88.135 105.715C87.985 105.755 87.835 105.775 87.685 105.775C87.425 105.775 87.18 105.725 86.95 105.625C86.72 105.525 86.53 105.3 86.38 104.95C86.34 104.88 86.34 104.825 86.38 104.785C86.41 104.775 86.445 104.795 86.485 104.845C86.535 104.885 86.58 104.93 86.62 104.98C86.73 105.09 86.885 105.2 87.085 105.31C87.295 105.41 87.475 105.46 87.625 105.46C87.925 105.46 88.195 105.42 88.435 105.34C88.685 105.25 88.91 105.135 89.11 104.995C89.13 104.985 89.155 104.97 89.185 104.95C89.225 104.92 89.255 104.905 89.275 104.905C89.295 104.895 89.305 104.9 89.305 104.92C89.315 104.94 89.3 104.98 89.26 105.04ZM95.2437 101.845C95.2737 101.575 95.2787 101.29 95.2587 100.99C95.2387 100.69 95.1737 100.415 95.0637 100.165C94.9637 99.905 94.8037 99.69 94.5837 99.52C94.3737 99.35 94.0937 99.265 93.7437 99.265C93.2737 99.265 92.8637 99.395 92.5137 99.655C92.1637 99.905 91.8637 100.22 91.6137 100.6C91.3637 100.97 91.1687 101.37 91.0287 101.8C90.8887 102.22 90.7987 102.605 90.7587 102.955C90.6987 103.435 90.6887 103.85 90.7287 104.2C90.7787 104.55 90.8637 104.84 90.9837 105.07C91.1037 105.29 91.2537 105.455 91.4337 105.565C91.6237 105.675 91.8287 105.73 92.0487 105.73C92.3587 105.74 92.6837 105.655 93.0237 105.475C93.3737 105.285 93.6987 105.025 93.9987 104.695C94.2987 104.355 94.5587 103.945 94.7787 103.465C95.0087 102.975 95.1637 102.435 95.2437 101.845ZM90.4137 102.88C90.4537 102.48 90.5537 102.04 90.7137 101.56C90.8737 101.08 91.0937 100.635 91.3737 100.225C91.6637 99.815 92.0087 99.475 92.4087 99.205C92.8087 98.925 93.2737 98.785 93.8037 98.785C94.2037 98.785 94.5337 98.88 94.7937 99.07C95.0537 99.26 95.2537 99.505 95.3937 99.805C95.5337 100.095 95.6237 100.415 95.6637 100.765C95.7037 101.105 95.7037 101.43 95.6637 101.74C95.5737 102.46 95.3987 103.085 95.1387 103.615C94.8787 104.145 94.5737 104.59 94.2237 104.95C93.8737 105.3 93.5037 105.565 93.1137 105.745C92.7237 105.915 92.3487 106 91.9887 106C91.7187 106 91.4737 105.94 91.2537 105.82C91.0437 105.7 90.8637 105.515 90.7137 105.265C90.5737 105.005 90.4737 104.68 90.4137 104.29C90.3637 103.89 90.3637 103.42 90.4137 102.88ZM92.0937 104.995C92.0437 104.995 91.9937 104.98 91.9437 104.95C91.8937 104.91 91.8537 104.865 91.8237 104.815C91.7937 104.765 91.7737 104.715 91.7637 104.665C91.7537 104.615 91.7737 104.58 91.8237 104.56C91.8537 104.55 91.8937 104.585 91.9437 104.665C91.9937 104.745 92.0487 104.785 92.1087 104.785C92.2087 104.785 92.3237 104.72 92.4537 104.59C92.5937 104.46 92.7237 104.31 92.8437 104.14C92.9737 103.96 93.0837 103.785 93.1737 103.615C93.2737 103.445 93.3437 103.32 93.3837 103.24C93.4237 103.16 93.4637 103.06 93.5037 102.94C93.5437 102.81 93.5787 102.68 93.6087 102.55C93.6487 102.42 93.6787 102.295 93.6987 102.175C93.7287 102.045 93.7487 101.935 93.7587 101.845C93.8087 101.395 93.7987 101.05 93.7287 100.81C93.6587 100.56 93.5437 100.435 93.3837 100.435C93.2637 100.435 93.1387 100.475 93.0087 100.555C92.8787 100.625 92.7537 100.72 92.6337 100.84C92.5237 100.96 92.4237 101.095 92.3337 101.245C92.2437 101.385 92.1787 101.53 92.1387 101.68C92.0887 101.85 92.0537 101.935 92.0337 101.935C92.0037 101.935 91.9887 101.85 91.9887 101.68C92.0187 101.49 92.0837 101.305 92.1837 101.125C92.2837 100.935 92.4087 100.77 92.5587 100.63C92.7087 100.48 92.8737 100.36 93.0537 100.27C93.2337 100.17 93.4187 100.12 93.6087 100.12C93.7987 100.12 93.9387 100.19 94.0287 100.33C94.1287 100.46 94.1987 100.625 94.2387 100.825C94.2787 101.015 94.2937 101.215 94.2837 101.425C94.2837 101.625 94.2737 101.785 94.2537 101.905C94.2137 102.175 94.1487 102.44 94.0587 102.7C93.9787 102.95 93.8787 103.205 93.7587 103.465C93.6987 103.585 93.6087 103.735 93.4887 103.915C93.3687 104.085 93.2287 104.25 93.0687 104.41C92.9187 104.57 92.7537 104.71 92.5737 104.83C92.4037 104.94 92.2437 104.995 92.0937 104.995ZM92.5737 105.28C92.5837 105.34 92.5337 105.39 92.4237 105.43C92.3237 105.47 92.2187 105.49 92.1087 105.49C91.7987 105.48 91.5587 105.38 91.3887 105.19C91.2287 105 91.1137 104.775 91.0437 104.515C90.9837 104.255 90.9537 103.985 90.9537 103.705C90.9637 103.425 90.9787 103.19 90.9987 103C91.0387 102.67 91.1187 102.3 91.2387 101.89C91.3587 101.48 91.5287 101.095 91.7487 100.735C91.9687 100.375 92.2387 100.075 92.5587 99.835C92.8787 99.585 93.2587 99.46 93.6987 99.46C93.9887 99.46 94.2187 99.535 94.3887 99.685C94.5687 99.835 94.6987 100.02 94.7787 100.24C94.8687 100.46 94.9187 100.7 94.9287 100.96C94.9487 101.21 94.9437 101.44 94.9137 101.65C94.8937 101.88 94.8587 102.09 94.8087 102.28C94.7587 102.47 94.6887 102.68 94.5987 102.91C94.5687 102.98 94.5287 103.06 94.4787 103.15C94.4287 103.24 94.3737 103.28 94.3137 103.27C94.2837 103.26 94.2737 103.22 94.2837 103.15C94.3037 103.08 94.3237 102.995 94.3437 102.895C94.3737 102.785 94.4037 102.675 94.4337 102.565C94.4637 102.445 94.4837 102.335 94.4937 102.235C94.5137 102.065 94.5237 101.855 94.5237 101.605C94.5337 101.345 94.5137 101.095 94.4637 100.855C94.4237 100.615 94.3437 100.41 94.2237 100.24C94.1037 100.07 93.9237 99.985 93.6837 99.985C93.3337 99.985 93.0087 100.1 92.7087 100.33C92.4187 100.55 92.1637 100.825 91.9437 101.155C91.7237 101.475 91.5437 101.815 91.4037 102.175C91.2737 102.525 91.1937 102.835 91.1637 103.105C91.1437 103.265 91.1387 103.465 91.1487 103.705C91.1587 103.945 91.1937 104.185 91.2537 104.425C91.3237 104.655 91.4337 104.855 91.5837 105.025C91.7337 105.195 91.9387 105.285 92.1987 105.295C92.2787 105.305 92.3537 105.3 92.4237 105.28C92.5037 105.25 92.5537 105.25 92.5737 105.28ZM101.142 100.615C101.162 100.925 101.142 101.225 101.082 101.515C101.022 101.795 100.947 102.055 100.857 102.295C100.837 102.345 100.802 102.4 100.752 102.46C100.712 102.52 100.672 102.54 100.632 102.52C100.612 102.52 100.607 102.485 100.617 102.415C100.627 102.345 100.632 102.295 100.632 102.265C100.642 102.155 100.647 102.02 100.647 101.86C100.657 101.69 100.662 101.52 100.662 101.35C100.662 101.18 100.652 101.02 100.632 100.87C100.622 100.71 100.602 100.575 100.572 100.465C100.482 100.145 100.337 99.97 100.137 99.94C99.9465 99.9 99.7515 99.95 99.5515 100.09C99.3515 100.23 99.1615 100.425 98.9815 100.675C98.8015 100.925 98.6815 101.17 98.6215 101.41C98.6815 101.32 98.7565 101.215 98.8465 101.095C98.9465 100.965 99.0565 100.845 99.1765 100.735C99.2965 100.615 99.4215 100.52 99.5515 100.45C99.6915 100.37 99.8215 100.335 99.9415 100.345C100.072 100.355 100.162 100.425 100.212 100.555C100.272 100.685 100.307 100.845 100.317 101.035C100.327 101.225 100.317 101.43 100.287 101.65C100.257 101.87 100.222 102.075 100.182 102.265C100.112 102.575 100.052 102.895 100.002 103.225C99.9515 103.555 99.9315 103.88 99.9415 104.2C99.9615 104.51 100.017 104.815 100.107 105.115C100.207 105.405 100.372 105.675 100.602 105.925C100.622 105.955 100.637 105.98 100.647 106C100.657 106.02 100.632 106.015 100.572 105.985C100.312 105.835 100.102 105.66 99.9415 105.46C99.7915 105.26 99.6765 105.045 99.5965 104.815C99.5165 104.585 99.4665 104.345 99.4465 104.095C99.4365 103.845 99.4415 103.595 99.4615 103.345C99.5015 102.985 99.5615 102.67 99.6415 102.4C99.7215 102.13 99.7815 101.825 99.8215 101.485C99.8415 101.275 99.8265 101.14 99.7765 101.08C99.7265 101.01 99.6665 100.97 99.5965 100.96C99.4965 100.95 99.3815 101.005 99.2515 101.125C99.1315 101.235 99.0015 101.395 98.8615 101.605C98.7315 101.815 98.6015 102.06 98.4715 102.34C98.3515 102.62 98.2465 102.915 98.1565 103.225C98.0765 103.535 97.9765 103.86 97.8565 104.2C97.7465 104.53 97.6415 104.815 97.5415 105.055C97.5015 105.145 97.4715 105.19 97.4515 105.19C97.4315 105.19 97.4115 105.17 97.3915 105.13C97.3815 105.09 97.3765 105.06 97.3765 105.04C97.3365 104.54 97.3815 104.045 97.5115 103.555C97.6415 103.065 97.7915 102.57 97.9615 102.07C98.0615 101.76 98.1515 101.485 98.2315 101.245C98.3115 101.005 98.3515 100.7 98.3515 100.33C98.3515 100.17 98.3915 100.005 98.4715 99.835C98.5515 99.655 98.6665 99.495 98.8165 99.355C98.9765 99.205 99.1715 99.085 99.4015 98.995C99.6315 98.905 99.8915 98.865 100.182 98.875C100.662 98.885 101.032 99 101.292 99.22C101.552 99.43 101.732 99.7 101.832 100.03C101.942 100.36 101.987 100.72 101.967 101.11C101.957 101.49 101.917 101.86 101.847 102.22C101.787 102.49 101.717 102.735 101.637 102.955C101.557 103.175 101.472 103.38 101.382 103.57C101.292 103.76 101.207 103.94 101.127 104.11C101.047 104.28 100.982 104.45 100.932 104.62C100.922 104.65 100.912 104.685 100.902 104.725C100.892 104.755 100.877 104.77 100.857 104.77C100.837 104.77 100.822 104.75 100.812 104.71C100.802 104.67 100.797 104.625 100.797 104.575C100.777 104.235 100.812 103.91 100.902 103.6C100.992 103.28 101.087 102.955 101.187 102.625C101.287 102.285 101.362 101.93 101.412 101.56C101.462 101.19 101.442 100.78 101.352 100.33C101.262 99.85 101.042 99.53 100.692 99.37C100.342 99.21 99.9415 99.22 99.4915 99.4C99.4315 99.43 99.3515 99.475 99.2515 99.535C99.1515 99.595 99.0515 99.675 98.9515 99.775C98.8615 99.875 98.7765 99.995 98.6965 100.135C98.6165 100.265 98.5665 100.41 98.5465 100.57C98.6665 100.39 98.8065 100.22 98.9665 100.06C99.1265 99.9 99.2965 99.775 99.4765 99.685C99.6565 99.585 99.8365 99.525 100.017 99.505C100.207 99.485 100.392 99.52 100.572 99.61C100.782 99.72 100.927 99.875 101.007 100.075C101.087 100.265 101.132 100.445 101.142 100.615ZM98.0815 101.02C97.9715 101.4 97.8215 101.775 97.6315 102.145C97.4515 102.515 97.3015 102.87 97.1815 103.21C97.1715 103.23 97.1515 103.27 97.1215 103.33C97.1015 103.38 97.0715 103.4 97.0315 103.39C97.0115 103.38 96.9965 103.35 96.9865 103.3C96.9865 103.24 96.9865 103.195 96.9865 103.165C96.9865 103.005 97.0115 102.795 97.0615 102.535C97.1215 102.265 97.1815 102.045 97.2415 101.875C97.2615 101.815 97.2965 101.665 97.3465 101.425C97.4065 101.175 97.4565 100.905 97.4965 100.615C97.5465 100.325 97.5765 100.045 97.5865 99.775C97.6065 99.505 97.5815 99.31 97.5115 99.19C97.4715 99.12 97.4715 99.085 97.5115 99.085C97.5415 99.085 97.5815 99.11 97.6315 99.16C97.7515 99.27 97.8465 99.405 97.9165 99.565C97.9965 99.725 98.0515 99.895 98.0815 100.075C98.1215 100.245 98.1365 100.415 98.1265 100.585C98.1265 100.755 98.1115 100.9 98.0815 101.02ZM101.142 105.985C101.122 105.995 101.082 105.99 101.022 105.97C100.992 105.96 100.967 105.95 100.947 105.94C100.807 105.85 100.687 105.75 100.587 105.64C100.487 105.52 100.387 105.32 100.287 105.04C100.257 104.94 100.232 104.815 100.212 104.665C100.202 104.505 100.202 104.35 100.212 104.2C100.222 104.05 100.237 103.925 100.257 103.825C100.287 103.715 100.327 103.66 100.377 103.66C100.397 103.66 100.417 103.72 100.437 103.84C100.467 103.95 100.492 104.08 100.512 104.23C100.542 104.38 100.572 104.53 100.602 104.68C100.632 104.83 100.657 104.94 100.677 105.01C100.727 105.16 100.777 105.31 100.827 105.46C100.877 105.61 100.957 105.74 101.067 105.85C101.087 105.87 101.107 105.9 101.127 105.94C101.147 105.97 101.152 105.985 101.142 105.985ZM97.0915 106.015C96.7815 105.805 96.5415 105.575 96.3715 105.325C96.2115 105.075 96.1015 104.815 96.0415 104.545C95.9815 104.275 95.9565 104 95.9665 103.72C95.9865 103.44 96.0265 103.165 96.0865 102.895C96.1665 102.535 96.2665 102.18 96.3865 101.83C96.5165 101.47 96.6365 101.125 96.7465 100.795C96.8665 100.455 96.9565 100.125 97.0165 99.805C97.0865 99.485 97.0965 99.18 97.0465 98.89C97.0465 98.85 97.0515 98.83 97.0615 98.83C97.0815 98.83 97.1065 98.855 97.1365 98.905C97.3165 99.225 97.4015 99.555 97.3915 99.895C97.3815 100.235 97.3265 100.585 97.2265 100.945C97.1265 101.295 97.0015 101.655 96.8515 102.025C96.7115 102.385 96.6015 102.75 96.5215 103.12C96.4715 103.35 96.4365 103.595 96.4165 103.855C96.4065 104.105 96.4265 104.355 96.4765 104.605C96.5265 104.855 96.6065 105.1 96.7165 105.34C96.8365 105.58 96.9965 105.795 97.1965 105.985C97.2365 106.005 97.2465 106.025 97.2265 106.045C97.2065 106.065 97.1815 106.065 97.1515 106.045C97.1315 106.035 97.1115 106.025 97.0915 106.015ZM97.6615 106.075C97.6315 106.095 97.5915 106.08 97.5415 106.03C97.4315 105.95 97.3215 105.865 97.2115 105.775C97.1115 105.685 97.0115 105.54 96.9115 105.34C96.8715 105.27 96.8415 105.18 96.8215 105.07C96.8015 104.96 96.7915 104.855 96.7915 104.755C96.7915 104.645 96.7965 104.555 96.8065 104.485C96.8265 104.415 96.8515 104.38 96.8815 104.38C96.9215 104.39 96.9515 104.445 96.9715 104.545C97.0015 104.645 97.0265 104.71 97.0465 104.74C97.0865 104.85 97.1215 104.955 97.1515 105.055C97.1815 105.145 97.2165 105.235 97.2565 105.325C97.3165 105.465 97.3765 105.585 97.4365 105.685C97.4965 105.785 97.5665 105.885 97.6465 105.985C97.6565 105.995 97.6665 106.01 97.6765 106.03C97.6865 106.05 97.6815 106.065 97.6615 106.075ZM104.038 100.465C104.048 100.375 104.078 100.27 104.128 100.15C104.178 100.02 104.243 99.9 104.323 99.79C104.413 99.67 104.518 99.565 104.638 99.475C104.758 99.375 104.893 99.31 105.043 99.28C105.363 99.22 105.628 99.24 105.838 99.34C106.048 99.44 106.208 99.555 106.318 99.685C106.358 99.745 106.373 99.78 106.363 99.79C106.343 99.81 106.308 99.805 106.258 99.775C106.198 99.735 106.098 99.7 105.958 99.67C105.828 99.64 105.683 99.635 105.523 99.655C105.373 99.665 105.223 99.71 105.073 99.79C104.933 99.87 104.818 100 104.728 100.18C104.648 100.35 104.593 100.525 104.563 100.705C104.533 100.885 104.513 101.055 104.503 101.215C104.503 101.365 104.508 101.495 104.518 101.605C104.528 101.715 104.533 101.79 104.533 101.83C104.553 101.94 104.568 102.08 104.578 102.25C104.598 102.41 104.608 102.575 104.608 102.745C104.608 102.915 104.603 103.085 104.593 103.255C104.583 103.415 104.563 103.555 104.533 103.675C104.523 103.705 104.508 103.755 104.488 103.825C104.478 103.895 104.463 103.93 104.443 103.93C104.393 103.93 104.368 103.895 104.368 103.825C104.368 103.755 104.368 103.705 104.368 103.675C104.348 103.425 104.313 103.175 104.263 102.925C104.213 102.665 104.163 102.4 104.113 102.13C104.073 101.86 104.043 101.59 104.023 101.32C104.003 101.04 104.008 100.755 104.038 100.465ZM103.513 103.435C103.523 103.235 103.503 102.955 103.453 102.595C103.413 102.225 103.398 101.8 103.408 101.32C103.418 101.07 103.443 100.815 103.483 100.555C103.523 100.285 103.618 100.02 103.768 99.76C103.928 99.48 104.128 99.275 104.368 99.145C104.618 99.005 104.833 98.94 105.013 98.95C105.043 98.95 105.073 98.95 105.103 98.95C105.133 98.95 105.148 98.955 105.148 98.965C105.148 98.985 105.143 98.995 105.133 98.995C105.123 98.985 105.088 98.99 105.028 99.01C104.848 99.06 104.688 99.145 104.548 99.265C104.408 99.375 104.288 99.505 104.188 99.655C104.088 99.805 104.008 99.96 103.948 100.12C103.888 100.28 103.853 100.425 103.843 100.555C103.783 101.105 103.788 101.585 103.858 101.995C103.908 102.325 103.948 102.67 103.978 103.03C104.008 103.38 103.993 103.705 103.933 104.005C103.883 104.295 103.778 104.54 103.618 104.74C103.468 104.93 103.233 105.035 102.913 105.055C102.883 105.055 102.843 105.055 102.793 105.055C102.753 105.045 102.733 105.03 102.733 105.01C102.733 104.99 102.778 104.955 102.868 104.905C103.128 104.785 103.298 104.61 103.378 104.38C103.458 104.15 103.503 103.835 103.513 103.435ZM101.923 105.205C102.063 105.425 102.283 105.59 102.583 105.7C102.893 105.8 103.258 105.79 103.678 105.67C103.888 105.61 104.073 105.505 104.233 105.355C104.393 105.205 104.523 105.04 104.623 104.86C104.733 104.67 104.813 104.475 104.863 104.275C104.923 104.075 104.958 103.89 104.968 103.72C104.978 103.44 104.968 103.165 104.938 102.895C104.918 102.625 104.888 102.365 104.848 102.115C104.818 101.855 104.788 101.605 104.758 101.365C104.738 101.125 104.738 100.89 104.758 100.66C104.778 100.41 104.848 100.22 104.968 100.09C105.088 99.96 105.233 99.88 105.403 99.85C105.583 99.81 105.768 99.82 105.958 99.88C106.148 99.94 106.323 100.035 106.483 100.165C106.523 100.185 106.538 100.21 106.528 100.24C106.528 100.26 106.518 100.265 106.498 100.255C106.478 100.245 106.458 100.235 106.438 100.225C106.068 100.105 105.778 100.07 105.568 100.12C105.368 100.17 105.258 100.35 105.238 100.66C105.218 101.02 105.243 101.445 105.313 101.935C105.393 102.415 105.423 102.95 105.403 103.54C105.413 103.74 105.388 103.97 105.328 104.23C105.278 104.49 105.188 104.745 105.058 104.995C104.938 105.235 104.773 105.45 104.563 105.64C104.363 105.83 104.123 105.95 103.843 106C103.313 106.08 102.888 106.05 102.568 105.91C102.258 105.77 102.033 105.555 101.893 105.265C101.873 105.205 101.863 105.17 101.863 105.16H101.878C101.878 105.16 101.893 105.175 101.923 105.205ZM102.583 105.205C102.773 105.255 103.003 105.275 103.273 105.265C103.363 105.255 103.473 105.23 103.603 105.19C103.733 105.15 103.803 105.14 103.813 105.16C103.843 105.2 103.813 105.25 103.723 105.31C103.633 105.37 103.518 105.425 103.378 105.475C103.238 105.515 103.093 105.545 102.943 105.565C102.793 105.575 102.668 105.56 102.568 105.52C102.378 105.44 102.243 105.355 102.163 105.265C102.073 105.165 101.993 105.045 101.923 104.905L101.893 104.845C101.873 104.805 101.868 104.78 101.878 104.77C101.888 104.76 101.903 104.76 101.923 104.77C101.933 104.78 101.938 104.79 101.938 104.8C102.058 104.91 102.158 104.995 102.238 105.055C102.328 105.105 102.443 105.155 102.583 105.205ZM110.9 99.34C110.91 99.35 110.915 99.375 110.915 99.415C110.915 99.445 110.91 99.47 110.9 99.49C110.81 99.78 110.655 99.985 110.435 100.105C110.215 100.225 110.02 100.285 109.85 100.285C109.64 100.285 109.425 100.27 109.205 100.24C108.985 100.2 108.775 100.105 108.575 99.955C108.555 99.935 108.53 99.915 108.5 99.895C108.47 99.875 108.455 99.855 108.455 99.835C108.455 99.805 108.47 99.785 108.5 99.775C108.53 99.755 108.555 99.74 108.575 99.73C108.665 99.71 108.78 99.695 108.92 99.685C109.07 99.665 109.215 99.665 109.355 99.685C109.455 99.705 109.575 99.715 109.715 99.715C109.855 99.715 109.995 99.705 110.135 99.685C110.285 99.665 110.42 99.635 110.54 99.595C110.66 99.545 110.75 99.475 110.81 99.385C110.84 99.345 110.87 99.33 110.9 99.34ZM111.005 98.875L110.96 98.95C110.79 99.17 110.61 99.315 110.42 99.385C110.23 99.445 110.03 99.47 109.82 99.46C109.61 99.45 109.395 99.425 109.175 99.385C108.965 99.335 108.755 99.305 108.545 99.295C108.265 99.285 107.985 99.37 107.705 99.55C107.425 99.73 107.185 100.045 106.985 100.495C106.955 100.555 106.935 100.57 106.925 100.54C106.915 100.5 106.915 100.465 106.925 100.435C107.005 100.135 107.1 99.885 107.21 99.685C107.32 99.485 107.435 99.325 107.555 99.205C107.685 99.075 107.82 98.98 107.96 98.92C108.1 98.86 108.245 98.82 108.395 98.8C108.565 98.23 108.695 97.675 108.785 97.135C108.885 96.585 108.895 96.065 108.815 95.575C108.815 95.535 108.815 95.515 108.815 95.515C108.835 95.505 108.855 95.51 108.875 95.53C108.895 95.55 108.905 95.565 108.905 95.575C109.125 96.055 109.215 96.57 109.175 97.12C109.135 97.66 109.035 98.23 108.875 98.83C108.925 98.84 108.965 98.845 108.995 98.845C109.025 98.845 109.06 98.845 109.1 98.845C109.15 98.585 109.195 98.31 109.235 98.02C109.285 97.72 109.32 97.435 109.34 97.165C109.37 96.895 109.38 96.65 109.37 96.43C109.36 96.21 109.325 96.045 109.265 95.935C109.235 95.845 109.235 95.8 109.265 95.8C109.285 95.8 109.3 95.81 109.31 95.83C109.32 95.85 109.335 95.87 109.355 95.89C109.495 96.03 109.605 96.22 109.685 96.46C109.765 96.7 109.82 96.955 109.85 97.225C109.88 97.495 109.89 97.765 109.88 98.035C109.87 98.295 109.84 98.525 109.79 98.725L109.73 98.965C109.76 98.985 109.79 98.995 109.82 98.995C109.85 98.995 109.88 99 109.91 99.01C109.97 98.71 110.02 98.41 110.06 98.11C110.11 97.81 110.13 97.495 110.12 97.165C110.12 97.095 110.125 97.06 110.135 97.06C110.155 97.06 110.17 97.075 110.18 97.105C110.19 97.135 110.2 97.16 110.21 97.18C110.33 97.4 110.385 97.675 110.375 98.005C110.375 98.335 110.35 98.685 110.3 99.055C110.52 99.055 110.73 98.995 110.93 98.875C110.98 98.845 111.005 98.845 111.005 98.875ZM107.9 99.895C107.9 99.945 107.87 99.995 107.81 100.045C107.76 100.095 107.72 100.13 107.69 100.15C107.64 100.19 107.58 100.24 107.51 100.3C107.45 100.35 107.395 100.405 107.345 100.465C107.295 100.545 107.245 100.615 107.195 100.675C107.155 100.735 107.12 100.82 107.09 100.93C107.08 100.95 107.065 100.97 107.045 100.99C107.035 101 107.025 101 107.015 100.99C106.985 100.96 106.985 100.895 107.015 100.795C107.055 100.645 107.095 100.525 107.135 100.435C107.175 100.335 107.25 100.23 107.36 100.12C107.4 100.08 107.45 100.04 107.51 100C107.57 99.96 107.63 99.925 107.69 99.895C107.75 99.865 107.8 99.85 107.84 99.85C107.88 99.85 107.9 99.865 107.9 99.895ZM109.07 105.925C109.12 105.905 109.14 105.91 109.13 105.94C109.12 105.97 109.105 105.99 109.085 106C108.905 106.06 108.715 106.05 108.515 105.97C108.315 105.89 108.13 105.765 107.96 105.595C107.79 105.425 107.645 105.23 107.525 105.01C107.405 104.78 107.33 104.555 107.3 104.335C107.25 103.865 107.245 103.41 107.285 102.97C107.325 102.53 107.4 102.095 107.51 101.665L107.765 100.72C107.705 100.72 107.645 100.705 107.585 100.675C107.515 100.655 107.48 100.63 107.48 100.6C107.48 100.58 107.515 100.55 107.585 100.51C107.865 100.37 108.145 100.31 108.425 100.33C108.715 100.35 109.005 100.385 109.295 100.435C109.475 100.465 109.655 100.49 109.835 100.51C110.025 100.52 110.23 100.48 110.45 100.39C110.47 100.37 110.49 100.365 110.51 100.375C110.53 100.395 110.525 100.43 110.495 100.48C110.435 100.61 110.35 100.705 110.24 100.765C110.13 100.825 110.015 100.87 109.895 100.9C109.815 101.16 109.745 101.395 109.685 101.605C109.625 101.805 109.575 101.975 109.535 102.115C109.425 102.595 109.295 103.085 109.145 103.585C109.005 104.075 108.91 104.49 108.86 104.83C108.84 104.94 108.82 105 108.8 105.01C108.78 105.02 108.76 105 108.74 104.95C108.72 104.9 108.705 104.86 108.695 104.83C108.655 104.54 108.645 104.24 108.665 103.93C108.695 103.61 108.745 103.285 108.815 102.955C108.885 102.625 108.965 102.295 109.055 101.965C109.145 101.625 109.24 101.285 109.34 100.945C109.29 100.945 109.24 100.945 109.19 100.945C109.14 100.945 109.09 100.94 109.04 100.93C108.96 101.14 108.875 101.35 108.785 101.56C108.705 101.76 108.625 101.95 108.545 102.13C108.535 102.15 108.51 102.2 108.47 102.28C108.44 102.35 108.415 102.385 108.395 102.385C108.355 102.375 108.34 102.33 108.35 102.25C108.36 102.16 108.365 102.1 108.365 102.07C108.385 101.92 108.415 101.745 108.455 101.545C108.505 101.345 108.55 101.13 108.59 100.9C108.54 100.89 108.485 100.885 108.425 100.885C108.365 100.875 108.305 100.86 108.245 100.84C108.185 101.04 108.125 101.235 108.065 101.425C108.015 101.615 107.965 101.805 107.915 101.995C107.835 102.345 107.775 102.72 107.735 103.12C107.695 103.51 107.695 103.915 107.735 104.335C107.755 104.525 107.805 104.72 107.885 104.92C107.975 105.12 108.08 105.3 108.2 105.46C108.32 105.62 108.455 105.745 108.605 105.835C108.765 105.925 108.92 105.955 109.07 105.925ZM109.205 105.595C109.255 105.555 109.285 105.555 109.295 105.595C109.305 105.625 109.285 105.655 109.235 105.685C109.195 105.715 109.14 105.74 109.07 105.76C109.01 105.77 108.94 105.77 108.86 105.76C108.78 105.75 108.695 105.72 108.605 105.67C108.515 105.62 108.43 105.54 108.35 105.43C108.28 105.34 108.22 105.21 108.17 105.04C108.13 104.87 108.1 104.705 108.08 104.545C108.06 104.375 108.055 104.23 108.065 104.11C108.075 103.99 108.1 103.93 108.14 103.93C108.19 103.93 108.225 104 108.245 104.14C108.275 104.28 108.3 104.395 108.32 104.485C108.36 104.645 108.415 104.81 108.485 104.98C108.555 105.15 108.63 105.285 108.71 105.385C108.81 105.515 108.9 105.595 108.98 105.625C109.06 105.645 109.135 105.635 109.205 105.595ZM112.505 101.005C112.425 101.345 112.31 101.705 112.16 102.085C112.02 102.455 111.86 102.8 111.68 103.12C111.68 103.14 111.665 103.175 111.635 103.225C111.615 103.265 111.585 103.285 111.545 103.285C111.525 103.285 111.51 103.255 111.5 103.195C111.5 103.135 111.505 103.095 111.515 103.075C111.515 102.915 111.535 102.705 111.575 102.445C111.615 102.175 111.665 101.955 111.725 101.785C111.745 101.725 111.775 101.58 111.815 101.35C111.865 101.12 111.905 100.865 111.935 100.585C111.975 100.295 111.995 100.02 111.995 99.76C112.005 99.49 111.975 99.29 111.905 99.16V99.1C111.945 99.07 111.99 99.08 112.04 99.13C112.17 99.24 112.27 99.375 112.34 99.535C112.42 99.695 112.475 99.865 112.505 100.045C112.545 100.215 112.56 100.385 112.55 100.555C112.55 100.725 112.535 100.875 112.505 101.005ZM113.09 100.945C113.2 100.805 113.305 100.705 113.405 100.645C113.505 100.585 113.605 100.535 113.705 100.495C113.715 100.495 113.74 100.49 113.78 100.48C113.82 100.47 113.85 100.48 113.87 100.51C113.89 100.54 113.885 100.575 113.855 100.615C113.825 100.655 113.8 100.685 113.78 100.705C113.71 100.775 113.63 100.855 113.54 100.945C113.46 101.025 113.385 101.105 113.315 101.185C113.215 101.295 113.135 101.425 113.075 101.575C113.015 101.715 112.97 101.86 112.94 102.01C113.11 101.83 113.27 101.66 113.42 101.5C113.58 101.34 113.75 101.19 113.93 101.05C114.16 100.88 114.36 100.66 114.53 100.39C114.7 100.12 114.82 99.725 114.89 99.205C114.91 99.155 114.935 99.125 114.965 99.115C114.995 99.105 115.01 99.14 115.01 99.22C115.04 99.8 114.98 100.26 114.83 100.6C114.68 100.94 114.455 101.225 114.155 101.455C113.995 101.575 113.835 101.705 113.675 101.845C113.515 101.985 113.36 102.14 113.21 102.31C113.07 102.48 112.94 102.68 112.82 102.91C112.7 103.14 112.595 103.405 112.505 103.705C112.435 103.935 112.365 104.155 112.295 104.365C112.225 104.565 112.15 104.76 112.07 104.95C112.05 105.02 112.02 105.055 111.98 105.055C111.95 105.045 111.935 104.995 111.935 104.905C111.885 104.425 111.915 103.95 112.025 103.48C112.145 103 112.285 102.505 112.445 101.995C112.515 101.745 112.595 101.495 112.685 101.245C112.785 100.995 112.83 100.71 112.82 100.39C112.82 100.28 112.865 100.165 112.955 100.045C113.045 99.925 113.155 99.815 113.285 99.715C113.415 99.605 113.55 99.515 113.69 99.445C113.83 99.365 113.95 99.31 114.05 99.28C114.14 99.25 114.185 99.255 114.185 99.295C114.185 99.335 114.155 99.385 114.095 99.445C113.885 99.635 113.67 99.86 113.45 100.12C113.24 100.38 113.12 100.655 113.09 100.945ZM111.785 105.985C111.775 105.995 111.765 106 111.755 106C111.755 105.99 111.73 105.97 111.68 105.94C111.38 105.72 111.145 105.48 110.975 105.22C110.805 104.96 110.68 104.695 110.6 104.425C110.53 104.145 110.5 103.87 110.51 103.6C110.52 103.32 110.555 103.05 110.615 102.79C110.695 102.44 110.79 102.095 110.9 101.755C111.02 101.405 111.13 101.07 111.23 100.75C111.33 100.42 111.405 100.1 111.455 99.79C111.505 99.47 111.505 99.165 111.455 98.875C111.455 98.855 111.47 98.84 111.5 98.83C111.51 98.83 111.52 98.84 111.53 98.86C111.54 98.87 111.55 98.88 111.56 98.89C111.75 99.21 111.845 99.54 111.845 99.88C111.845 100.21 111.8 100.55 111.71 100.9C111.62 101.24 111.505 101.59 111.365 101.95C111.235 102.3 111.13 102.655 111.05 103.015C110.95 103.475 110.94 103.965 111.02 104.485C111.11 105.005 111.345 105.47 111.725 105.88C111.745 105.91 111.765 105.93 111.785 105.94C111.805 105.95 111.805 105.965 111.785 105.985ZM112.235 106C112.215 106 112.195 105.995 112.175 105.985L112.115 105.955C111.975 105.865 111.85 105.77 111.74 105.67C111.63 105.56 111.535 105.405 111.455 105.205C111.425 105.135 111.4 105.045 111.38 104.935C111.36 104.815 111.345 104.705 111.335 104.605C111.335 104.505 111.34 104.42 111.35 104.35C111.37 104.28 111.4 104.25 111.44 104.26C111.47 104.26 111.5 104.3 111.53 104.38C111.57 104.46 111.6 104.54 111.62 104.62C111.64 104.73 111.66 104.835 111.68 104.935C111.71 105.035 111.745 105.125 111.785 105.205C111.895 105.455 112.04 105.695 112.22 105.925C112.24 105.975 112.245 106 112.235 106ZM114.68 99.265C114.68 99.475 114.62 99.66 114.5 99.82C114.38 99.98 114.235 100.115 114.065 100.225C114.035 100.245 114.015 100.245 114.005 100.225C113.995 100.195 113.99 100.175 113.99 100.165C113.99 100.105 114.015 100.035 114.065 99.955C114.115 99.865 114.17 99.775 114.23 99.685C114.3 99.585 114.365 99.485 114.425 99.385C114.485 99.285 114.525 99.195 114.545 99.115C114.575 99.065 114.605 99.065 114.635 99.115C114.665 99.165 114.68 99.215 114.68 99.265ZM120.096 101.26C119.976 101.63 119.831 101.985 119.661 102.325C119.501 102.665 119.331 103.005 119.151 103.345C119.131 103.365 119.101 103.415 119.061 103.495C119.021 103.565 118.986 103.59 118.956 103.57C118.936 103.57 118.926 103.54 118.926 103.48C118.936 103.42 118.941 103.375 118.941 103.345C118.951 103.265 118.971 103.15 119.001 103C119.041 102.85 119.081 102.695 119.121 102.535C119.171 102.365 119.216 102.205 119.256 102.055C119.306 101.895 119.346 101.77 119.376 101.68C119.546 101.14 119.656 100.66 119.706 100.24C119.756 99.82 119.726 99.465 119.616 99.175C119.596 99.125 119.596 99.1 119.616 99.1C119.636 99.1 119.656 99.11 119.676 99.13C119.696 99.15 119.711 99.165 119.721 99.175C119.831 99.295 119.921 99.45 119.991 99.64C120.061 99.82 120.111 100.01 120.141 100.21C120.171 100.4 120.181 100.59 120.171 100.78C120.161 100.97 120.136 101.13 120.096 101.26ZM120.501 100.18C120.631 100.38 120.691 100.63 120.681 100.93C120.671 101.23 120.631 101.54 120.561 101.86C120.501 102.18 120.421 102.485 120.321 102.775C120.231 103.065 120.161 103.295 120.111 103.465C120.011 103.795 119.891 104.135 119.751 104.485C119.611 104.825 119.486 105.12 119.376 105.37C119.336 105.46 119.306 105.5 119.286 105.49C119.256 105.48 119.236 105.46 119.226 105.43C119.226 105.39 119.226 105.36 119.226 105.34C119.226 104.8 119.301 104.28 119.451 103.78C119.611 103.28 119.781 102.775 119.961 102.265C120.071 101.935 120.171 101.61 120.261 101.29C120.351 100.96 120.396 100.6 120.396 100.21C120.396 100.14 120.406 100.105 120.426 100.105C120.436 100.105 120.446 100.115 120.456 100.135C120.466 100.145 120.481 100.16 120.501 100.18ZM117.501 104.89C117.521 104.92 117.486 104.965 117.396 105.025C117.306 105.085 117.246 105.12 117.216 105.13C116.776 105.29 116.431 105.295 116.181 105.145C115.941 104.995 115.766 104.77 115.656 104.47C115.556 104.17 115.506 103.84 115.506 103.48C115.506 103.11 115.526 102.78 115.566 102.49C115.596 102.24 115.651 101.965 115.731 101.665C115.821 101.355 115.926 101.055 116.046 100.765C116.166 100.465 116.301 100.19 116.451 99.94C116.611 99.68 116.781 99.48 116.961 99.34C116.981 99.33 117.001 99.315 117.021 99.295C117.051 99.275 117.076 99.265 117.096 99.265C117.126 99.275 117.111 99.33 117.051 99.43C116.991 99.53 116.916 99.67 116.826 99.85C116.746 100.03 116.661 100.24 116.571 100.48C116.481 100.71 116.391 100.955 116.301 101.215C116.221 101.475 116.156 101.735 116.106 101.995C116.056 102.255 116.021 102.505 116.001 102.745C115.981 102.985 115.971 103.2 115.971 103.39C115.971 103.58 115.976 103.74 115.986 103.87C115.996 104 116.006 104.085 116.016 104.125C116.086 104.435 116.216 104.665 116.406 104.815C116.606 104.955 116.871 104.995 117.201 104.935C117.211 104.935 117.261 104.925 117.351 104.905C117.441 104.885 117.491 104.88 117.501 104.89ZM119.436 106.045C119.476 106.085 119.496 106.115 119.496 106.135C119.496 106.155 119.471 106.16 119.421 106.15C119.381 106.14 119.351 106.13 119.331 106.12C119.251 106.08 119.151 106.025 119.031 105.955C118.911 105.875 118.821 105.74 118.761 105.55C118.731 105.47 118.711 105.375 118.701 105.265C118.691 105.145 118.686 105.035 118.686 104.935C118.686 104.835 118.696 104.755 118.716 104.695C118.736 104.625 118.761 104.595 118.791 104.605C118.811 104.615 118.831 104.66 118.851 104.74C118.881 104.82 118.906 104.905 118.926 104.995C118.946 105.105 118.971 105.21 119.001 105.31C119.031 105.4 119.066 105.495 119.106 105.595C119.156 105.705 119.206 105.795 119.256 105.865C119.306 105.925 119.366 105.985 119.436 106.045ZM118.056 105.22C117.946 105.39 117.776 105.565 117.546 105.745C117.326 105.915 117.026 106 116.646 106C116.346 106 116.086 105.92 115.866 105.76C115.656 105.6 115.481 105.4 115.341 105.16C115.211 104.92 115.116 104.66 115.056 104.38C115.006 104.09 114.981 103.815 114.981 103.555C114.991 103.235 115.016 102.915 115.056 102.595C115.106 102.275 115.166 101.975 115.236 101.695C115.316 101.415 115.401 101.165 115.491 100.945C115.591 100.725 115.691 100.545 115.791 100.405C115.811 100.395 115.831 100.375 115.851 100.345C115.881 100.305 115.906 100.295 115.926 100.315C115.936 100.325 115.931 100.35 115.911 100.39C115.901 100.42 115.891 100.445 115.881 100.465C115.791 100.765 115.701 101.085 115.611 101.425C115.531 101.755 115.466 102.09 115.416 102.43C115.366 102.77 115.341 103.105 115.341 103.435C115.341 103.765 115.371 104.07 115.431 104.35C115.471 104.54 115.541 104.715 115.641 104.875C115.751 105.035 115.866 105.17 115.986 105.28C116.116 105.39 116.251 105.47 116.391 105.52C116.541 105.57 116.686 105.585 116.826 105.565C117.116 105.525 117.336 105.445 117.486 105.325C117.636 105.195 117.741 105.045 117.801 104.875C117.871 104.695 117.911 104.505 117.921 104.305C117.941 104.095 117.966 103.885 117.996 103.675C117.946 103.815 117.846 103.955 117.696 104.095C117.556 104.225 117.401 104.33 117.231 104.41C117.071 104.48 116.911 104.51 116.751 104.5C116.601 104.49 116.486 104.4 116.406 104.23C116.306 104.01 116.251 103.77 116.241 103.51C116.231 103.25 116.236 102.965 116.256 102.655C116.276 102.345 116.321 102.025 116.391 101.695C116.461 101.365 116.556 101.05 116.676 100.75C116.796 100.44 116.936 100.15 117.096 99.88C117.266 99.61 117.456 99.37 117.666 99.16L117.726 99.1C117.756 99.07 117.786 99.055 117.816 99.055C117.816 99.055 117.796 99.105 117.756 99.205C117.466 99.745 117.221 100.305 117.021 100.885C116.821 101.455 116.701 102.035 116.661 102.625C116.611 103.275 116.641 103.7 116.751 103.9C116.871 104.1 117.016 104.16 117.186 104.08C117.356 103.99 117.536 103.805 117.726 103.525C117.926 103.235 118.086 102.925 118.206 102.595C118.316 102.295 118.431 101.985 118.551 101.665C118.681 101.345 118.796 101.025 118.896 100.705C119.006 100.375 119.086 100.055 119.136 99.745C119.196 99.435 119.211 99.145 119.181 98.875C119.181 98.825 119.191 98.8 119.211 98.8C119.221 98.8 119.226 98.805 119.226 98.815C119.226 98.835 119.231 98.845 119.241 98.845C119.251 98.855 119.256 98.865 119.256 98.875C119.416 99.215 119.486 99.56 119.466 99.91C119.456 100.26 119.396 100.615 119.286 100.975C119.186 101.335 119.061 101.705 118.911 102.085C118.771 102.455 118.651 102.83 118.551 103.21C118.491 103.45 118.446 103.705 118.416 103.975C118.386 104.235 118.381 104.495 118.401 104.755C118.421 105.015 118.476 105.265 118.566 105.505C118.656 105.735 118.786 105.93 118.956 106.09C118.976 106.11 118.986 106.125 118.986 106.135C118.986 106.155 118.971 106.16 118.941 106.15C118.921 106.15 118.901 106.145 118.881 106.135C118.691 106.065 118.526 105.95 118.386 105.79C118.246 105.63 118.136 105.44 118.056 105.22ZM123.221 102.85C123.141 103.28 123.091 103.645 123.071 103.945C123.061 104.235 123.111 104.46 123.221 104.62C123.341 104.78 123.536 104.87 123.806 104.89C124.076 104.91 124.456 104.86 124.946 104.74C125.016 104.72 125.056 104.715 125.066 104.725C125.086 104.735 125.081 104.75 125.051 104.77C125.031 104.79 125.001 104.81 124.961 104.83C124.801 104.93 124.626 105.01 124.436 105.07C124.256 105.13 124.076 105.165 123.896 105.175C123.716 105.175 123.546 105.155 123.386 105.115C123.226 105.075 123.096 105.005 122.996 104.905C122.796 104.705 122.681 104.43 122.651 104.08C122.621 103.72 122.646 103.355 122.726 102.985C122.786 102.685 122.861 102.39 122.951 102.1C123.041 101.8 123.156 101.525 123.296 101.275C123.446 101.015 123.616 100.79 123.806 100.6C124.006 100.4 124.236 100.25 124.496 100.15C124.626 100.1 124.766 100.075 124.916 100.075C125.066 100.075 125.201 100.095 125.321 100.135C125.441 100.175 125.541 100.235 125.621 100.315C125.711 100.395 125.766 100.49 125.786 100.6C125.796 100.71 125.781 100.82 125.741 100.93C125.701 101.03 125.641 101.125 125.561 101.215C125.491 101.305 125.411 101.38 125.321 101.44C125.231 101.5 125.141 101.535 125.051 101.545C124.971 101.565 124.921 101.56 124.901 101.53C124.891 101.5 124.911 101.475 124.961 101.455C125.001 101.445 125.051 101.415 125.111 101.365C125.181 101.305 125.241 101.24 125.291 101.17C125.351 101.1 125.396 101.02 125.426 100.93C125.456 100.84 125.456 100.75 125.426 100.66C125.406 100.6 125.336 100.555 125.216 100.525C125.106 100.495 124.936 100.505 124.706 100.555C124.526 100.605 124.356 100.705 124.196 100.855C124.036 100.995 123.891 101.175 123.761 101.395C123.631 101.605 123.516 101.84 123.416 102.1C123.326 102.35 123.261 102.6 123.221 102.85ZM123.401 105.94C123.501 105.94 123.551 105.95 123.551 105.97C123.551 105.98 123.541 105.99 123.521 106C123.511 106.01 123.476 106.015 123.416 106.015C123.196 106.025 122.976 106.015 122.756 105.985C122.536 105.955 122.331 105.89 122.141 105.79C121.951 105.68 121.781 105.535 121.631 105.355C121.491 105.165 121.391 104.92 121.331 104.62C121.231 104.16 121.196 103.69 121.226 103.21C121.256 102.73 121.346 102.265 121.496 101.815C121.646 101.365 121.851 100.94 122.111 100.54C122.381 100.13 122.711 99.77 123.101 99.46C123.391 99.22 123.726 99.06 124.106 98.98C124.486 98.89 124.851 98.87 125.201 98.92C125.561 98.97 125.871 99.09 126.131 99.28C126.401 99.47 126.566 99.725 126.626 100.045C126.656 100.125 126.656 100.18 126.626 100.21C126.596 100.21 126.566 100.16 126.536 100.06C126.396 99.84 126.236 99.665 126.056 99.535C125.876 99.405 125.681 99.315 125.471 99.265C125.271 99.205 125.066 99.18 124.856 99.19C124.646 99.2 124.451 99.23 124.271 99.28C123.911 99.38 123.621 99.52 123.401 99.7C123.181 99.87 122.961 100.085 122.741 100.345C122.391 100.765 122.131 101.24 121.961 101.77C121.801 102.29 121.701 102.81 121.661 103.33C121.641 103.58 121.646 103.84 121.676 104.11C121.706 104.37 121.776 104.645 121.886 104.935C121.996 105.215 122.196 105.45 122.486 105.64C122.776 105.82 123.081 105.92 123.401 105.94ZM122.231 102.325C122.291 101.995 122.366 101.68 122.456 101.38C122.546 101.07 122.671 100.79 122.831 100.54C123.001 100.28 123.216 100.055 123.476 99.865C123.736 99.675 124.056 99.53 124.436 99.43C124.566 99.4 124.721 99.385 124.901 99.385C125.091 99.385 125.276 99.415 125.456 99.475C125.636 99.525 125.801 99.615 125.951 99.745C126.101 99.865 126.216 100.03 126.296 100.24C126.366 100.44 126.381 100.625 126.341 100.795C126.301 100.965 126.231 101.12 126.131 101.26C126.031 101.39 125.911 101.5 125.771 101.59C125.641 101.67 125.516 101.715 125.396 101.725C125.376 101.725 125.346 101.72 125.306 101.71C125.276 101.7 125.301 101.68 125.381 101.65C125.491 101.6 125.601 101.5 125.711 101.35C125.831 101.2 125.911 101.015 125.951 100.795C126.001 100.565 125.941 100.365 125.771 100.195C125.601 100.025 125.381 99.925 125.111 99.895C124.851 99.865 124.616 99.89 124.406 99.97C124.196 100.05 124.016 100.145 123.866 100.255C123.716 100.365 123.596 100.475 123.506 100.585C123.416 100.685 123.356 100.75 123.326 100.78C122.966 101.24 122.656 101.77 122.396 102.37C122.396 102.38 122.371 102.435 122.321 102.535C122.281 102.635 122.251 102.685 122.231 102.685C122.211 102.685 122.201 102.67 122.201 102.64C122.201 102.6 122.201 102.56 122.201 102.52C122.211 102.48 122.216 102.44 122.216 102.4C122.226 102.36 122.231 102.335 122.231 102.325ZM125.261 105.04C125.191 105.14 125.096 105.235 124.976 105.325C124.866 105.415 124.736 105.495 124.586 105.565C124.446 105.625 124.296 105.675 124.136 105.715C123.986 105.755 123.836 105.775 123.686 105.775C123.426 105.775 123.181 105.725 122.951 105.625C122.721 105.525 122.531 105.3 122.381 104.95C122.341 104.88 122.341 104.825 122.381 104.785C122.411 104.775 122.446 104.795 122.486 104.845C122.536 104.885 122.581 104.93 122.621 104.98C122.731 105.09 122.886 105.2 123.086 105.31C123.296 105.41 123.476 105.46 123.626 105.46C123.926 105.46 124.196 105.42 124.436 105.34C124.686 105.25 124.911 105.135 125.111 104.995C125.131 104.985 125.156 104.97 125.186 104.95C125.226 104.92 125.256 104.905 125.276 104.905C125.296 104.895 125.306 104.9 125.306 104.92C125.316 104.94 125.301 104.98 125.261 105.04ZM130.69 99.34C130.7 99.35 130.705 99.375 130.705 99.415C130.705 99.445 130.7 99.47 130.69 99.49C130.6 99.78 130.445 99.985 130.225 100.105C130.005 100.225 129.81 100.285 129.64 100.285C129.43 100.285 129.215 100.27 128.995 100.24C128.775 100.2 128.565 100.105 128.365 99.955C128.345 99.935 128.32 99.915 128.29 99.895C128.26 99.875 128.245 99.855 128.245 99.835C128.245 99.805 128.26 99.785 128.29 99.775C128.32 99.755 128.345 99.74 128.365 99.73C128.455 99.71 128.57 99.695 128.71 99.685C128.86 99.665 129.005 99.665 129.145 99.685C129.245 99.705 129.365 99.715 129.505 99.715C129.645 99.715 129.785 99.705 129.925 99.685C130.075 99.665 130.21 99.635 130.33 99.595C130.45 99.545 130.54 99.475 130.6 99.385C130.63 99.345 130.66 99.33 130.69 99.34ZM130.795 98.875L130.75 98.95C130.58 99.17 130.4 99.315 130.21 99.385C130.02 99.445 129.82 99.47 129.61 99.46C129.4 99.45 129.185 99.425 128.965 99.385C128.755 99.335 128.545 99.305 128.335 99.295C128.055 99.285 127.775 99.37 127.495 99.55C127.215 99.73 126.975 100.045 126.775 100.495C126.745 100.555 126.725 100.57 126.715 100.54C126.705 100.5 126.705 100.465 126.715 100.435C126.795 100.135 126.89 99.885 127 99.685C127.11 99.485 127.225 99.325 127.345 99.205C127.475 99.075 127.61 98.98 127.75 98.92C127.89 98.86 128.035 98.82 128.185 98.8C128.355 98.23 128.485 97.675 128.575 97.135C128.675 96.585 128.685 96.065 128.605 95.575C128.605 95.535 128.605 95.515 128.605 95.515C128.625 95.505 128.645 95.51 128.665 95.53C128.685 95.55 128.695 95.565 128.695 95.575C128.915 96.055 129.005 96.57 128.965 97.12C128.925 97.66 128.825 98.23 128.665 98.83C128.715 98.84 128.755 98.845 128.785 98.845C128.815 98.845 128.85 98.845 128.89 98.845C128.94 98.585 128.985 98.31 129.025 98.02C129.075 97.72 129.11 97.435 129.13 97.165C129.16 96.895 129.17 96.65 129.16 96.43C129.15 96.21 129.115 96.045 129.055 95.935C129.025 95.845 129.025 95.8 129.055 95.8C129.075 95.8 129.09 95.81 129.1 95.83C129.11 95.85 129.125 95.87 129.145 95.89C129.285 96.03 129.395 96.22 129.475 96.46C129.555 96.7 129.61 96.955 129.64 97.225C129.67 97.495 129.68 97.765 129.67 98.035C129.66 98.295 129.63 98.525 129.58 98.725L129.52 98.965C129.55 98.985 129.58 98.995 129.61 98.995C129.64 98.995 129.67 99 129.7 99.01C129.76 98.71 129.81 98.41 129.85 98.11C129.9 97.81 129.92 97.495 129.91 97.165C129.91 97.095 129.915 97.06 129.925 97.06C129.945 97.06 129.96 97.075 129.97 97.105C129.98 97.135 129.99 97.16 130 97.18C130.12 97.4 130.175 97.675 130.165 98.005C130.165 98.335 130.14 98.685 130.09 99.055C130.31 99.055 130.52 98.995 130.72 98.875C130.77 98.845 130.795 98.845 130.795 98.875ZM127.69 99.895C127.69 99.945 127.66 99.995 127.6 100.045C127.55 100.095 127.51 100.13 127.48 100.15C127.43 100.19 127.37 100.24 127.3 100.3C127.24 100.35 127.185 100.405 127.135 100.465C127.085 100.545 127.035 100.615 126.985 100.675C126.945 100.735 126.91 100.82 126.88 100.93C126.87 100.95 126.855 100.97 126.835 100.99C126.825 101 126.815 101 126.805 100.99C126.775 100.96 126.775 100.895 126.805 100.795C126.845 100.645 126.885 100.525 126.925 100.435C126.965 100.335 127.04 100.23 127.15 100.12C127.19 100.08 127.24 100.04 127.3 100C127.36 99.96 127.42 99.925 127.48 99.895C127.54 99.865 127.59 99.85 127.63 99.85C127.67 99.85 127.69 99.865 127.69 99.895ZM128.86 105.925C128.91 105.905 128.93 105.91 128.92 105.94C128.91 105.97 128.895 105.99 128.875 106C128.695 106.06 128.505 106.05 128.305 105.97C128.105 105.89 127.92 105.765 127.75 105.595C127.58 105.425 127.435 105.23 127.315 105.01C127.195 104.78 127.12 104.555 127.09 104.335C127.04 103.865 127.035 103.41 127.075 102.97C127.115 102.53 127.19 102.095 127.3 101.665L127.555 100.72C127.495 100.72 127.435 100.705 127.375 100.675C127.305 100.655 127.27 100.63 127.27 100.6C127.27 100.58 127.305 100.55 127.375 100.51C127.655 100.37 127.935 100.31 128.215 100.33C128.505 100.35 128.795 100.385 129.085 100.435C129.265 100.465 129.445 100.49 129.625 100.51C129.815 100.52 130.02 100.48 130.24 100.39C130.26 100.37 130.28 100.365 130.3 100.375C130.32 100.395 130.315 100.43 130.285 100.48C130.225 100.61 130.14 100.705 130.03 100.765C129.92 100.825 129.805 100.87 129.685 100.9C129.605 101.16 129.535 101.395 129.475 101.605C129.415 101.805 129.365 101.975 129.325 102.115C129.215 102.595 129.085 103.085 128.935 103.585C128.795 104.075 128.7 104.49 128.65 104.83C128.63 104.94 128.61 105 128.59 105.01C128.57 105.02 128.55 105 128.53 104.95C128.51 104.9 128.495 104.86 128.485 104.83C128.445 104.54 128.435 104.24 128.455 103.93C128.485 103.61 128.535 103.285 128.605 102.955C128.675 102.625 128.755 102.295 128.845 101.965C128.935 101.625 129.03 101.285 129.13 100.945C129.08 100.945 129.03 100.945 128.98 100.945C128.93 100.945 128.88 100.94 128.83 100.93C128.75 101.14 128.665 101.35 128.575 101.56C128.495 101.76 128.415 101.95 128.335 102.13C128.325 102.15 128.3 102.2 128.26 102.28C128.23 102.35 128.205 102.385 128.185 102.385C128.145 102.375 128.13 102.33 128.14 102.25C128.15 102.16 128.155 102.1 128.155 102.07C128.175 101.92 128.205 101.745 128.245 101.545C128.295 101.345 128.34 101.13 128.38 100.9C128.33 100.89 128.275 100.885 128.215 100.885C128.155 100.875 128.095 100.86 128.035 100.84C127.975 101.04 127.915 101.235 127.855 101.425C127.805 101.615 127.755 101.805 127.705 101.995C127.625 102.345 127.565 102.72 127.525 103.12C127.485 103.51 127.485 103.915 127.525 104.335C127.545 104.525 127.595 104.72 127.675 104.92C127.765 105.12 127.87 105.3 127.99 105.46C128.11 105.62 128.245 105.745 128.395 105.835C128.555 105.925 128.71 105.955 128.86 105.925ZM128.995 105.595C129.045 105.555 129.075 105.555 129.085 105.595C129.095 105.625 129.075 105.655 129.025 105.685C128.985 105.715 128.93 105.74 128.86 105.76C128.8 105.77 128.73 105.77 128.65 105.76C128.57 105.75 128.485 105.72 128.395 105.67C128.305 105.62 128.22 105.54 128.14 105.43C128.07 105.34 128.01 105.21 127.96 105.04C127.92 104.87 127.89 104.705 127.87 104.545C127.85 104.375 127.845 104.23 127.855 104.11C127.865 103.99 127.89 103.93 127.93 103.93C127.98 103.93 128.015 104 128.035 104.14C128.065 104.28 128.09 104.395 128.11 104.485C128.15 104.645 128.205 104.81 128.275 104.98C128.345 105.15 128.42 105.285 128.5 105.385C128.6 105.515 128.69 105.595 128.77 105.625C128.85 105.645 128.925 105.635 128.995 105.595ZM132.595 101.05C132.485 101.42 132.345 101.795 132.175 102.175C132.015 102.555 131.845 102.905 131.665 103.225C131.645 103.245 131.62 103.28 131.59 103.33C131.56 103.38 131.54 103.405 131.53 103.405C131.5 103.395 131.485 103.36 131.485 103.3C131.485 103.24 131.49 103.2 131.5 103.18C131.5 103.01 131.525 102.79 131.575 102.52C131.635 102.25 131.7 102.025 131.77 101.845C131.78 101.795 131.81 101.655 131.86 101.425C131.92 101.185 131.975 100.92 132.025 100.63C132.075 100.33 132.105 100.045 132.115 99.775C132.135 99.495 132.115 99.29 132.055 99.16C132.015 99.1 132.015 99.07 132.055 99.07C132.065 99.07 132.1 99.09 132.16 99.13C132.28 99.25 132.375 99.395 132.445 99.565C132.525 99.725 132.58 99.895 132.61 100.075C132.64 100.255 132.65 100.43 132.64 100.6C132.64 100.77 132.625 100.92 132.595 101.05ZM132.655 103.315C132.565 103.635 132.455 103.96 132.325 104.29C132.195 104.61 132.08 104.89 131.98 105.13C131.96 105.17 131.945 105.2 131.935 105.22C131.925 105.24 131.91 105.25 131.89 105.25C131.86 105.25 131.84 105.235 131.83 105.205C131.83 105.165 131.83 105.13 131.83 105.1C131.81 104.59 131.87 104.095 132.01 103.615C132.15 103.125 132.305 102.625 132.475 102.115C132.575 101.805 132.665 101.49 132.745 101.17C132.835 100.84 132.88 100.485 132.88 100.105C132.87 100.065 132.875 100.045 132.895 100.045C132.915 100.045 132.945 100.065 132.985 100.105C133.105 100.295 133.165 100.54 133.165 100.84C133.165 101.13 133.135 101.43 133.075 101.74C133.015 102.04 132.94 102.335 132.85 102.625C132.76 102.905 132.695 103.135 132.655 103.315ZM131.59 106C131.63 106.04 131.635 106.055 131.605 106.045C131.575 106.045 131.55 106.035 131.53 106.015C131.23 105.805 131 105.575 130.84 105.325C130.68 105.075 130.57 104.815 130.51 104.545C130.45 104.265 130.43 103.985 130.45 103.705C130.48 103.425 130.53 103.15 130.6 102.88C130.69 102.51 130.8 102.15 130.93 101.8C131.07 101.44 131.195 101.095 131.305 100.765C131.415 100.425 131.505 100.095 131.575 99.775C131.645 99.455 131.665 99.145 131.635 98.845C131.625 98.835 131.62 98.825 131.62 98.815C131.62 98.795 131.625 98.785 131.635 98.785C131.645 98.785 131.665 98.81 131.695 98.86C131.855 99.19 131.925 99.53 131.905 99.88C131.895 100.22 131.84 100.57 131.74 100.93C131.64 101.28 131.52 101.635 131.38 101.995C131.24 102.355 131.125 102.715 131.035 103.075C130.975 103.305 130.935 103.55 130.915 103.81C130.895 104.07 130.905 104.33 130.945 104.59C130.985 104.84 131.055 105.09 131.155 105.34C131.255 105.58 131.4 105.8 131.59 106ZM131.71 105.43C131.75 105.55 131.795 105.655 131.845 105.745C131.905 105.835 131.97 105.92 132.04 106C132.05 106 132.055 106.005 132.055 106.015C132.065 106.035 132.065 106.045 132.055 106.045C132.025 106.045 131.98 106.03 131.92 106C131.78 105.95 131.665 105.885 131.575 105.805C131.495 105.725 131.425 105.585 131.365 105.385C131.335 105.305 131.31 105.21 131.29 105.1C131.28 104.98 131.275 104.87 131.275 104.77C131.275 104.66 131.28 104.57 131.29 104.5C131.31 104.43 131.34 104.395 131.38 104.395C131.4 104.395 131.425 104.45 131.455 104.56C131.485 104.67 131.51 104.745 131.53 104.785C131.55 104.895 131.575 105.01 131.605 105.13C131.645 105.25 131.68 105.35 131.71 105.43ZM132.88 97.675C133.22 97.675 133.465 97.575 133.615 97.375C133.765 97.175 133.84 96.915 133.84 96.595C133.84 96.435 133.785 96.27 133.675 96.1C133.575 95.92 133.425 95.775 133.225 95.665C133.215 95.655 133.195 95.645 133.165 95.635C133.145 95.615 133.125 95.605 133.105 95.605C133.095 95.615 133.105 95.64 133.135 95.68C133.165 95.71 133.19 95.74 133.21 95.77C133.31 95.9 133.36 96.095 133.36 96.355C133.36 96.565 133.315 96.74 133.225 96.88C133.135 97.01 133.035 97.12 132.925 97.21C132.815 97.29 132.715 97.355 132.625 97.405C132.535 97.445 132.49 97.48 132.49 97.51C132.49 97.59 132.54 97.64 132.64 97.66C132.75 97.67 132.83 97.675 132.88 97.675ZM132.325 97.075C132.495 97.035 132.655 96.955 132.805 96.835C132.965 96.705 133.045 96.545 133.045 96.355C133.045 96.235 133 96.095 132.91 95.935C132.83 95.775 132.705 95.655 132.535 95.575C132.515 95.565 132.47 95.55 132.4 95.53C132.34 95.5 132.3 95.49 132.28 95.5C132.26 95.51 132.275 95.545 132.325 95.605C132.375 95.665 132.41 95.72 132.43 95.77C132.51 95.94 132.54 96.085 132.52 96.205C132.5 96.315 132.46 96.415 132.4 96.505C132.35 96.595 132.295 96.68 132.235 96.76C132.175 96.83 132.145 96.905 132.145 96.985C132.145 97.095 132.205 97.125 132.325 97.075ZM131.89 96.265C131.89 96.315 131.905 96.37 131.935 96.43C131.965 96.49 132.015 96.52 132.085 96.52C132.135 96.52 132.175 96.49 132.205 96.43C132.235 96.36 132.25 96.305 132.25 96.265C132.25 96.215 132.235 96.16 132.205 96.1C132.175 96.03 132.135 95.995 132.085 95.995C132.015 95.995 131.965 96.03 131.935 96.1C131.905 96.16 131.89 96.215 131.89 96.265ZM138.415 101.845C138.445 101.575 138.45 101.29 138.43 100.99C138.41 100.69 138.345 100.415 138.235 100.165C138.135 99.905 137.975 99.69 137.755 99.52C137.545 99.35 137.265 99.265 136.915 99.265C136.445 99.265 136.035 99.395 135.685 99.655C135.335 99.905 135.035 100.22 134.785 100.6C134.535 100.97 134.34 101.37 134.2 101.8C134.06 102.22 133.97 102.605 133.93 102.955C133.87 103.435 133.86 103.85 133.9 104.2C133.95 104.55 134.035 104.84 134.155 105.07C134.275 105.29 134.425 105.455 134.605 105.565C134.795 105.675 135 105.73 135.22 105.73C135.53 105.74 135.855 105.655 136.195 105.475C136.545 105.285 136.87 105.025 137.17 104.695C137.47 104.355 137.73 103.945 137.95 103.465C138.18 102.975 138.335 102.435 138.415 101.845ZM133.585 102.88C133.625 102.48 133.725 102.04 133.885 101.56C134.045 101.08 134.265 100.635 134.545 100.225C134.835 99.815 135.18 99.475 135.58 99.205C135.98 98.925 136.445 98.785 136.975 98.785C137.375 98.785 137.705 98.88 137.965 99.07C138.225 99.26 138.425 99.505 138.565 99.805C138.705 100.095 138.795 100.415 138.835 100.765C138.875 101.105 138.875 101.43 138.835 101.74C138.745 102.46 138.57 103.085 138.31 103.615C138.05 104.145 137.745 104.59 137.395 104.95C137.045 105.3 136.675 105.565 136.285 105.745C135.895 105.915 135.52 106 135.16 106C134.89 106 134.645 105.94 134.425 105.82C134.215 105.7 134.035 105.515 133.885 105.265C133.745 105.005 133.645 104.68 133.585 104.29C133.535 103.89 133.535 103.42 133.585 102.88ZM135.265 104.995C135.215 104.995 135.165 104.98 135.115 104.95C135.065 104.91 135.025 104.865 134.995 104.815C134.965 104.765 134.945 104.715 134.935 104.665C134.925 104.615 134.945 104.58 134.995 104.56C135.025 104.55 135.065 104.585 135.115 104.665C135.165 104.745 135.22 104.785 135.28 104.785C135.38 104.785 135.495 104.72 135.625 104.59C135.765 104.46 135.895 104.31 136.015 104.14C136.145 103.96 136.255 103.785 136.345 103.615C136.445 103.445 136.515 103.32 136.555 103.24C136.595 103.16 136.635 103.06 136.675 102.94C136.715 102.81 136.75 102.68 136.78 102.55C136.82 102.42 136.85 102.295 136.87 102.175C136.9 102.045 136.92 101.935 136.93 101.845C136.98 101.395 136.97 101.05 136.9 100.81C136.83 100.56 136.715 100.435 136.555 100.435C136.435 100.435 136.31 100.475 136.18 100.555C136.05 100.625 135.925 100.72 135.805 100.84C135.695 100.96 135.595 101.095 135.505 101.245C135.415 101.385 135.35 101.53 135.31 101.68C135.26 101.85 135.225 101.935 135.205 101.935C135.175 101.935 135.16 101.85 135.16 101.68C135.19 101.49 135.255 101.305 135.355 101.125C135.455 100.935 135.58 100.77 135.73 100.63C135.88 100.48 136.045 100.36 136.225 100.27C136.405 100.17 136.59 100.12 136.78 100.12C136.97 100.12 137.11 100.19 137.2 100.33C137.3 100.46 137.37 100.625 137.41 100.825C137.45 101.015 137.465 101.215 137.455 101.425C137.455 101.625 137.445 101.785 137.425 101.905C137.385 102.175 137.32 102.44 137.23 102.7C137.15 102.95 137.05 103.205 136.93 103.465C136.87 103.585 136.78 103.735 136.66 103.915C136.54 104.085 136.4 104.25 136.24 104.41C136.09 104.57 135.925 104.71 135.745 104.83C135.575 104.94 135.415 104.995 135.265 104.995ZM135.745 105.28C135.755 105.34 135.705 105.39 135.595 105.43C135.495 105.47 135.39 105.49 135.28 105.49C134.97 105.48 134.73 105.38 134.56 105.19C134.4 105 134.285 104.775 134.215 104.515C134.155 104.255 134.125 103.985 134.125 103.705C134.135 103.425 134.15 103.19 134.17 103C134.21 102.67 134.29 102.3 134.41 101.89C134.53 101.48 134.7 101.095 134.92 100.735C135.14 100.375 135.41 100.075 135.73 99.835C136.05 99.585 136.43 99.46 136.87 99.46C137.16 99.46 137.39 99.535 137.56 99.685C137.74 99.835 137.87 100.02 137.95 100.24C138.04 100.46 138.09 100.7 138.1 100.96C138.12 101.21 138.115 101.44 138.085 101.65C138.065 101.88 138.03 102.09 137.98 102.28C137.93 102.47 137.86 102.68 137.77 102.91C137.74 102.98 137.7 103.06 137.65 103.15C137.6 103.24 137.545 103.28 137.485 103.27C137.455 103.26 137.445 103.22 137.455 103.15C137.475 103.08 137.495 102.995 137.515 102.895C137.545 102.785 137.575 102.675 137.605 102.565C137.635 102.445 137.655 102.335 137.665 102.235C137.685 102.065 137.695 101.855 137.695 101.605C137.705 101.345 137.685 101.095 137.635 100.855C137.595 100.615 137.515 100.41 137.395 100.24C137.275 100.07 137.095 99.985 136.855 99.985C136.505 99.985 136.18 100.1 135.88 100.33C135.59 100.55 135.335 100.825 135.115 101.155C134.895 101.475 134.715 101.815 134.575 102.175C134.445 102.525 134.365 102.835 134.335 103.105C134.315 103.265 134.31 103.465 134.32 103.705C134.33 103.945 134.365 104.185 134.425 104.425C134.495 104.655 134.605 104.855 134.755 105.025C134.905 105.195 135.11 105.285 135.37 105.295C135.45 105.305 135.525 105.3 135.595 105.28C135.675 105.25 135.725 105.25 135.745 105.28ZM144.313 100.615C144.333 100.925 144.313 101.225 144.253 101.515C144.193 101.795 144.118 102.055 144.028 102.295C144.008 102.345 143.973 102.4 143.923 102.46C143.883 102.52 143.843 102.54 143.803 102.52C143.783 102.52 143.778 102.485 143.788 102.415C143.798 102.345 143.803 102.295 143.803 102.265C143.813 102.155 143.818 102.02 143.818 101.86C143.828 101.69 143.833 101.52 143.833 101.35C143.833 101.18 143.823 101.02 143.803 100.87C143.793 100.71 143.773 100.575 143.743 100.465C143.653 100.145 143.508 99.97 143.308 99.94C143.118 99.9 142.923 99.95 142.723 100.09C142.523 100.23 142.333 100.425 142.153 100.675C141.973 100.925 141.853 101.17 141.793 101.41C141.853 101.32 141.928 101.215 142.018 101.095C142.118 100.965 142.228 100.845 142.348 100.735C142.468 100.615 142.593 100.52 142.723 100.45C142.863 100.37 142.993 100.335 143.113 100.345C143.243 100.355 143.333 100.425 143.383 100.555C143.443 100.685 143.478 100.845 143.488 101.035C143.498 101.225 143.488 101.43 143.458 101.65C143.428 101.87 143.393 102.075 143.353 102.265C143.283 102.575 143.223 102.895 143.173 103.225C143.123 103.555 143.103 103.88 143.113 104.2C143.133 104.51 143.188 104.815 143.278 105.115C143.378 105.405 143.543 105.675 143.773 105.925C143.793 105.955 143.808 105.98 143.818 106C143.828 106.02 143.803 106.015 143.743 105.985C143.483 105.835 143.273 105.66 143.113 105.46C142.963 105.26 142.848 105.045 142.768 104.815C142.688 104.585 142.638 104.345 142.618 104.095C142.608 103.845 142.613 103.595 142.633 103.345C142.673 102.985 142.733 102.67 142.813 102.4C142.893 102.13 142.953 101.825 142.993 101.485C143.013 101.275 142.998 101.14 142.948 101.08C142.898 101.01 142.838 100.97 142.768 100.96C142.668 100.95 142.553 101.005 142.423 101.125C142.303 101.235 142.173 101.395 142.033 101.605C141.903 101.815 141.773 102.06 141.643 102.34C141.523 102.62 141.418 102.915 141.328 103.225C141.248 103.535 141.148 103.86 141.028 104.2C140.918 104.53 140.813 104.815 140.713 105.055C140.673 105.145 140.643 105.19 140.623 105.19C140.603 105.19 140.583 105.17 140.563 105.13C140.553 105.09 140.548 105.06 140.548 105.04C140.508 104.54 140.553 104.045 140.683 103.555C140.813 103.065 140.963 102.57 141.133 102.07C141.233 101.76 141.323 101.485 141.403 101.245C141.483 101.005 141.523 100.7 141.523 100.33C141.523 100.17 141.563 100.005 141.643 99.835C141.723 99.655 141.838 99.495 141.988 99.355C142.148 99.205 142.343 99.085 142.573 98.995C142.803 98.905 143.063 98.865 143.353 98.875C143.833 98.885 144.203 99 144.463 99.22C144.723 99.43 144.903 99.7 145.003 100.03C145.113 100.36 145.158 100.72 145.138 101.11C145.128 101.49 145.088 101.86 145.018 102.22C144.958 102.49 144.888 102.735 144.808 102.955C144.728 103.175 144.643 103.38 144.553 103.57C144.463 103.76 144.378 103.94 144.298 104.11C144.218 104.28 144.153 104.45 144.103 104.62C144.093 104.65 144.083 104.685 144.073 104.725C144.063 104.755 144.048 104.77 144.028 104.77C144.008 104.77 143.993 104.75 143.983 104.71C143.973 104.67 143.968 104.625 143.968 104.575C143.948 104.235 143.983 103.91 144.073 103.6C144.163 103.28 144.258 102.955 144.358 102.625C144.458 102.285 144.533 101.93 144.583 101.56C144.633 101.19 144.613 100.78 144.523 100.33C144.433 99.85 144.213 99.53 143.863 99.37C143.513 99.21 143.113 99.22 142.663 99.4C142.603 99.43 142.523 99.475 142.423 99.535C142.323 99.595 142.223 99.675 142.123 99.775C142.033 99.875 141.948 99.995 141.868 100.135C141.788 100.265 141.738 100.41 141.718 100.57C141.838 100.39 141.978 100.22 142.138 100.06C142.298 99.9 142.468 99.775 142.648 99.685C142.828 99.585 143.008 99.525 143.188 99.505C143.378 99.485 143.563 99.52 143.743 99.61C143.953 99.72 144.098 99.875 144.178 100.075C144.258 100.265 144.303 100.445 144.313 100.615ZM141.253 101.02C141.143 101.4 140.993 101.775 140.803 102.145C140.623 102.515 140.473 102.87 140.353 103.21C140.343 103.23 140.323 103.27 140.293 103.33C140.273 103.38 140.243 103.4 140.203 103.39C140.183 103.38 140.168 103.35 140.158 103.3C140.158 103.24 140.158 103.195 140.158 103.165C140.158 103.005 140.183 102.795 140.233 102.535C140.293 102.265 140.353 102.045 140.413 101.875C140.433 101.815 140.468 101.665 140.518 101.425C140.578 101.175 140.628 100.905 140.668 100.615C140.718 100.325 140.748 100.045 140.758 99.775C140.778 99.505 140.753 99.31 140.683 99.19C140.643 99.12 140.643 99.085 140.683 99.085C140.713 99.085 140.753 99.11 140.803 99.16C140.923 99.27 141.018 99.405 141.088 99.565C141.168 99.725 141.223 99.895 141.253 100.075C141.293 100.245 141.308 100.415 141.298 100.585C141.298 100.755 141.283 100.9 141.253 101.02ZM144.313 105.985C144.293 105.995 144.253 105.99 144.193 105.97C144.163 105.96 144.138 105.95 144.118 105.94C143.978 105.85 143.858 105.75 143.758 105.64C143.658 105.52 143.558 105.32 143.458 105.04C143.428 104.94 143.403 104.815 143.383 104.665C143.373 104.505 143.373 104.35 143.383 104.2C143.393 104.05 143.408 103.925 143.428 103.825C143.458 103.715 143.498 103.66 143.548 103.66C143.568 103.66 143.588 103.72 143.608 103.84C143.638 103.95 143.663 104.08 143.683 104.23C143.713 104.38 143.743 104.53 143.773 104.68C143.803 104.83 143.828 104.94 143.848 105.01C143.898 105.16 143.948 105.31 143.998 105.46C144.048 105.61 144.128 105.74 144.238 105.85C144.258 105.87 144.278 105.9 144.298 105.94C144.318 105.97 144.323 105.985 144.313 105.985ZM140.263 106.015C139.953 105.805 139.713 105.575 139.543 105.325C139.383 105.075 139.273 104.815 139.213 104.545C139.153 104.275 139.128 104 139.138 103.72C139.158 103.44 139.198 103.165 139.258 102.895C139.338 102.535 139.438 102.18 139.558 101.83C139.688 101.47 139.808 101.125 139.918 100.795C140.038 100.455 140.128 100.125 140.188 99.805C140.258 99.485 140.268 99.18 140.218 98.89C140.218 98.85 140.223 98.83 140.233 98.83C140.253 98.83 140.278 98.855 140.308 98.905C140.488 99.225 140.573 99.555 140.563 99.895C140.553 100.235 140.498 100.585 140.398 100.945C140.298 101.295 140.173 101.655 140.023 102.025C139.883 102.385 139.773 102.75 139.693 103.12C139.643 103.35 139.608 103.595 139.588 103.855C139.578 104.105 139.598 104.355 139.648 104.605C139.698 104.855 139.778 105.1 139.888 105.34C140.008 105.58 140.168 105.795 140.368 105.985C140.408 106.005 140.418 106.025 140.398 106.045C140.378 106.065 140.353 106.065 140.323 106.045C140.303 106.035 140.283 106.025 140.263 106.015ZM140.833 106.075C140.803 106.095 140.763 106.08 140.713 106.03C140.603 105.95 140.493 105.865 140.383 105.775C140.283 105.685 140.183 105.54 140.083 105.34C140.043 105.27 140.013 105.18 139.993 105.07C139.973 104.96 139.963 104.855 139.963 104.755C139.963 104.645 139.968 104.555 139.978 104.485C139.998 104.415 140.023 104.38 140.053 104.38C140.093 104.39 140.123 104.445 140.143 104.545C140.173 104.645 140.198 104.71 140.218 104.74C140.258 104.85 140.293 104.955 140.323 105.055C140.353 105.145 140.388 105.235 140.428 105.325C140.488 105.465 140.548 105.585 140.608 105.685C140.668 105.785 140.738 105.885 140.818 105.985C140.828 105.995 140.838 106.01 140.848 106.03C140.858 106.05 140.853 106.065 140.833 106.075Z" fill="#5A5959"/>
</svg>
