<svg width="129" height="77" viewBox="0 0 129 77" fill="none" xmlns="http://www.w3.org/2000/svg">
<path d="M78.5 51V52H77.5V51H78.5ZM76 51V51.6904L75 51.1904V51H76ZM78.5 48.5V49.5H77.5V48.5H78.5ZM76 48.5V49.5H75V48.5H76Z" fill="white" stroke="white"/>
<mask id="path-2-inside-1_201_34" fill="white">
<path d="M76.5 29V28.5L81 26L86.5 28.4095V44L81 40.5V39.5V38.5L79.5 39H79L78 38.5L81 37V35.5L77 37.5H76.5V36.5L81 34V32.5L76.5 35V33.5L81 31V29.5L76.5 32V30.5L81 28V26.5L76.5 29Z"/>
<path d="M67.5 17.5V12.5L72.5 10L78 12.5V26.5L75 28V38.5L71.5 41V33V19.5L67.5 17.5Z"/>
<path d="M64.5 17L59.5 19.5V30L62 31.5V42.5L64.5 44V18L70 20.5V42L70.5 41.5V20L64.5 17Z"/>
<path d="M65.5 20.5V19.5L66.5 20V21L65.5 20.5Z"/>
<path d="M68 21.5V20.5L69 21V22L68 21.5Z"/>
<path d="M65.5 23V22L66.5 22.5V23.5L65.5 23Z"/>
<path d="M68 24V23L69 23.5V24.5L68 24Z"/>
<path d="M65.5 25.5V24.5L66.5 25V26L65.5 25.5Z"/>
<path d="M68 26.5V25.5L69 26V27L68 26.5Z"/>
<path d="M65.5 28V27L66.5 27.5V28.5L65.5 28Z"/>
<path d="M68 29V28L69 28.5V29.5L68 29Z"/>
<path d="M65.5 30.5V29.5L66.5 30V31L65.5 30.5Z"/>
<path d="M65.5 33V32L66.5 32.5V33.5L65.5 33Z"/>
<path d="M68 31.5V30.5L69 31V32L68 31.5Z"/>
<path d="M68 34V33L69 33.5V34.5L68 34Z"/>
<path d="M65.5 35.5V34.5L66.5 35V36L65.5 35.5Z"/>
<path d="M68 36.5V35.5L69 36V37L68 36.5Z"/>
<path d="M65.5 38V37L66.5 37.5V38.5L65.5 38Z"/>
<path d="M68 39V38L69 38.5V39.5L68 39Z"/>
<path d="M65.5 40.5V39.5L66.5 40V41L65.5 40.5Z"/>
<path d="M68 41.5V40.5L69 41V42L68 41.5Z"/>
<path d="M65.5 43V42L66.5 42.5V43.5L65.5 43Z"/>
</mask>
<path d="M76.5 29V28.5L81 26L86.5 28.4095V44L81 40.5V39.5V38.5L79.5 39H79L78 38.5L81 37V35.5L77 37.5H76.5V36.5L81 34V32.5L76.5 35V33.5L81 31V29.5L76.5 32V30.5L81 28V26.5L76.5 29Z" fill="white"/>
<path d="M67.5 17.5V12.5L72.5 10L78 12.5V26.5L75 28V38.5L71.5 41V33V19.5L67.5 17.5Z" fill="white"/>
<path d="M64.5 17L59.5 19.5V30L62 31.5V42.5L64.5 44V18L70 20.5V42L70.5 41.5V20L64.5 17Z" fill="white"/>
<path d="M65.5 20.5V19.5L66.5 20V21L65.5 20.5Z" fill="white"/>
<path d="M68 21.5V20.5L69 21V22L68 21.5Z" fill="white"/>
<path d="M65.5 23V22L66.5 22.5V23.5L65.5 23Z" fill="white"/>
<path d="M68 24V23L69 23.5V24.5L68 24Z" fill="white"/>
<path d="M65.5 25.5V24.5L66.5 25V26L65.5 25.5Z" fill="white"/>
<path d="M68 26.5V25.5L69 26V27L68 26.5Z" fill="white"/>
<path d="M65.5 28V27L66.5 27.5V28.5L65.5 28Z" fill="white"/>
<path d="M68 29V28L69 28.5V29.5L68 29Z" fill="white"/>
<path d="M65.5 30.5V29.5L66.5 30V31L65.5 30.5Z" fill="white"/>
<path d="M65.5 33V32L66.5 32.5V33.5L65.5 33Z" fill="white"/>
<path d="M68 31.5V30.5L69 31V32L68 31.5Z" fill="white"/>
<path d="M68 34V33L69 33.5V34.5L68 34Z" fill="white"/>
<path d="M65.5 35.5V34.5L66.5 35V36L65.5 35.5Z" fill="white"/>
<path d="M68 36.5V35.5L69 36V37L68 36.5Z" fill="white"/>
<path d="M65.5 38V37L66.5 37.5V38.5L65.5 38Z" fill="white"/>
<path d="M68 39V38L69 38.5V39.5L68 39Z" fill="white"/>
<path d="M65.5 40.5V39.5L66.5 40V41L65.5 40.5Z" fill="white"/>
<path d="M68 41.5V40.5L69 41V42L68 41.5Z" fill="white"/>
<path d="M65.5 43V42L66.5 42.5V43.5L65.5 43Z" fill="white"/>
<path d="M76.5 29V28.5L81 26L86.5 28.4095V44L81 40.5V39.5V38.5L79.5 39H79L78 38.5L81 37V35.5L77 37.5H76.5V36.5L81 34V32.5L76.5 35V33.5L81 31V29.5L76.5 32V30.5L81 28V26.5L76.5 29Z" stroke="white" stroke-width="2" mask="url(#path-2-inside-1_201_34)"/>
<path d="M67.5 17.5V12.5L72.5 10L78 12.5V26.5L75 28V38.5L71.5 41V33V19.5L67.5 17.5Z" stroke="white" stroke-width="2" mask="url(#path-2-inside-1_201_34)"/>
<path d="M64.5 17L59.5 19.5V30L62 31.5V42.5L64.5 44V18L70 20.5V42L70.5 41.5V20L64.5 17Z" stroke="white" stroke-width="2" mask="url(#path-2-inside-1_201_34)"/>
<path d="M65.5 20.5V19.5L66.5 20V21L65.5 20.5Z" stroke="white" stroke-width="2" mask="url(#path-2-inside-1_201_34)"/>
<path d="M68 21.5V20.5L69 21V22L68 21.5Z" stroke="white" stroke-width="2" mask="url(#path-2-inside-1_201_34)"/>
<path d="M65.5 23V22L66.5 22.5V23.5L65.5 23Z" stroke="white" stroke-width="2" mask="url(#path-2-inside-1_201_34)"/>
<path d="M68 24V23L69 23.5V24.5L68 24Z" stroke="white" stroke-width="2" mask="url(#path-2-inside-1_201_34)"/>
<path d="M65.5 25.5V24.5L66.5 25V26L65.5 25.5Z" stroke="white" stroke-width="2" mask="url(#path-2-inside-1_201_34)"/>
<path d="M68 26.5V25.5L69 26V27L68 26.5Z" stroke="white" stroke-width="2" mask="url(#path-2-inside-1_201_34)"/>
<path d="M65.5 28V27L66.5 27.5V28.5L65.5 28Z" stroke="white" stroke-width="2" mask="url(#path-2-inside-1_201_34)"/>
<path d="M68 29V28L69 28.5V29.5L68 29Z" stroke="white" stroke-width="2" mask="url(#path-2-inside-1_201_34)"/>
<path d="M65.5 30.5V29.5L66.5 30V31L65.5 30.5Z" stroke="white" stroke-width="2" mask="url(#path-2-inside-1_201_34)"/>
<path d="M65.5 33V32L66.5 32.5V33.5L65.5 33Z" stroke="white" stroke-width="2" mask="url(#path-2-inside-1_201_34)"/>
<path d="M68 31.5V30.5L69 31V32L68 31.5Z" stroke="white" stroke-width="2" mask="url(#path-2-inside-1_201_34)"/>
<path d="M68 34V33L69 33.5V34.5L68 34Z" stroke="white" stroke-width="2" mask="url(#path-2-inside-1_201_34)"/>
<path d="M65.5 35.5V34.5L66.5 35V36L65.5 35.5Z" stroke="white" stroke-width="2" mask="url(#path-2-inside-1_201_34)"/>
<path d="M68 36.5V35.5L69 36V37L68 36.5Z" stroke="white" stroke-width="2" mask="url(#path-2-inside-1_201_34)"/>
<path d="M65.5 38V37L66.5 37.5V38.5L65.5 38Z" stroke="white" stroke-width="2" mask="url(#path-2-inside-1_201_34)"/>
<path d="M68 39V38L69 38.5V39.5L68 39Z" stroke="white" stroke-width="2" mask="url(#path-2-inside-1_201_34)"/>
<path d="M65.5 40.5V39.5L66.5 40V41L65.5 40.5Z" stroke="white" stroke-width="2" mask="url(#path-2-inside-1_201_34)"/>
<path d="M68 41.5V40.5L69 41V42L68 41.5Z" stroke="white" stroke-width="2" mask="url(#path-2-inside-1_201_34)"/>
<path d="M65.5 43V42L66.5 42.5V43.5L65.5 43Z" stroke="white" stroke-width="2" mask="url(#path-2-inside-1_201_34)"/>
<path d="M45.5 40.5L42 43H44L45.5 42L60.5 50.5L45.5 40.5Z" fill="white" stroke="white"/>
<rect x="21" y="59.5" width="7" height="13" fill="white" stroke="white"/>
<path d="M45.3086 56.5C45.2361 56.5375 45.0939 56.5895 44.8047 56.6309C44.5884 56.6618 44.3093 56.6828 43.9463 56.6953L45.2627 56.5H45.3086ZM40.2979 56.2266L39.0996 56.4053C38.923 56.3241 38.7286 56.2192 38.5166 56.0908C38.1326 55.8583 37.7253 55.5764 37.2803 55.2744C37.0201 55.0978 36.7468 54.9147 36.4639 54.7373C36.3563 54.6022 36.2459 54.4575 36.1279 54.3018L40.2979 56.2266ZM39.7266 44.0664C38.5742 44.8227 37.5179 45.5175 36.5586 46.1514C37.6852 45.0387 38.3312 44.5291 38.9424 44.2744C39.1911 44.1708 39.4401 44.1065 39.7266 44.0664ZM30.5 47.4727L30.4971 47.4453C30.4442 46.9682 30.3171 46.5706 30.1963 46.2793C30.1357 46.1333 30.0762 46.0132 30.0283 45.9229C30.0045 45.8778 29.984 45.8402 29.9678 45.8115C29.9601 45.7979 29.9519 45.7845 29.9473 45.7764C29.9423 45.7676 29.9407 45.7643 29.9404 45.7637C29.3045 44.5819 27.8932 44.1702 26.3467 44.1357C24.7674 44.1006 22.853 44.4499 20.9248 45.001C17.0795 46.1 13.0023 48.0547 11.1748 49.6211L11.6611 50.4736C19.4606 47.8103 24.0457 47.4674 26.7412 47.9707C28.0755 48.2199 28.9371 48.6745 29.5029 49.1494C29.5039 49.7955 29.5041 50.3511 29.5068 50.8262C29.4945 50.8352 29.4832 50.8438 29.4727 50.8516C29.4445 50.8724 29.4187 50.8911 29.3994 50.9062C29.3907 50.913 29.3777 50.9238 29.3643 50.9355C29.3587 50.9404 29.3431 50.9539 29.3262 50.9717C29.3185 50.9798 29.3002 51.0002 29.2803 51.0283C29.2701 51.0433 29.2473 51.0808 29.2354 51.1045C29.2193 51.1427 29.1922 51.2492 29.1875 51.3174C29.199 51.424 29.2987 51.6322 29.3887 51.7188C29.4229 51.7395 29.4688 51.7589 29.5146 51.7754C29.5189 52.1145 29.5246 52.388 29.5312 52.6045C29.5373 52.8034 29.5445 52.9608 29.5537 53.0791C29.561 53.1718 29.5733 53.3068 29.6113 53.4121C29.6214 53.4399 29.6491 53.5149 29.7129 53.5879C29.7864 53.672 29.9617 53.8047 30.2061 53.751C30.3923 53.7099 30.4884 53.5816 30.5117 53.5498C30.5466 53.5021 30.5678 53.4575 30.5781 53.4336C30.6148 53.3482 30.6384 53.2383 30.6543 53.1631C30.6912 52.9879 30.7361 52.722 30.7842 52.4492C30.8338 52.1678 30.8904 51.8629 30.9551 51.5811C31.0132 51.3278 31.0743 51.1141 31.1348 50.96C31.1811 50.929 31.2293 50.8971 31.2783 50.8643C31.4923 50.7211 31.7328 50.5609 31.999 50.3828C34.5668 48.9442 35.9086 48.1934 36.6094 47.8008C36.9926 47.5861 37.1845 47.4785 37.2803 47.4248C37.328 47.3981 37.3523 47.3846 37.3643 47.3779C37.3697 47.3749 37.3725 47.3729 37.374 47.3721H37.376V47.3711H37.3779C37.3794 47.3702 37.3822 47.3683 37.3877 47.3652C37.3997 47.3585 37.4238 47.3442 37.4717 47.3174C37.5675 47.2637 37.7595 47.157 38.1426 46.9424C38.8999 46.5181 40.4052 45.674 43.3984 43.9971C43.6857 43.9905 43.96 43.9666 44.2031 43.9434C44.4948 43.9155 44.7303 43.8926 44.9365 43.8955C45.1415 43.8984 45.2675 43.9274 45.3486 43.9688C45.3998 43.9949 45.4513 44.0356 45.5 44.1182C45.5001 44.4494 45.4993 45.3292 45.5 46.4766L45.1826 46.502C44.5396 46.5527 43.0392 46.5 41 46.5H40.5V54.876C39.4025 53.9766 38.2138 53.3224 37.1855 52.9111C36.535 52.6509 35.9328 52.4817 35.4453 52.4121C35.2031 52.3775 34.9711 52.3643 34.7676 52.3857C34.5822 52.4053 34.3314 52.4617 34.1465 52.6465L33.8311 52.9619L34.1084 53.3115C34.2395 53.4765 34.3611 53.6357 34.4775 53.7871C34.4433 53.7774 34.4093 53.7676 34.375 53.7588C33.8471 53.6224 33.2934 53.5823 32.7354 53.7158C32.1743 53.8501 31.6412 54.1518 31.1465 54.6465L31.1113 54.6816L31.084 54.7227C30.8103 55.1332 30.5932 55.5841 30.3994 56.0107C30.2 56.4498 30.0306 56.8505 29.8359 57.2217C29.449 57.9594 29.05 58.4014 28.418 58.5068C27.6222 58.6395 26.8348 58.9034 26.0986 59.1514C25.347 59.4046 24.6503 59.6406 23.9766 59.7578C23.3111 59.8735 22.7038 59.8658 22.1338 59.6562C21.5673 59.4479 20.9859 59.0214 20.4062 58.21C20.013 57.6595 19.8751 56.89 19.7979 56.0508C19.7626 55.6674 19.7354 55.2094 19.6973 54.8545C19.658 54.4889 19.5966 54.1044 19.4551 53.793C19.1026 53.0178 18.5881 52.4505 17.9395 52.0791C17.2966 51.7111 16.5518 51.5527 15.7578 51.54C14.1835 51.515 12.3245 52.0633 10.4326 52.8516C7.3105 54.1525 3.90943 56.1918 1.29785 57.6934C2.53991 55.7653 4.80935 53.0844 8.07227 50.5127C12.3034 47.1779 18.1726 44.0517 25.5703 42.9951C27.0798 42.7796 28.2422 42.6719 29.2021 42.8896C30.1158 43.097 30.8829 43.6096 31.5713 44.7568C32.8379 46.8677 34.5407 47.1247 35.6035 46.7832C33.8553 47.9408 32.4768 48.8601 31.4688 49.5342C31.386 49.5806 31.3021 49.628 31.2168 49.6758C31.0453 49.3685 30.8154 49.0401 30.502 48.7178C30.5016 48.3409 30.5 47.9356 30.5 47.5V47.4727Z" fill="white" stroke="white"/>
<path d="M18.5 56H11.5L16.5 53C18.5 53 18.5 56 18.5 56Z" fill="#8A8A8A"/>
<path d="M34.5 46C34.5 46 32.5 45.5 31.5 42.5C38.0001 38.2061 45.5 33.2525 45.5 33.2525L56 40V29.5L61.5 32.5V43L65.5 45.5L76.5 38.2135L89.5 46.5V35L87 36V35L89.5 34L95 37V50.5L103.5 56H92.5V53L76.5 42.5L68 48.5L80.5 56H66.5V52L45.5 38.5L34.5 46Z" fill="#8A8A8A"/>
<path d="M46.5 47H50.5V51H46.5V47Z" fill="#8A8A8A"/>
<rect x="46.5" y="52" width="4" height="4" fill="#8A8A8A"/>
<mask id="path-10-inside-2_201_34" fill="white">
<path d="M83.5 21.5L78.5 18.5V17.5L84.5 21V27L83.5 26.5V21.5Z"/>
</mask>
<path d="M83.5 21.5L78.5 18.5V17.5L84.5 21V27L83.5 26.5V21.5Z" fill="white"/>
<path d="M79 18L78.6464 17.6464L78.1464 18.1464L78.5 18.5L78.8536 18.8536L79.3536 18.3536L79 18ZM78.5 18.5H77.5V19.0662L77.9855 19.3575L78.5 18.5ZM83.5 21.5H84.5V20.9338L84.0145 20.6425L83.5 21.5ZM83.5 26.5H82.5V27.118L83.0528 27.3944L83.5 26.5ZM84.5 27L84.0528 27.8944L85.5 28.618V27H84.5ZM84.5 21H85.5V20.4256L85.0039 20.1362L84.5 21ZM78.5 17.5L79.0039 16.6362L77.5 15.759V17.5H78.5ZM78.5 18.5L77.9855 19.3575L82.9855 22.3575L83.5 21.5L84.0145 20.6425L79.0145 17.6425L78.5 18.5ZM83.5 21.5H82.5V26.5H83.5H84.5V21.5H83.5ZM83.5 26.5L83.0528 27.3944L84.0528 27.8944L84.5 27L84.9472 26.1056L83.9472 25.6056L83.5 26.5ZM84.5 27H85.5V21H84.5H83.5V27H84.5ZM84.5 21L85.0039 20.1362L79.0039 16.6362L78.5 17.5L77.9961 18.3638L83.9961 21.8638L84.5 21ZM78.5 17.5H77.5V18.5H78.5H79.5V17.5H78.5Z" fill="white" mask="url(#path-10-inside-2_201_34)"/>
<path d="M80 1.4541L79.7998 1.54199L63.7998 8.54199L63.5 8.67285V8.69141L62.7764 9.05273L61.7764 9.55273L61.5 9.69141V17.1387L61 17.3057V10.3594L58 11.1094V12.1094L55 12.8594V9.89062L58 9.14062V10L58.001 10.8086L60.7236 9.44727L61 9.30859V6.26758L61.5 5.93359V9.30859L62.2236 8.94727L63.2236 8.44727L63.5 8.30859V8.25781L64.1973 7.95996L80 1.18652V1.4541ZM81 1H80.4375L81 0.758789V1Z" fill="#8A8A8A" stroke="#8A8A8A"/>
<path d="M80 13C80.4999 13 80.9143 13.0001 81.5 13C81.7471 13 81.8945 13.0911 81.9883 13.2061C82.0923 13.3337 82.1565 13.5258 82.1533 13.7422C82.1501 13.9585 82.0796 14.1567 81.9688 14.291C81.8672 14.4141 81.7209 14.5 81.5 14.5H80C79.7801 14.5 79.6415 14.4152 79.5469 14.2969C79.442 14.1658 79.375 13.9693 79.375 13.75C79.375 13.5307 79.442 13.3342 79.5469 13.2031C79.6416 13.0848 79.7802 13 80 13Z" fill="#8A8A8A" stroke="#8A8A8A"/>
<path d="M33.825 58.625L33.225 58.6C32.775 58.6 32.4833 58.7083 32.35 58.925C32.3167 58.975 32.275 59 32.225 59C32.0083 59 31.9 58.6333 31.9 57.9C31.9 57.15 32.0083 56.675 32.225 56.475C32.4583 56.275 32.85 56.175 33.4 56.175C33.9667 56.175 34.35 56.275 34.55 56.475C34.75 56.6583 34.85 56.975 34.85 57.425C34.85 57.875 34.775 58.1917 34.625 58.375C34.475 58.5417 34.2083 58.625 33.825 58.625ZM31.825 71.25L32.1 65.425C32.1 64.0417 31.9417 63.1 31.625 62.6C31.525 62.4333 31.4083 62.3083 31.275 62.225C31.175 62.1917 31.125 62.125 31.125 62.025C31.125 61.725 31.55 61.4333 32.4 61.15C33.25 60.8667 33.8667 60.725 34.25 60.725C34.65 60.725 34.8583 60.825 34.875 61.025C34.875 61.3583 34.825 62.3083 34.725 63.875C34.6417 65.425 34.6 67.0583 34.6 68.775C34.6 70.4917 34.7 71.5583 34.9 71.975C34.95 72.0583 34.975 72.1417 34.975 72.225C34.975 72.4417 34.6583 72.55 34.025 72.55C33.3917 72.55 32.7417 72.3833 32.075 72.05C31.9083 71.9667 31.825 71.7 31.825 71.25ZM44.124 65.3L44.224 66.175C44.224 66.4917 43.924 66.65 43.324 66.65C42.1074 66.65 41.499 66.1917 41.499 65.275C41.499 65.0583 41.5574 64.7583 41.674 64.375C41.7907 63.9917 41.849 63.6583 41.849 63.375C41.849 63.0917 41.7657 62.85 41.599 62.65C41.4324 62.4333 41.1907 62.325 40.874 62.325C40.5574 62.325 40.2824 62.4417 40.049 62.675C39.8324 62.8917 39.699 63.1167 39.649 63.35L39.549 63.7C39.449 64.2167 39.399 65.0833 39.399 66.3C39.399 67.5 39.4157 68.45 39.449 69.15C39.4824 69.8333 39.5157 70.3083 39.549 70.575C39.5824 70.825 39.599 70.975 39.599 71.025C39.599 71.4417 39.3407 71.775 38.824 72.025C38.3074 72.2917 37.7907 72.425 37.274 72.425C36.7574 72.425 36.499 72.3167 36.499 72.1L36.624 71.325C36.8574 69.875 36.974 67.9833 36.974 65.65C36.974 63.3167 36.8907 61.7333 36.724 60.9C36.724 60.7 36.899 60.6 37.249 60.6C38.149 60.6 38.749 60.9083 39.049 61.525C39.0657 61.5917 39.0907 61.625 39.124 61.625C39.174 61.625 39.2907 61.55 39.474 61.4C40.024 60.95 40.674 60.725 41.424 60.725C41.8907 60.725 42.3574 60.8167 42.824 61C43.774 61.3833 44.249 62.1833 44.249 63.4L44.124 65.3ZM45.0107 62.25L45.0857 61.25C45.1024 61.1 45.2191 61.025 45.4357 61.025H46.3107L46.2107 59.025V58.925C46.2107 58.5417 46.5024 58.175 47.0857 57.825C47.6691 57.475 48.2024 57.3 48.6857 57.3C48.8357 57.3 48.9107 57.3667 48.9107 57.5V57.525C48.8441 57.975 48.7774 59.1333 48.7107 61C49.4441 61 49.9107 60.9833 50.1107 60.95C50.3107 60.9167 50.4191 60.9 50.4357 60.9C50.5524 60.9 50.6107 61 50.6107 61.2C50.6107 61.4 50.5191 61.6583 50.3357 61.975C50.1524 62.275 49.9524 62.4333 49.7357 62.45H48.6857C48.6691 63.0167 48.6607 63.975 48.6607 65.325C48.6607 66.6583 48.6691 67.7583 48.6857 68.625C48.7191 69.4917 48.7524 70.15 48.7857 70.6C48.8191 71.0333 48.8524 71.3833 48.8857 71.65C48.9357 71.9167 48.9691 72.1083 48.9857 72.225C49.0191 72.3417 49.0357 72.4167 49.0357 72.45C49.0357 72.6167 48.9274 72.7083 48.7107 72.725C48.0607 72.725 47.4107 72.6333 46.7607 72.45C46.1274 72.2667 45.8107 71.95 45.8107 71.5C46.1607 68.7 46.3357 65.6917 46.3357 62.475C45.8857 62.475 45.5441 62.4917 45.3107 62.525H45.2857C45.1357 62.525 45.0441 62.4333 45.0107 62.25ZM54.2016 58.575L54.1766 61C54.1766 61.1 54.2099 61.15 54.2766 61.15C54.3432 61.15 54.4099 61.125 54.4766 61.075C54.8932 60.7917 55.5516 60.65 56.4516 60.65C57.9682 60.65 59.0182 61.1667 59.6016 62.2C59.8182 62.5833 59.9266 63.0917 59.9266 63.725C59.9266 64.3583 59.8849 65.2333 59.8016 66.35C59.7349 67.4667 59.7016 68.2583 59.7016 68.725C59.7016 70.3583 59.9349 71.4417 60.4016 71.975C60.4849 72.0583 60.5266 72.1417 60.5266 72.225C60.5266 72.3917 60.1682 72.475 59.4516 72.475C57.5182 72.475 56.5516 71.575 56.5516 69.775C56.5516 69.075 56.7182 68.0917 57.0516 66.825C57.3849 65.5583 57.5516 64.625 57.5516 64.025C57.5516 63.425 57.4099 62.9667 57.1266 62.65C56.8432 62.3167 56.4516 62.15 55.9516 62.15C55.4516 62.15 55.0516 62.2583 54.7516 62.475C54.4682 62.6917 54.2932 62.9167 54.2266 63.15L54.1516 63.475C54.1349 63.7917 54.1266 64.8 54.1266 66.5C54.1266 68.2 54.1682 69.3083 54.2516 69.825C54.3349 70.325 54.3766 70.6083 54.3766 70.675C54.3766 71.1583 54.0516 71.5917 53.4016 71.975C52.7516 72.3417 52.1099 72.525 51.4766 72.525C51.2432 72.525 51.1266 72.3917 51.1266 72.125L51.1766 71.65C51.5432 68.85 51.7266 65.8167 51.7266 62.55C51.7266 61.2833 51.6766 60 51.5766 58.7L51.5516 58.15C51.5182 57.6833 51.4182 57.2833 51.2516 56.95C51.1016 56.6167 50.9599 56.4 50.8266 56.3L50.6016 56.175C50.4849 56.1083 50.4266 56.0333 50.4266 55.95C50.4266 55.7167 50.8182 55.4333 51.6016 55.1C52.3849 54.75 52.9849 54.575 53.4016 54.575C53.8349 54.575 54.0682 54.6667 54.1016 54.85C54.1682 55.7 54.2016 56.9417 54.2016 58.575Z" fill="white"/>
<path d="M69.72 68.85C69.64 69.28 69.59 69.645 69.57 69.945C69.56 70.235 69.61 70.46 69.72 70.62C69.84 70.78 70.035 70.87 70.305 70.89C70.575 70.91 70.955 70.86 71.445 70.74C71.515 70.72 71.555 70.715 71.565 70.725C71.585 70.735 71.58 70.75 71.55 70.77C71.53 70.79 71.5 70.81 71.46 70.83C71.3 70.93 71.125 71.01 70.935 71.07C70.755 71.13 70.575 71.165 70.395 71.175C70.215 71.175 70.045 71.155 69.885 71.115C69.725 71.075 69.595 71.005 69.495 70.905C69.295 70.705 69.18 70.43 69.15 70.08C69.12 69.72 69.145 69.355 69.225 68.985C69.285 68.685 69.36 68.39 69.45 68.1C69.54 67.8 69.655 67.525 69.795 67.275C69.945 67.015 70.115 66.79 70.305 66.6C70.505 66.4 70.735 66.25 70.995 66.15C71.125 66.1 71.265 66.075 71.415 66.075C71.565 66.075 71.7 66.095 71.82 66.135C71.94 66.175 72.04 66.235 72.12 66.315C72.21 66.395 72.265 66.49 72.285 66.6C72.295 66.71 72.28 66.82 72.24 66.93C72.2 67.03 72.14 67.125 72.06 67.215C71.99 67.305 71.91 67.38 71.82 67.44C71.73 67.5 71.64 67.535 71.55 67.545C71.47 67.565 71.42 67.56 71.4 67.53C71.39 67.5 71.41 67.475 71.46 67.455C71.5 67.445 71.55 67.415 71.61 67.365C71.68 67.305 71.74 67.24 71.79 67.17C71.85 67.1 71.895 67.02 71.925 66.93C71.955 66.84 71.955 66.75 71.925 66.66C71.905 66.6 71.835 66.555 71.715 66.525C71.605 66.495 71.435 66.505 71.205 66.555C71.025 66.605 70.855 66.705 70.695 66.855C70.535 66.995 70.39 67.175 70.26 67.395C70.13 67.605 70.015 67.84 69.915 68.1C69.825 68.35 69.76 68.6 69.72 68.85ZM69.9 71.94C70 71.94 70.05 71.95 70.05 71.97C70.05 71.98 70.04 71.99 70.02 72C70.01 72.01 69.975 72.015 69.915 72.015C69.695 72.025 69.475 72.015 69.255 71.985C69.035 71.955 68.83 71.89 68.64 71.79C68.45 71.68 68.28 71.535 68.13 71.355C67.99 71.165 67.89 70.92 67.83 70.62C67.73 70.16 67.695 69.69 67.725 69.21C67.755 68.73 67.845 68.265 67.995 67.815C68.145 67.365 68.35 66.94 68.61 66.54C68.88 66.13 69.21 65.77 69.6 65.46C69.89 65.22 70.225 65.06 70.605 64.98C70.985 64.89 71.35 64.87 71.7 64.92C72.06 64.97 72.37 65.09 72.63 65.28C72.9 65.47 73.065 65.725 73.125 66.045C73.155 66.125 73.155 66.18 73.125 66.21C73.095 66.21 73.065 66.16 73.035 66.06C72.895 65.84 72.735 65.665 72.555 65.535C72.375 65.405 72.18 65.315 71.97 65.265C71.77 65.205 71.565 65.18 71.355 65.19C71.145 65.2 70.95 65.23 70.77 65.28C70.41 65.38 70.12 65.52 69.9 65.7C69.68 65.87 69.46 66.085 69.24 66.345C68.89 66.765 68.63 67.24 68.46 67.77C68.3 68.29 68.2 68.81 68.16 69.33C68.14 69.58 68.145 69.84 68.175 70.11C68.205 70.37 68.275 70.645 68.385 70.935C68.495 71.215 68.695 71.45 68.985 71.64C69.275 71.82 69.58 71.92 69.9 71.94ZM68.73 68.325C68.79 67.995 68.865 67.68 68.955 67.38C69.045 67.07 69.17 66.79 69.33 66.54C69.5 66.28 69.715 66.055 69.975 65.865C70.235 65.675 70.555 65.53 70.935 65.43C71.065 65.4 71.22 65.385 71.4 65.385C71.59 65.385 71.775 65.415 71.955 65.475C72.135 65.525 72.3 65.615 72.45 65.745C72.6 65.865 72.715 66.03 72.795 66.24C72.865 66.44 72.88 66.625 72.84 66.795C72.8 66.965 72.73 67.12 72.63 67.26C72.53 67.39 72.41 67.5 72.27 67.59C72.14 67.67 72.015 67.715 71.895 67.725C71.875 67.725 71.845 67.72 71.805 67.71C71.775 67.7 71.8 67.68 71.88 67.65C71.99 67.6 72.1 67.5 72.21 67.35C72.33 67.2 72.41 67.015 72.45 66.795C72.5 66.565 72.44 66.365 72.27 66.195C72.1 66.025 71.88 65.925 71.61 65.895C71.35 65.865 71.115 65.89 70.905 65.97C70.695 66.05 70.515 66.145 70.365 66.255C70.215 66.365 70.095 66.475 70.005 66.585C69.915 66.685 69.855 66.75 69.825 66.78C69.465 67.24 69.155 67.77 68.895 68.37C68.895 68.38 68.87 68.435 68.82 68.535C68.78 68.635 68.75 68.685 68.73 68.685C68.71 68.685 68.7 68.67 68.7 68.64C68.7 68.6 68.7 68.56 68.7 68.52C68.71 68.48 68.715 68.44 68.715 68.4C68.725 68.36 68.73 68.335 68.73 68.325ZM71.76 71.04C71.69 71.14 71.595 71.235 71.475 71.325C71.365 71.415 71.235 71.495 71.085 71.565C70.945 71.625 70.795 71.675 70.635 71.715C70.485 71.755 70.335 71.775 70.185 71.775C69.925 71.775 69.68 71.725 69.45 71.625C69.22 71.525 69.03 71.3 68.88 70.95C68.84 70.88 68.84 70.825 68.88 70.785C68.91 70.775 68.945 70.795 68.985 70.845C69.035 70.885 69.08 70.93 69.12 70.98C69.23 71.09 69.385 71.2 69.585 71.31C69.795 71.41 69.975 71.46 70.125 71.46C70.425 71.46 70.695 71.42 70.935 71.34C71.185 71.25 71.41 71.135 71.61 70.995C71.63 70.985 71.655 70.97 71.685 70.95C71.725 70.92 71.755 70.905 71.775 70.905C71.795 70.895 71.805 70.9 71.805 70.92C71.815 70.94 71.8 70.98 71.76 71.04ZM77.7437 67.845C77.7737 67.575 77.7787 67.29 77.7587 66.99C77.7387 66.69 77.6737 66.415 77.5637 66.165C77.4637 65.905 77.3037 65.69 77.0837 65.52C76.8737 65.35 76.5937 65.265 76.2437 65.265C75.7737 65.265 75.3637 65.395 75.0137 65.655C74.6637 65.905 74.3637 66.22 74.1137 66.6C73.8637 66.97 73.6687 67.37 73.5287 67.8C73.3887 68.22 73.2987 68.605 73.2587 68.955C73.1987 69.435 73.1887 69.85 73.2287 70.2C73.2787 70.55 73.3637 70.84 73.4837 71.07C73.6037 71.29 73.7537 71.455 73.9337 71.565C74.1237 71.675 74.3287 71.73 74.5487 71.73C74.8587 71.74 75.1837 71.655 75.5237 71.475C75.8737 71.285 76.1987 71.025 76.4987 70.695C76.7987 70.355 77.0587 69.945 77.2787 69.465C77.5087 68.975 77.6637 68.435 77.7437 67.845ZM72.9137 68.88C72.9537 68.48 73.0537 68.04 73.2137 67.56C73.3737 67.08 73.5937 66.635 73.8737 66.225C74.1637 65.815 74.5087 65.475 74.9087 65.205C75.3087 64.925 75.7737 64.785 76.3037 64.785C76.7037 64.785 77.0337 64.88 77.2937 65.07C77.5537 65.26 77.7537 65.505 77.8937 65.805C78.0337 66.095 78.1237 66.415 78.1637 66.765C78.2037 67.105 78.2037 67.43 78.1637 67.74C78.0737 68.46 77.8987 69.085 77.6387 69.615C77.3787 70.145 77.0737 70.59 76.7237 70.95C76.3737 71.3 76.0037 71.565 75.6137 71.745C75.2237 71.915 74.8487 72 74.4887 72C74.2187 72 73.9737 71.94 73.7537 71.82C73.5437 71.7 73.3637 71.515 73.2137 71.265C73.0737 71.005 72.9737 70.68 72.9137 70.29C72.8637 69.89 72.8637 69.42 72.9137 68.88ZM74.5937 70.995C74.5437 70.995 74.4937 70.98 74.4437 70.95C74.3937 70.91 74.3537 70.865 74.3237 70.815C74.2937 70.765 74.2737 70.715 74.2637 70.665C74.2537 70.615 74.2737 70.58 74.3237 70.56C74.3537 70.55 74.3937 70.585 74.4437 70.665C74.4937 70.745 74.5487 70.785 74.6087 70.785C74.7087 70.785 74.8237 70.72 74.9537 70.59C75.0937 70.46 75.2237 70.31 75.3437 70.14C75.4737 69.96 75.5837 69.785 75.6737 69.615C75.7737 69.445 75.8437 69.32 75.8837 69.24C75.9237 69.16 75.9637 69.06 76.0037 68.94C76.0437 68.81 76.0787 68.68 76.1087 68.55C76.1487 68.42 76.1787 68.295 76.1987 68.175C76.2287 68.045 76.2487 67.935 76.2587 67.845C76.3087 67.395 76.2987 67.05 76.2287 66.81C76.1587 66.56 76.0437 66.435 75.8837 66.435C75.7637 66.435 75.6387 66.475 75.5087 66.555C75.3787 66.625 75.2537 66.72 75.1337 66.84C75.0237 66.96 74.9237 67.095 74.8337 67.245C74.7437 67.385 74.6787 67.53 74.6387 67.68C74.5887 67.85 74.5537 67.935 74.5337 67.935C74.5037 67.935 74.4887 67.85 74.4887 67.68C74.5187 67.49 74.5837 67.305 74.6837 67.125C74.7837 66.935 74.9087 66.77 75.0587 66.63C75.2087 66.48 75.3737 66.36 75.5537 66.27C75.7337 66.17 75.9187 66.12 76.1087 66.12C76.2987 66.12 76.4387 66.19 76.5287 66.33C76.6287 66.46 76.6987 66.625 76.7387 66.825C76.7787 67.015 76.7937 67.215 76.7837 67.425C76.7837 67.625 76.7737 67.785 76.7537 67.905C76.7137 68.175 76.6487 68.44 76.5587 68.7C76.4787 68.95 76.3787 69.205 76.2587 69.465C76.1987 69.585 76.1087 69.735 75.9887 69.915C75.8687 70.085 75.7287 70.25 75.5687 70.41C75.4187 70.57 75.2537 70.71 75.0737 70.83C74.9037 70.94 74.7437 70.995 74.5937 70.995ZM75.0737 71.28C75.0837 71.34 75.0337 71.39 74.9237 71.43C74.8237 71.47 74.7187 71.49 74.6087 71.49C74.2987 71.48 74.0587 71.38 73.8887 71.19C73.7287 71 73.6137 70.775 73.5437 70.515C73.4837 70.255 73.4537 69.985 73.4537 69.705C73.4637 69.425 73.4787 69.19 73.4987 69C73.5387 68.67 73.6187 68.3 73.7387 67.89C73.8587 67.48 74.0287 67.095 74.2487 66.735C74.4687 66.375 74.7387 66.075 75.0587 65.835C75.3787 65.585 75.7587 65.46 76.1987 65.46C76.4887 65.46 76.7187 65.535 76.8887 65.685C77.0687 65.835 77.1987 66.02 77.2787 66.24C77.3687 66.46 77.4187 66.7 77.4287 66.96C77.4487 67.21 77.4437 67.44 77.4137 67.65C77.3937 67.88 77.3587 68.09 77.3087 68.28C77.2587 68.47 77.1887 68.68 77.0987 68.91C77.0687 68.98 77.0287 69.06 76.9787 69.15C76.9287 69.24 76.8737 69.28 76.8137 69.27C76.7837 69.26 76.7737 69.22 76.7837 69.15C76.8037 69.08 76.8237 68.995 76.8437 68.895C76.8737 68.785 76.9037 68.675 76.9337 68.565C76.9637 68.445 76.9837 68.335 76.9937 68.235C77.0137 68.065 77.0237 67.855 77.0237 67.605C77.0337 67.345 77.0137 67.095 76.9637 66.855C76.9237 66.615 76.8437 66.41 76.7237 66.24C76.6037 66.07 76.4237 65.985 76.1837 65.985C75.8337 65.985 75.5087 66.1 75.2087 66.33C74.9187 66.55 74.6637 66.825 74.4437 67.155C74.2237 67.475 74.0437 67.815 73.9037 68.175C73.7737 68.525 73.6937 68.835 73.6637 69.105C73.6437 69.265 73.6387 69.465 73.6487 69.705C73.6587 69.945 73.6937 70.185 73.7537 70.425C73.8237 70.655 73.9337 70.855 74.0837 71.025C74.2337 71.195 74.4387 71.285 74.6987 71.295C74.7787 71.305 74.8537 71.3 74.9237 71.28C75.0037 71.25 75.0537 71.25 75.0737 71.28ZM83.6415 66.615C83.6615 66.925 83.6415 67.225 83.5815 67.515C83.5215 67.795 83.4465 68.055 83.3565 68.295C83.3365 68.345 83.3015 68.4 83.2515 68.46C83.2115 68.52 83.1715 68.54 83.1315 68.52C83.1115 68.52 83.1065 68.485 83.1165 68.415C83.1265 68.345 83.1315 68.295 83.1315 68.265C83.1415 68.155 83.1465 68.02 83.1465 67.86C83.1565 67.69 83.1615 67.52 83.1615 67.35C83.1615 67.18 83.1515 67.02 83.1315 66.87C83.1215 66.71 83.1015 66.575 83.0715 66.465C82.9815 66.145 82.8365 65.97 82.6365 65.94C82.4465 65.9 82.2515 65.95 82.0515 66.09C81.8515 66.23 81.6615 66.425 81.4815 66.675C81.3015 66.925 81.1815 67.17 81.1215 67.41C81.1815 67.32 81.2565 67.215 81.3465 67.095C81.4465 66.965 81.5565 66.845 81.6765 66.735C81.7965 66.615 81.9215 66.52 82.0515 66.45C82.1915 66.37 82.3215 66.335 82.4415 66.345C82.5715 66.355 82.6615 66.425 82.7115 66.555C82.7715 66.685 82.8065 66.845 82.8165 67.035C82.8265 67.225 82.8165 67.43 82.7865 67.65C82.7565 67.87 82.7215 68.075 82.6815 68.265C82.6115 68.575 82.5515 68.895 82.5015 69.225C82.4515 69.555 82.4315 69.88 82.4415 70.2C82.4615 70.51 82.5165 70.815 82.6065 71.115C82.7065 71.405 82.8715 71.675 83.1015 71.925C83.1215 71.955 83.1365 71.98 83.1465 72C83.1565 72.02 83.1315 72.015 83.0715 71.985C82.8115 71.835 82.6015 71.66 82.4415 71.46C82.2915 71.26 82.1765 71.045 82.0965 70.815C82.0165 70.585 81.9665 70.345 81.9465 70.095C81.9365 69.845 81.9415 69.595 81.9615 69.345C82.0015 68.985 82.0615 68.67 82.1415 68.4C82.2215 68.13 82.2815 67.825 82.3215 67.485C82.3415 67.275 82.3265 67.14 82.2765 67.08C82.2265 67.01 82.1665 66.97 82.0965 66.96C81.9965 66.95 81.8815 67.005 81.7515 67.125C81.6315 67.235 81.5015 67.395 81.3615 67.605C81.2315 67.815 81.1015 68.06 80.9715 68.34C80.8515 68.62 80.7465 68.915 80.6565 69.225C80.5765 69.535 80.4765 69.86 80.3565 70.2C80.2465 70.53 80.1415 70.815 80.0415 71.055C80.0015 71.145 79.9715 71.19 79.9515 71.19C79.9315 71.19 79.9115 71.17 79.8915 71.13C79.8815 71.09 79.8765 71.06 79.8765 71.04C79.8365 70.54 79.8815 70.045 80.0115 69.555C80.1415 69.065 80.2915 68.57 80.4615 68.07C80.5615 67.76 80.6515 67.485 80.7315 67.245C80.8115 67.005 80.8515 66.7 80.8515 66.33C80.8515 66.17 80.8915 66.005 80.9715 65.835C81.0515 65.655 81.1665 65.495 81.3165 65.355C81.4765 65.205 81.6715 65.085 81.9015 64.995C82.1315 64.905 82.3915 64.865 82.6815 64.875C83.1615 64.885 83.5315 65 83.7915 65.22C84.0515 65.43 84.2315 65.7 84.3315 66.03C84.4415 66.36 84.4865 66.72 84.4665 67.11C84.4565 67.49 84.4165 67.86 84.3465 68.22C84.2865 68.49 84.2165 68.735 84.1365 68.955C84.0565 69.175 83.9715 69.38 83.8815 69.57C83.7915 69.76 83.7065 69.94 83.6265 70.11C83.5465 70.28 83.4815 70.45 83.4315 70.62C83.4215 70.65 83.4115 70.685 83.4015 70.725C83.3915 70.755 83.3765 70.77 83.3565 70.77C83.3365 70.77 83.3215 70.75 83.3115 70.71C83.3015 70.67 83.2965 70.625 83.2965 70.575C83.2765 70.235 83.3115 69.91 83.4015 69.6C83.4915 69.28 83.5865 68.955 83.6865 68.625C83.7865 68.285 83.8615 67.93 83.9115 67.56C83.9615 67.19 83.9415 66.78 83.8515 66.33C83.7615 65.85 83.5415 65.53 83.1915 65.37C82.8415 65.21 82.4415 65.22 81.9915 65.4C81.9315 65.43 81.8515 65.475 81.7515 65.535C81.6515 65.595 81.5515 65.675 81.4515 65.775C81.3615 65.875 81.2765 65.995 81.1965 66.135C81.1165 66.265 81.0665 66.41 81.0465 66.57C81.1665 66.39 81.3065 66.22 81.4665 66.06C81.6265 65.9 81.7965 65.775 81.9765 65.685C82.1565 65.585 82.3365 65.525 82.5165 65.505C82.7065 65.485 82.8915 65.52 83.0715 65.61C83.2815 65.72 83.4265 65.875 83.5065 66.075C83.5865 66.265 83.6315 66.445 83.6415 66.615ZM80.5815 67.02C80.4715 67.4 80.3215 67.775 80.1315 68.145C79.9515 68.515 79.8015 68.87 79.6815 69.21C79.6715 69.23 79.6515 69.27 79.6215 69.33C79.6015 69.38 79.5715 69.4 79.5315 69.39C79.5115 69.38 79.4965 69.35 79.4865 69.3C79.4865 69.24 79.4865 69.195 79.4865 69.165C79.4865 69.005 79.5115 68.795 79.5615 68.535C79.6215 68.265 79.6815 68.045 79.7415 67.875C79.7615 67.815 79.7965 67.665 79.8465 67.425C79.9065 67.175 79.9565 66.905 79.9965 66.615C80.0465 66.325 80.0765 66.045 80.0865 65.775C80.1065 65.505 80.0815 65.31 80.0115 65.19C79.9715 65.12 79.9715 65.085 80.0115 65.085C80.0415 65.085 80.0815 65.11 80.1315 65.16C80.2515 65.27 80.3465 65.405 80.4165 65.565C80.4965 65.725 80.5515 65.895 80.5815 66.075C80.6215 66.245 80.6365 66.415 80.6265 66.585C80.6265 66.755 80.6115 66.9 80.5815 67.02ZM83.6415 71.985C83.6215 71.995 83.5815 71.99 83.5215 71.97C83.4915 71.96 83.4665 71.95 83.4465 71.94C83.3065 71.85 83.1865 71.75 83.0865 71.64C82.9865 71.52 82.8865 71.32 82.7865 71.04C82.7565 70.94 82.7315 70.815 82.7115 70.665C82.7015 70.505 82.7015 70.35 82.7115 70.2C82.7215 70.05 82.7365 69.925 82.7565 69.825C82.7865 69.715 82.8265 69.66 82.8765 69.66C82.8965 69.66 82.9165 69.72 82.9365 69.84C82.9665 69.95 82.9915 70.08 83.0115 70.23C83.0415 70.38 83.0715 70.53 83.1015 70.68C83.1315 70.83 83.1565 70.94 83.1765 71.01C83.2265 71.16 83.2765 71.31 83.3265 71.46C83.3765 71.61 83.4565 71.74 83.5665 71.85C83.5865 71.87 83.6065 71.9 83.6265 71.94C83.6465 71.97 83.6515 71.985 83.6415 71.985ZM79.5915 72.015C79.2815 71.805 79.0415 71.575 78.8715 71.325C78.7115 71.075 78.6015 70.815 78.5415 70.545C78.4815 70.275 78.4565 70 78.4665 69.72C78.4865 69.44 78.5265 69.165 78.5865 68.895C78.6665 68.535 78.7665 68.18 78.8865 67.83C79.0165 67.47 79.1365 67.125 79.2465 66.795C79.3665 66.455 79.4565 66.125 79.5165 65.805C79.5865 65.485 79.5965 65.18 79.5465 64.89C79.5465 64.85 79.5515 64.83 79.5615 64.83C79.5815 64.83 79.6065 64.855 79.6365 64.905C79.8165 65.225 79.9015 65.555 79.8915 65.895C79.8815 66.235 79.8265 66.585 79.7265 66.945C79.6265 67.295 79.5015 67.655 79.3515 68.025C79.2115 68.385 79.1015 68.75 79.0215 69.12C78.9715 69.35 78.9365 69.595 78.9165 69.855C78.9065 70.105 78.9265 70.355 78.9765 70.605C79.0265 70.855 79.1065 71.1 79.2165 71.34C79.3365 71.58 79.4965 71.795 79.6965 71.985C79.7365 72.005 79.7465 72.025 79.7265 72.045C79.7065 72.065 79.6815 72.065 79.6515 72.045C79.6315 72.035 79.6115 72.025 79.5915 72.015ZM80.1615 72.075C80.1315 72.095 80.0915 72.08 80.0415 72.03C79.9315 71.95 79.8215 71.865 79.7115 71.775C79.6115 71.685 79.5115 71.54 79.4115 71.34C79.3715 71.27 79.3415 71.18 79.3215 71.07C79.3015 70.96 79.2915 70.855 79.2915 70.755C79.2915 70.645 79.2965 70.555 79.3065 70.485C79.3265 70.415 79.3515 70.38 79.3815 70.38C79.4215 70.39 79.4515 70.445 79.4715 70.545C79.5015 70.645 79.5265 70.71 79.5465 70.74C79.5865 70.85 79.6215 70.955 79.6515 71.055C79.6815 71.145 79.7165 71.235 79.7565 71.325C79.8165 71.465 79.8765 71.585 79.9365 71.685C79.9965 71.785 80.0665 71.885 80.1465 71.985C80.1565 71.995 80.1665 72.01 80.1765 72.03C80.1865 72.05 80.1815 72.065 80.1615 72.075ZM86.5382 66.465C86.5482 66.375 86.5782 66.27 86.6282 66.15C86.6782 66.02 86.7432 65.9 86.8232 65.79C86.9132 65.67 87.0182 65.565 87.1382 65.475C87.2582 65.375 87.3932 65.31 87.5432 65.28C87.8632 65.22 88.1282 65.24 88.3382 65.34C88.5482 65.44 88.7082 65.555 88.8182 65.685C88.8582 65.745 88.8732 65.78 88.8632 65.79C88.8432 65.81 88.8082 65.805 88.7582 65.775C88.6982 65.735 88.5982 65.7 88.4582 65.67C88.3282 65.64 88.1832 65.635 88.0232 65.655C87.8732 65.665 87.7232 65.71 87.5732 65.79C87.4332 65.87 87.3182 66 87.2282 66.18C87.1482 66.35 87.0932 66.525 87.0632 66.705C87.0332 66.885 87.0132 67.055 87.0032 67.215C87.0032 67.365 87.0082 67.495 87.0182 67.605C87.0282 67.715 87.0332 67.79 87.0332 67.83C87.0532 67.94 87.0682 68.08 87.0782 68.25C87.0982 68.41 87.1082 68.575 87.1082 68.745C87.1082 68.915 87.1032 69.085 87.0932 69.255C87.0832 69.415 87.0632 69.555 87.0332 69.675C87.0232 69.705 87.0082 69.755 86.9882 69.825C86.9782 69.895 86.9632 69.93 86.9432 69.93C86.8932 69.93 86.8682 69.895 86.8682 69.825C86.8682 69.755 86.8682 69.705 86.8682 69.675C86.8482 69.425 86.8132 69.175 86.7632 68.925C86.7132 68.665 86.6632 68.4 86.6132 68.13C86.5732 67.86 86.5432 67.59 86.5232 67.32C86.5032 67.04 86.5082 66.755 86.5382 66.465ZM86.0132 69.435C86.0232 69.235 86.0032 68.955 85.9532 68.595C85.9132 68.225 85.8982 67.8 85.9082 67.32C85.9182 67.07 85.9432 66.815 85.9832 66.555C86.0232 66.285 86.1182 66.02 86.2682 65.76C86.4282 65.48 86.6282 65.275 86.8682 65.145C87.1182 65.005 87.3332 64.94 87.5132 64.95C87.5432 64.95 87.5732 64.95 87.6032 64.95C87.6332 64.95 87.6482 64.955 87.6482 64.965C87.6482 64.985 87.6432 64.995 87.6332 64.995C87.6232 64.985 87.5882 64.99 87.5282 65.01C87.3482 65.06 87.1882 65.145 87.0482 65.265C86.9082 65.375 86.7882 65.505 86.6882 65.655C86.5882 65.805 86.5082 65.96 86.4482 66.12C86.3882 66.28 86.3532 66.425 86.3432 66.555C86.2832 67.105 86.2882 67.585 86.3582 67.995C86.4082 68.325 86.4482 68.67 86.4782 69.03C86.5082 69.38 86.4932 69.705 86.4332 70.005C86.3832 70.295 86.2782 70.54 86.1182 70.74C85.9682 70.93 85.7332 71.035 85.4132 71.055C85.3832 71.055 85.3432 71.055 85.2932 71.055C85.2532 71.045 85.2332 71.03 85.2332 71.01C85.2332 70.99 85.2782 70.955 85.3682 70.905C85.6282 70.785 85.7982 70.61 85.8782 70.38C85.9582 70.15 86.0032 69.835 86.0132 69.435ZM84.4232 71.205C84.5632 71.425 84.7832 71.59 85.0832 71.7C85.3932 71.8 85.7582 71.79 86.1782 71.67C86.3882 71.61 86.5732 71.505 86.7332 71.355C86.8932 71.205 87.0232 71.04 87.1232 70.86C87.2332 70.67 87.3132 70.475 87.3632 70.275C87.4232 70.075 87.4582 69.89 87.4682 69.72C87.4782 69.44 87.4682 69.165 87.4382 68.895C87.4182 68.625 87.3882 68.365 87.3482 68.115C87.3182 67.855 87.2882 67.605 87.2582 67.365C87.2382 67.125 87.2382 66.89 87.2582 66.66C87.2782 66.41 87.3482 66.22 87.4682 66.09C87.5882 65.96 87.7332 65.88 87.9032 65.85C88.0832 65.81 88.2682 65.82 88.4582 65.88C88.6482 65.94 88.8232 66.035 88.9832 66.165C89.0232 66.185 89.0382 66.21 89.0282 66.24C89.0282 66.26 89.0182 66.265 88.9982 66.255C88.9782 66.245 88.9582 66.235 88.9382 66.225C88.5682 66.105 88.2782 66.07 88.0682 66.12C87.8682 66.17 87.7582 66.35 87.7382 66.66C87.7182 67.02 87.7432 67.445 87.8132 67.935C87.8932 68.415 87.9232 68.95 87.9032 69.54C87.9132 69.74 87.8882 69.97 87.8282 70.23C87.7782 70.49 87.6882 70.745 87.5582 70.995C87.4382 71.235 87.2732 71.45 87.0632 71.64C86.8632 71.83 86.6232 71.95 86.3432 72C85.8132 72.08 85.3882 72.05 85.0682 71.91C84.7582 71.77 84.5332 71.555 84.3932 71.265C84.3732 71.205 84.3632 71.17 84.3632 71.16H84.3782C84.3782 71.16 84.3932 71.175 84.4232 71.205ZM85.0832 71.205C85.2732 71.255 85.5032 71.275 85.7732 71.265C85.8632 71.255 85.9732 71.23 86.1032 71.19C86.2332 71.15 86.3032 71.14 86.3132 71.16C86.3432 71.2 86.3132 71.25 86.2232 71.31C86.1332 71.37 86.0182 71.425 85.8782 71.475C85.7382 71.515 85.5932 71.545 85.4432 71.565C85.2932 71.575 85.1682 71.56 85.0682 71.52C84.8782 71.44 84.7432 71.355 84.6632 71.265C84.5732 71.165 84.4932 71.045 84.4232 70.905L84.3932 70.845C84.3732 70.805 84.3682 70.78 84.3782 70.77C84.3882 70.76 84.4032 70.76 84.4232 70.77C84.4332 70.78 84.4382 70.79 84.4382 70.8C84.5582 70.91 84.6582 70.995 84.7382 71.055C84.8282 71.105 84.9432 71.155 85.0832 71.205ZM93.4004 65.34C93.4104 65.35 93.4154 65.375 93.4154 65.415C93.4154 65.445 93.4104 65.47 93.4004 65.49C93.3104 65.78 93.1554 65.985 92.9354 66.105C92.7154 66.225 92.5204 66.285 92.3504 66.285C92.1404 66.285 91.9254 66.27 91.7054 66.24C91.4854 66.2 91.2754 66.105 91.0754 65.955C91.0554 65.935 91.0304 65.915 91.0004 65.895C90.9704 65.875 90.9554 65.855 90.9554 65.835C90.9554 65.805 90.9704 65.785 91.0004 65.775C91.0304 65.755 91.0554 65.74 91.0754 65.73C91.1654 65.71 91.2804 65.695 91.4204 65.685C91.5704 65.665 91.7154 65.665 91.8554 65.685C91.9554 65.705 92.0754 65.715 92.2154 65.715C92.3554 65.715 92.4954 65.705 92.6354 65.685C92.7854 65.665 92.9204 65.635 93.0404 65.595C93.1604 65.545 93.2504 65.475 93.3104 65.385C93.3404 65.345 93.3704 65.33 93.4004 65.34ZM93.5054 64.875L93.4604 64.95C93.2904 65.17 93.1104 65.315 92.9204 65.385C92.7304 65.445 92.5304 65.47 92.3204 65.46C92.1104 65.45 91.8954 65.425 91.6754 65.385C91.4654 65.335 91.2554 65.305 91.0454 65.295C90.7654 65.285 90.4854 65.37 90.2054 65.55C89.9254 65.73 89.6854 66.045 89.4854 66.495C89.4554 66.555 89.4354 66.57 89.4254 66.54C89.4154 66.5 89.4154 66.465 89.4254 66.435C89.5054 66.135 89.6004 65.885 89.7104 65.685C89.8204 65.485 89.9354 65.325 90.0554 65.205C90.1854 65.075 90.3204 64.98 90.4604 64.92C90.6004 64.86 90.7454 64.82 90.8954 64.8C91.0654 64.23 91.1954 63.675 91.2854 63.135C91.3854 62.585 91.3954 62.065 91.3154 61.575C91.3154 61.535 91.3154 61.515 91.3154 61.515C91.3354 61.505 91.3554 61.51 91.3754 61.53C91.3954 61.55 91.4054 61.565 91.4054 61.575C91.6254 62.055 91.7154 62.57 91.6754 63.12C91.6354 63.66 91.5354 64.23 91.3754 64.83C91.4254 64.84 91.4654 64.845 91.4954 64.845C91.5254 64.845 91.5604 64.845 91.6004 64.845C91.6504 64.585 91.6954 64.31 91.7354 64.02C91.7854 63.72 91.8204 63.435 91.8404 63.165C91.8704 62.895 91.8804 62.65 91.8704 62.43C91.8604 62.21 91.8254 62.045 91.7654 61.935C91.7354 61.845 91.7354 61.8 91.7654 61.8C91.7854 61.8 91.8004 61.81 91.8104 61.83C91.8204 61.85 91.8354 61.87 91.8554 61.89C91.9954 62.03 92.1054 62.22 92.1854 62.46C92.2654 62.7 92.3204 62.955 92.3504 63.225C92.3804 63.495 92.3904 63.765 92.3804 64.035C92.3704 64.295 92.3404 64.525 92.2904 64.725L92.2304 64.965C92.2604 64.985 92.2904 64.995 92.3204 64.995C92.3504 64.995 92.3804 65 92.4104 65.01C92.4704 64.71 92.5204 64.41 92.5604 64.11C92.6104 63.81 92.6304 63.495 92.6204 63.165C92.6204 63.095 92.6254 63.06 92.6354 63.06C92.6554 63.06 92.6704 63.075 92.6804 63.105C92.6904 63.135 92.7004 63.16 92.7104 63.18C92.8304 63.4 92.8854 63.675 92.8754 64.005C92.8754 64.335 92.8504 64.685 92.8004 65.055C93.0204 65.055 93.2304 64.995 93.4304 64.875C93.4804 64.845 93.5054 64.845 93.5054 64.875ZM90.4004 65.895C90.4004 65.945 90.3704 65.995 90.3104 66.045C90.2604 66.095 90.2204 66.13 90.1904 66.15C90.1404 66.19 90.0804 66.24 90.0104 66.3C89.9504 66.35 89.8954 66.405 89.8454 66.465C89.7954 66.545 89.7454 66.615 89.6954 66.675C89.6554 66.735 89.6204 66.82 89.5904 66.93C89.5804 66.95 89.5654 66.97 89.5454 66.99C89.5354 67 89.5254 67 89.5154 66.99C89.4854 66.96 89.4854 66.895 89.5154 66.795C89.5554 66.645 89.5954 66.525 89.6354 66.435C89.6754 66.335 89.7504 66.23 89.8604 66.12C89.9004 66.08 89.9504 66.04 90.0104 66C90.0704 65.96 90.1304 65.925 90.1904 65.895C90.2504 65.865 90.3004 65.85 90.3404 65.85C90.3804 65.85 90.4004 65.865 90.4004 65.895ZM91.5704 71.925C91.6204 71.905 91.6404 71.91 91.6304 71.94C91.6204 71.97 91.6054 71.99 91.5854 72C91.4054 72.06 91.2154 72.05 91.0154 71.97C90.8154 71.89 90.6304 71.765 90.4604 71.595C90.2904 71.425 90.1454 71.23 90.0254 71.01C89.9054 70.78 89.8304 70.555 89.8004 70.335C89.7504 69.865 89.7454 69.41 89.7854 68.97C89.8254 68.53 89.9004 68.095 90.0104 67.665L90.2654 66.72C90.2054 66.72 90.1454 66.705 90.0854 66.675C90.0154 66.655 89.9804 66.63 89.9804 66.6C89.9804 66.58 90.0154 66.55 90.0854 66.51C90.3654 66.37 90.6454 66.31 90.9254 66.33C91.2154 66.35 91.5054 66.385 91.7954 66.435C91.9754 66.465 92.1554 66.49 92.3354 66.51C92.5254 66.52 92.7304 66.48 92.9504 66.39C92.9704 66.37 92.9904 66.365 93.0104 66.375C93.0304 66.395 93.0254 66.43 92.9954 66.48C92.9354 66.61 92.8504 66.705 92.7404 66.765C92.6304 66.825 92.5154 66.87 92.3954 66.9C92.3154 67.16 92.2454 67.395 92.1854 67.605C92.1254 67.805 92.0754 67.975 92.0354 68.115C91.9254 68.595 91.7954 69.085 91.6454 69.585C91.5054 70.075 91.4104 70.49 91.3604 70.83C91.3404 70.94 91.3204 71 91.3004 71.01C91.2804 71.02 91.2604 71 91.2404 70.95C91.2204 70.9 91.2054 70.86 91.1954 70.83C91.1554 70.54 91.1454 70.24 91.1654 69.93C91.1954 69.61 91.2454 69.285 91.3154 68.955C91.3854 68.625 91.4654 68.295 91.5554 67.965C91.6454 67.625 91.7404 67.285 91.8404 66.945C91.7904 66.945 91.7404 66.945 91.6904 66.945C91.6404 66.945 91.5904 66.94 91.5404 66.93C91.4604 67.14 91.3754 67.35 91.2854 67.56C91.2054 67.76 91.1254 67.95 91.0454 68.13C91.0354 68.15 91.0104 68.2 90.9704 68.28C90.9404 68.35 90.9154 68.385 90.8954 68.385C90.8554 68.375 90.8404 68.33 90.8504 68.25C90.8604 68.16 90.8654 68.1 90.8654 68.07C90.8854 67.92 90.9154 67.745 90.9554 67.545C91.0054 67.345 91.0504 67.13 91.0904 66.9C91.0404 66.89 90.9854 66.885 90.9254 66.885C90.8654 66.875 90.8054 66.86 90.7454 66.84C90.6854 67.04 90.6254 67.235 90.5654 67.425C90.5154 67.615 90.4654 67.805 90.4154 67.995C90.3354 68.345 90.2754 68.72 90.2354 69.12C90.1954 69.51 90.1954 69.915 90.2354 70.335C90.2554 70.525 90.3054 70.72 90.3854 70.92C90.4754 71.12 90.5804 71.3 90.7004 71.46C90.8204 71.62 90.9554 71.745 91.1054 71.835C91.2654 71.925 91.4204 71.955 91.5704 71.925ZM91.7054 71.595C91.7554 71.555 91.7854 71.555 91.7954 71.595C91.8054 71.625 91.7854 71.655 91.7354 71.685C91.6954 71.715 91.6404 71.74 91.5704 71.76C91.5104 71.77 91.4404 71.77 91.3604 71.76C91.2804 71.75 91.1954 71.72 91.1054 71.67C91.0154 71.62 90.9304 71.54 90.8504 71.43C90.7804 71.34 90.7204 71.21 90.6704 71.04C90.6304 70.87 90.6004 70.705 90.5804 70.545C90.5604 70.375 90.5554 70.23 90.5654 70.11C90.5754 69.99 90.6004 69.93 90.6404 69.93C90.6904 69.93 90.7254 70 90.7454 70.14C90.7754 70.28 90.8004 70.395 90.8204 70.485C90.8604 70.645 90.9154 70.81 90.9854 70.98C91.0554 71.15 91.1304 71.285 91.2104 71.385C91.3104 71.515 91.4004 71.595 91.4804 71.625C91.5604 71.645 91.6354 71.635 91.7054 71.595ZM95.0051 67.005C94.9251 67.345 94.8101 67.705 94.6601 68.085C94.5201 68.455 94.3601 68.8 94.1801 69.12C94.1801 69.14 94.1651 69.175 94.1351 69.225C94.1151 69.265 94.0851 69.285 94.0451 69.285C94.0251 69.285 94.0101 69.255 94.0001 69.195C94.0001 69.135 94.0051 69.095 94.0151 69.075C94.0151 68.915 94.0351 68.705 94.0751 68.445C94.1151 68.175 94.1651 67.955 94.2251 67.785C94.2451 67.725 94.2751 67.58 94.3151 67.35C94.3651 67.12 94.4051 66.865 94.4351 66.585C94.4751 66.295 94.4951 66.02 94.4951 65.76C94.5051 65.49 94.4751 65.29 94.4051 65.16V65.1C94.4451 65.07 94.4901 65.08 94.5401 65.13C94.6701 65.24 94.7701 65.375 94.8401 65.535C94.9201 65.695 94.9751 65.865 95.0051 66.045C95.0451 66.215 95.0601 66.385 95.0501 66.555C95.0501 66.725 95.0351 66.875 95.0051 67.005ZM95.5901 66.945C95.7001 66.805 95.8051 66.705 95.9051 66.645C96.0051 66.585 96.1051 66.535 96.2051 66.495C96.2151 66.495 96.2401 66.49 96.2801 66.48C96.3201 66.47 96.3501 66.48 96.3701 66.51C96.3901 66.54 96.3851 66.575 96.3551 66.615C96.3251 66.655 96.3001 66.685 96.2801 66.705C96.2101 66.775 96.1301 66.855 96.0401 66.945C95.9601 67.025 95.8851 67.105 95.8151 67.185C95.7151 67.295 95.6351 67.425 95.5751 67.575C95.5151 67.715 95.4701 67.86 95.4401 68.01C95.6101 67.83 95.7701 67.66 95.9201 67.5C96.0801 67.34 96.2501 67.19 96.4301 67.05C96.6601 66.88 96.8601 66.66 97.0301 66.39C97.2001 66.12 97.3201 65.725 97.3901 65.205C97.4101 65.155 97.4351 65.125 97.4651 65.115C97.4951 65.105 97.5101 65.14 97.5101 65.22C97.5401 65.8 97.4801 66.26 97.3301 66.6C97.1801 66.94 96.9551 67.225 96.6551 67.455C96.4951 67.575 96.3351 67.705 96.1751 67.845C96.0151 67.985 95.8601 68.14 95.7101 68.31C95.5701 68.48 95.4401 68.68 95.3201 68.91C95.2001 69.14 95.0951 69.405 95.0051 69.705C94.9351 69.935 94.8651 70.155 94.7951 70.365C94.7251 70.565 94.6501 70.76 94.5701 70.95C94.5501 71.02 94.5201 71.055 94.4801 71.055C94.4501 71.045 94.4351 70.995 94.4351 70.905C94.3851 70.425 94.4151 69.95 94.5251 69.48C94.6451 69 94.7851 68.505 94.9451 67.995C95.0151 67.745 95.0951 67.495 95.1851 67.245C95.2851 66.995 95.3301 66.71 95.3201 66.39C95.3201 66.28 95.3651 66.165 95.4551 66.045C95.5451 65.925 95.6551 65.815 95.7851 65.715C95.9151 65.605 96.0501 65.515 96.1901 65.445C96.3301 65.365 96.4501 65.31 96.5501 65.28C96.6401 65.25 96.6851 65.255 96.6851 65.295C96.6851 65.335 96.6551 65.385 96.5951 65.445C96.3851 65.635 96.1701 65.86 95.9501 66.12C95.7401 66.38 95.6201 66.655 95.5901 66.945ZM94.2851 71.985C94.2751 71.995 94.2651 72 94.2551 72C94.2551 71.99 94.2301 71.97 94.1801 71.94C93.8801 71.72 93.6451 71.48 93.4751 71.22C93.3051 70.96 93.1801 70.695 93.1001 70.425C93.0301 70.145 93.0001 69.87 93.0101 69.6C93.0201 69.32 93.0551 69.05 93.1151 68.79C93.1951 68.44 93.2901 68.095 93.4001 67.755C93.5201 67.405 93.6301 67.07 93.7301 66.75C93.8301 66.42 93.9051 66.1 93.9551 65.79C94.0051 65.47 94.0051 65.165 93.9551 64.875C93.9551 64.855 93.9701 64.84 94.0001 64.83C94.0101 64.83 94.0201 64.84 94.0301 64.86C94.0401 64.87 94.0501 64.88 94.0601 64.89C94.2501 65.21 94.3451 65.54 94.3451 65.88C94.3451 66.21 94.3001 66.55 94.2101 66.9C94.1201 67.24 94.0051 67.59 93.8651 67.95C93.7351 68.3 93.6301 68.655 93.5501 69.015C93.4501 69.475 93.4401 69.965 93.5201 70.485C93.6101 71.005 93.8451 71.47 94.2251 71.88C94.2451 71.91 94.2651 71.93 94.2851 71.94C94.3051 71.95 94.3051 71.965 94.2851 71.985ZM94.7351 72C94.7151 72 94.6951 71.995 94.6751 71.985L94.6151 71.955C94.4751 71.865 94.3501 71.77 94.2401 71.67C94.1301 71.56 94.0351 71.405 93.9551 71.205C93.9251 71.135 93.9001 71.045 93.8801 70.935C93.8601 70.815 93.8451 70.705 93.8351 70.605C93.8351 70.505 93.8401 70.42 93.8501 70.35C93.8701 70.28 93.9001 70.25 93.9401 70.26C93.9701 70.26 94.0001 70.3 94.0301 70.38C94.0701 70.46 94.1001 70.54 94.1201 70.62C94.1401 70.73 94.1601 70.835 94.1801 70.935C94.2101 71.035 94.2451 71.125 94.2851 71.205C94.3951 71.455 94.5401 71.695 94.7201 71.925C94.7401 71.975 94.7451 72 94.7351 72ZM97.1801 65.265C97.1801 65.475 97.1201 65.66 97.0001 65.82C96.8801 65.98 96.7351 66.115 96.5651 66.225C96.5351 66.245 96.5151 66.245 96.5051 66.225C96.4951 66.195 96.4901 66.175 96.4901 66.165C96.4901 66.105 96.5151 66.035 96.5651 65.955C96.6151 65.865 96.6701 65.775 96.7301 65.685C96.8001 65.585 96.8651 65.485 96.9251 65.385C96.9851 65.285 97.0251 65.195 97.0451 65.115C97.0751 65.065 97.1051 65.065 97.1351 65.115C97.1651 65.165 97.1801 65.215 97.1801 65.265ZM102.596 67.26C102.476 67.63 102.331 67.985 102.161 68.325C102.001 68.665 101.831 69.005 101.651 69.345C101.631 69.365 101.601 69.415 101.561 69.495C101.521 69.565 101.486 69.59 101.456 69.57C101.436 69.57 101.426 69.54 101.426 69.48C101.436 69.42 101.441 69.375 101.441 69.345C101.451 69.265 101.471 69.15 101.501 69C101.541 68.85 101.581 68.695 101.621 68.535C101.671 68.365 101.716 68.205 101.756 68.055C101.806 67.895 101.846 67.77 101.876 67.68C102.046 67.14 102.156 66.66 102.206 66.24C102.256 65.82 102.226 65.465 102.116 65.175C102.096 65.125 102.096 65.1 102.116 65.1C102.136 65.1 102.156 65.11 102.176 65.13C102.196 65.15 102.211 65.165 102.221 65.175C102.331 65.295 102.421 65.45 102.491 65.64C102.561 65.82 102.611 66.01 102.641 66.21C102.671 66.4 102.681 66.59 102.671 66.78C102.661 66.97 102.636 67.13 102.596 67.26ZM103.001 66.18C103.131 66.38 103.191 66.63 103.181 66.93C103.171 67.23 103.131 67.54 103.061 67.86C103.001 68.18 102.921 68.485 102.821 68.775C102.731 69.065 102.661 69.295 102.611 69.465C102.511 69.795 102.391 70.135 102.251 70.485C102.111 70.825 101.986 71.12 101.876 71.37C101.836 71.46 101.806 71.5 101.786 71.49C101.756 71.48 101.736 71.46 101.726 71.43C101.726 71.39 101.726 71.36 101.726 71.34C101.726 70.8 101.801 70.28 101.951 69.78C102.111 69.28 102.281 68.775 102.461 68.265C102.571 67.935 102.671 67.61 102.761 67.29C102.851 66.96 102.896 66.6 102.896 66.21C102.896 66.14 102.906 66.105 102.926 66.105C102.936 66.105 102.946 66.115 102.956 66.135C102.966 66.145 102.981 66.16 103.001 66.18ZM100.001 70.89C100.021 70.92 99.9857 70.965 99.8957 71.025C99.8057 71.085 99.7457 71.12 99.7157 71.13C99.2757 71.29 98.9307 71.295 98.6807 71.145C98.4407 70.995 98.2657 70.77 98.1557 70.47C98.0557 70.17 98.0057 69.84 98.0057 69.48C98.0057 69.11 98.0257 68.78 98.0657 68.49C98.0957 68.24 98.1507 67.965 98.2307 67.665C98.3207 67.355 98.4257 67.055 98.5457 66.765C98.6657 66.465 98.8007 66.19 98.9507 65.94C99.1107 65.68 99.2807 65.48 99.4607 65.34C99.4807 65.33 99.5007 65.315 99.5207 65.295C99.5507 65.275 99.5757 65.265 99.5957 65.265C99.6257 65.275 99.6107 65.33 99.5507 65.43C99.4907 65.53 99.4157 65.67 99.3257 65.85C99.2457 66.03 99.1607 66.24 99.0707 66.48C98.9807 66.71 98.8907 66.955 98.8007 67.215C98.7207 67.475 98.6557 67.735 98.6057 67.995C98.5557 68.255 98.5207 68.505 98.5007 68.745C98.4807 68.985 98.4707 69.2 98.4707 69.39C98.4707 69.58 98.4757 69.74 98.4857 69.87C98.4957 70 98.5057 70.085 98.5157 70.125C98.5857 70.435 98.7157 70.665 98.9057 70.815C99.1057 70.955 99.3707 70.995 99.7007 70.935C99.7107 70.935 99.7607 70.925 99.8507 70.905C99.9407 70.885 99.9907 70.88 100.001 70.89ZM101.936 72.045C101.976 72.085 101.996 72.115 101.996 72.135C101.996 72.155 101.971 72.16 101.921 72.15C101.881 72.14 101.851 72.13 101.831 72.12C101.751 72.08 101.651 72.025 101.531 71.955C101.411 71.875 101.321 71.74 101.261 71.55C101.231 71.47 101.211 71.375 101.201 71.265C101.191 71.145 101.186 71.035 101.186 70.935C101.186 70.835 101.196 70.755 101.216 70.695C101.236 70.625 101.261 70.595 101.291 70.605C101.311 70.615 101.331 70.66 101.351 70.74C101.381 70.82 101.406 70.905 101.426 70.995C101.446 71.105 101.471 71.21 101.501 71.31C101.531 71.4 101.566 71.495 101.606 71.595C101.656 71.705 101.706 71.795 101.756 71.865C101.806 71.925 101.866 71.985 101.936 72.045ZM100.556 71.22C100.446 71.39 100.276 71.565 100.046 71.745C99.8257 71.915 99.5257 72 99.1457 72C98.8457 72 98.5857 71.92 98.3657 71.76C98.1557 71.6 97.9807 71.4 97.8407 71.16C97.7107 70.92 97.6157 70.66 97.5557 70.38C97.5057 70.09 97.4807 69.815 97.4807 69.555C97.4907 69.235 97.5157 68.915 97.5557 68.595C97.6057 68.275 97.6657 67.975 97.7357 67.695C97.8157 67.415 97.9007 67.165 97.9907 66.945C98.0907 66.725 98.1907 66.545 98.2907 66.405C98.3107 66.395 98.3307 66.375 98.3507 66.345C98.3807 66.305 98.4057 66.295 98.4257 66.315C98.4357 66.325 98.4307 66.35 98.4107 66.39C98.4007 66.42 98.3907 66.445 98.3807 66.465C98.2907 66.765 98.2007 67.085 98.1107 67.425C98.0307 67.755 97.9657 68.09 97.9157 68.43C97.8657 68.77 97.8407 69.105 97.8407 69.435C97.8407 69.765 97.8707 70.07 97.9307 70.35C97.9707 70.54 98.0407 70.715 98.1407 70.875C98.2507 71.035 98.3657 71.17 98.4857 71.28C98.6157 71.39 98.7507 71.47 98.8907 71.52C99.0407 71.57 99.1857 71.585 99.3257 71.565C99.6157 71.525 99.8357 71.445 99.9857 71.325C100.136 71.195 100.241 71.045 100.301 70.875C100.371 70.695 100.411 70.505 100.421 70.305C100.441 70.095 100.466 69.885 100.496 69.675C100.446 69.815 100.346 69.955 100.196 70.095C100.056 70.225 99.9007 70.33 99.7307 70.41C99.5707 70.48 99.4107 70.51 99.2507 70.5C99.1007 70.49 98.9857 70.4 98.9057 70.23C98.8057 70.01 98.7507 69.77 98.7407 69.51C98.7307 69.25 98.7357 68.965 98.7557 68.655C98.7757 68.345 98.8207 68.025 98.8907 67.695C98.9607 67.365 99.0557 67.05 99.1757 66.75C99.2957 66.44 99.4357 66.15 99.5957 65.88C99.7657 65.61 99.9557 65.37 100.166 65.16L100.226 65.1C100.256 65.07 100.286 65.055 100.316 65.055C100.316 65.055 100.296 65.105 100.256 65.205C99.9657 65.745 99.7207 66.305 99.5207 66.885C99.3207 67.455 99.2007 68.035 99.1607 68.625C99.1107 69.275 99.1407 69.7 99.2507 69.9C99.3707 70.1 99.5157 70.16 99.6857 70.08C99.8557 69.99 100.036 69.805 100.226 69.525C100.426 69.235 100.586 68.925 100.706 68.595C100.816 68.295 100.931 67.985 101.051 67.665C101.181 67.345 101.296 67.025 101.396 66.705C101.506 66.375 101.586 66.055 101.636 65.745C101.696 65.435 101.711 65.145 101.681 64.875C101.681 64.825 101.691 64.8 101.711 64.8C101.721 64.8 101.726 64.805 101.726 64.815C101.726 64.835 101.731 64.845 101.741 64.845C101.751 64.855 101.756 64.865 101.756 64.875C101.916 65.215 101.986 65.56 101.966 65.91C101.956 66.26 101.896 66.615 101.786 66.975C101.686 67.335 101.561 67.705 101.411 68.085C101.271 68.455 101.151 68.83 101.051 69.21C100.991 69.45 100.946 69.705 100.916 69.975C100.886 70.235 100.881 70.495 100.901 70.755C100.921 71.015 100.976 71.265 101.066 71.505C101.156 71.735 101.286 71.93 101.456 72.09C101.476 72.11 101.486 72.125 101.486 72.135C101.486 72.155 101.471 72.16 101.441 72.15C101.421 72.15 101.401 72.145 101.381 72.135C101.191 72.065 101.026 71.95 100.886 71.79C100.746 71.63 100.636 71.44 100.556 71.22ZM105.721 68.85C105.641 69.28 105.591 69.645 105.571 69.945C105.561 70.235 105.611 70.46 105.721 70.62C105.841 70.78 106.036 70.87 106.306 70.89C106.576 70.91 106.956 70.86 107.446 70.74C107.516 70.72 107.556 70.715 107.566 70.725C107.586 70.735 107.581 70.75 107.551 70.77C107.531 70.79 107.501 70.81 107.461 70.83C107.301 70.93 107.126 71.01 106.936 71.07C106.756 71.13 106.576 71.165 106.396 71.175C106.216 71.175 106.046 71.155 105.886 71.115C105.726 71.075 105.596 71.005 105.496 70.905C105.296 70.705 105.181 70.43 105.151 70.08C105.121 69.72 105.146 69.355 105.226 68.985C105.286 68.685 105.361 68.39 105.451 68.1C105.541 67.8 105.656 67.525 105.796 67.275C105.946 67.015 106.116 66.79 106.306 66.6C106.506 66.4 106.736 66.25 106.996 66.15C107.126 66.1 107.266 66.075 107.416 66.075C107.566 66.075 107.701 66.095 107.821 66.135C107.941 66.175 108.041 66.235 108.121 66.315C108.211 66.395 108.266 66.49 108.286 66.6C108.296 66.71 108.281 66.82 108.241 66.93C108.201 67.03 108.141 67.125 108.061 67.215C107.991 67.305 107.911 67.38 107.821 67.44C107.731 67.5 107.641 67.535 107.551 67.545C107.471 67.565 107.421 67.56 107.401 67.53C107.391 67.5 107.411 67.475 107.461 67.455C107.501 67.445 107.551 67.415 107.611 67.365C107.681 67.305 107.741 67.24 107.791 67.17C107.851 67.1 107.896 67.02 107.926 66.93C107.956 66.84 107.956 66.75 107.926 66.66C107.906 66.6 107.836 66.555 107.716 66.525C107.606 66.495 107.436 66.505 107.206 66.555C107.026 66.605 106.856 66.705 106.696 66.855C106.536 66.995 106.391 67.175 106.261 67.395C106.131 67.605 106.016 67.84 105.916 68.1C105.826 68.35 105.761 68.6 105.721 68.85ZM105.901 71.94C106.001 71.94 106.051 71.95 106.051 71.97C106.051 71.98 106.041 71.99 106.021 72C106.011 72.01 105.976 72.015 105.916 72.015C105.696 72.025 105.476 72.015 105.256 71.985C105.036 71.955 104.831 71.89 104.641 71.79C104.451 71.68 104.281 71.535 104.131 71.355C103.991 71.165 103.891 70.92 103.831 70.62C103.731 70.16 103.696 69.69 103.726 69.21C103.756 68.73 103.846 68.265 103.996 67.815C104.146 67.365 104.351 66.94 104.611 66.54C104.881 66.13 105.211 65.77 105.601 65.46C105.891 65.22 106.226 65.06 106.606 64.98C106.986 64.89 107.351 64.87 107.701 64.92C108.061 64.97 108.371 65.09 108.631 65.28C108.901 65.47 109.066 65.725 109.126 66.045C109.156 66.125 109.156 66.18 109.126 66.21C109.096 66.21 109.066 66.16 109.036 66.06C108.896 65.84 108.736 65.665 108.556 65.535C108.376 65.405 108.181 65.315 107.971 65.265C107.771 65.205 107.566 65.18 107.356 65.19C107.146 65.2 106.951 65.23 106.771 65.28C106.411 65.38 106.121 65.52 105.901 65.7C105.681 65.87 105.461 66.085 105.241 66.345C104.891 66.765 104.631 67.24 104.461 67.77C104.301 68.29 104.201 68.81 104.161 69.33C104.141 69.58 104.146 69.84 104.176 70.11C104.206 70.37 104.276 70.645 104.386 70.935C104.496 71.215 104.696 71.45 104.986 71.64C105.276 71.82 105.581 71.92 105.901 71.94ZM104.731 68.325C104.791 67.995 104.866 67.68 104.956 67.38C105.046 67.07 105.171 66.79 105.331 66.54C105.501 66.28 105.716 66.055 105.976 65.865C106.236 65.675 106.556 65.53 106.936 65.43C107.066 65.4 107.221 65.385 107.401 65.385C107.591 65.385 107.776 65.415 107.956 65.475C108.136 65.525 108.301 65.615 108.451 65.745C108.601 65.865 108.716 66.03 108.796 66.24C108.866 66.44 108.881 66.625 108.841 66.795C108.801 66.965 108.731 67.12 108.631 67.26C108.531 67.39 108.411 67.5 108.271 67.59C108.141 67.67 108.016 67.715 107.896 67.725C107.876 67.725 107.846 67.72 107.806 67.71C107.776 67.7 107.801 67.68 107.881 67.65C107.991 67.6 108.101 67.5 108.211 67.35C108.331 67.2 108.411 67.015 108.451 66.795C108.501 66.565 108.441 66.365 108.271 66.195C108.101 66.025 107.881 65.925 107.611 65.895C107.351 65.865 107.116 65.89 106.906 65.97C106.696 66.05 106.516 66.145 106.366 66.255C106.216 66.365 106.096 66.475 106.006 66.585C105.916 66.685 105.856 66.75 105.826 66.78C105.466 67.24 105.156 67.77 104.896 68.37C104.896 68.38 104.871 68.435 104.821 68.535C104.781 68.635 104.751 68.685 104.731 68.685C104.711 68.685 104.701 68.67 104.701 68.64C104.701 68.6 104.701 68.56 104.701 68.52C104.711 68.48 104.716 68.44 104.716 68.4C104.726 68.36 104.731 68.335 104.731 68.325ZM107.761 71.04C107.691 71.14 107.596 71.235 107.476 71.325C107.366 71.415 107.236 71.495 107.086 71.565C106.946 71.625 106.796 71.675 106.636 71.715C106.486 71.755 106.336 71.775 106.186 71.775C105.926 71.775 105.681 71.725 105.451 71.625C105.221 71.525 105.031 71.3 104.881 70.95C104.841 70.88 104.841 70.825 104.881 70.785C104.911 70.775 104.946 70.795 104.986 70.845C105.036 70.885 105.081 70.93 105.121 70.98C105.231 71.09 105.386 71.2 105.586 71.31C105.796 71.41 105.976 71.46 106.126 71.46C106.426 71.46 106.696 71.42 106.936 71.34C107.186 71.25 107.411 71.135 107.611 70.995C107.631 70.985 107.656 70.97 107.686 70.95C107.726 70.92 107.756 70.905 107.776 70.905C107.796 70.895 107.806 70.9 107.806 70.92C107.816 70.94 107.801 70.98 107.761 71.04ZM113.19 65.34C113.2 65.35 113.205 65.375 113.205 65.415C113.205 65.445 113.2 65.47 113.19 65.49C113.1 65.78 112.945 65.985 112.725 66.105C112.505 66.225 112.31 66.285 112.14 66.285C111.93 66.285 111.715 66.27 111.495 66.24C111.275 66.2 111.065 66.105 110.865 65.955C110.845 65.935 110.82 65.915 110.79 65.895C110.76 65.875 110.745 65.855 110.745 65.835C110.745 65.805 110.76 65.785 110.79 65.775C110.82 65.755 110.845 65.74 110.865 65.73C110.955 65.71 111.07 65.695 111.21 65.685C111.36 65.665 111.505 65.665 111.645 65.685C111.745 65.705 111.865 65.715 112.005 65.715C112.145 65.715 112.285 65.705 112.425 65.685C112.575 65.665 112.71 65.635 112.83 65.595C112.95 65.545 113.04 65.475 113.1 65.385C113.13 65.345 113.16 65.33 113.19 65.34ZM113.295 64.875L113.25 64.95C113.08 65.17 112.9 65.315 112.71 65.385C112.52 65.445 112.32 65.47 112.11 65.46C111.9 65.45 111.685 65.425 111.465 65.385C111.255 65.335 111.045 65.305 110.835 65.295C110.555 65.285 110.275 65.37 109.995 65.55C109.715 65.73 109.475 66.045 109.275 66.495C109.245 66.555 109.225 66.57 109.215 66.54C109.205 66.5 109.205 66.465 109.215 66.435C109.295 66.135 109.39 65.885 109.5 65.685C109.61 65.485 109.725 65.325 109.845 65.205C109.975 65.075 110.11 64.98 110.25 64.92C110.39 64.86 110.535 64.82 110.685 64.8C110.855 64.23 110.985 63.675 111.075 63.135C111.175 62.585 111.185 62.065 111.105 61.575C111.105 61.535 111.105 61.515 111.105 61.515C111.125 61.505 111.145 61.51 111.165 61.53C111.185 61.55 111.195 61.565 111.195 61.575C111.415 62.055 111.505 62.57 111.465 63.12C111.425 63.66 111.325 64.23 111.165 64.83C111.215 64.84 111.255 64.845 111.285 64.845C111.315 64.845 111.35 64.845 111.39 64.845C111.44 64.585 111.485 64.31 111.525 64.02C111.575 63.72 111.61 63.435 111.63 63.165C111.66 62.895 111.67 62.65 111.66 62.43C111.65 62.21 111.615 62.045 111.555 61.935C111.525 61.845 111.525 61.8 111.555 61.8C111.575 61.8 111.59 61.81 111.6 61.83C111.61 61.85 111.625 61.87 111.645 61.89C111.785 62.03 111.895 62.22 111.975 62.46C112.055 62.7 112.11 62.955 112.14 63.225C112.17 63.495 112.18 63.765 112.17 64.035C112.16 64.295 112.13 64.525 112.08 64.725L112.02 64.965C112.05 64.985 112.08 64.995 112.11 64.995C112.14 64.995 112.17 65 112.2 65.01C112.26 64.71 112.31 64.41 112.35 64.11C112.4 63.81 112.42 63.495 112.41 63.165C112.41 63.095 112.415 63.06 112.425 63.06C112.445 63.06 112.46 63.075 112.47 63.105C112.48 63.135 112.49 63.16 112.5 63.18C112.62 63.4 112.675 63.675 112.665 64.005C112.665 64.335 112.64 64.685 112.59 65.055C112.81 65.055 113.02 64.995 113.22 64.875C113.27 64.845 113.295 64.845 113.295 64.875ZM110.19 65.895C110.19 65.945 110.16 65.995 110.1 66.045C110.05 66.095 110.01 66.13 109.98 66.15C109.93 66.19 109.87 66.24 109.8 66.3C109.74 66.35 109.685 66.405 109.635 66.465C109.585 66.545 109.535 66.615 109.485 66.675C109.445 66.735 109.41 66.82 109.38 66.93C109.37 66.95 109.355 66.97 109.335 66.99C109.325 67 109.315 67 109.305 66.99C109.275 66.96 109.275 66.895 109.305 66.795C109.345 66.645 109.385 66.525 109.425 66.435C109.465 66.335 109.54 66.23 109.65 66.12C109.69 66.08 109.74 66.04 109.8 66C109.86 65.96 109.92 65.925 109.98 65.895C110.04 65.865 110.09 65.85 110.13 65.85C110.17 65.85 110.19 65.865 110.19 65.895ZM111.36 71.925C111.41 71.905 111.43 71.91 111.42 71.94C111.41 71.97 111.395 71.99 111.375 72C111.195 72.06 111.005 72.05 110.805 71.97C110.605 71.89 110.42 71.765 110.25 71.595C110.08 71.425 109.935 71.23 109.815 71.01C109.695 70.78 109.62 70.555 109.59 70.335C109.54 69.865 109.535 69.41 109.575 68.97C109.615 68.53 109.69 68.095 109.8 67.665L110.055 66.72C109.995 66.72 109.935 66.705 109.875 66.675C109.805 66.655 109.77 66.63 109.77 66.6C109.77 66.58 109.805 66.55 109.875 66.51C110.155 66.37 110.435 66.31 110.715 66.33C111.005 66.35 111.295 66.385 111.585 66.435C111.765 66.465 111.945 66.49 112.125 66.51C112.315 66.52 112.52 66.48 112.74 66.39C112.76 66.37 112.78 66.365 112.8 66.375C112.82 66.395 112.815 66.43 112.785 66.48C112.725 66.61 112.64 66.705 112.53 66.765C112.42 66.825 112.305 66.87 112.185 66.9C112.105 67.16 112.035 67.395 111.975 67.605C111.915 67.805 111.865 67.975 111.825 68.115C111.715 68.595 111.585 69.085 111.435 69.585C111.295 70.075 111.2 70.49 111.15 70.83C111.13 70.94 111.11 71 111.09 71.01C111.07 71.02 111.05 71 111.03 70.95C111.01 70.9 110.995 70.86 110.985 70.83C110.945 70.54 110.935 70.24 110.955 69.93C110.985 69.61 111.035 69.285 111.105 68.955C111.175 68.625 111.255 68.295 111.345 67.965C111.435 67.625 111.53 67.285 111.63 66.945C111.58 66.945 111.53 66.945 111.48 66.945C111.43 66.945 111.38 66.94 111.33 66.93C111.25 67.14 111.165 67.35 111.075 67.56C110.995 67.76 110.915 67.95 110.835 68.13C110.825 68.15 110.8 68.2 110.76 68.28C110.73 68.35 110.705 68.385 110.685 68.385C110.645 68.375 110.63 68.33 110.64 68.25C110.65 68.16 110.655 68.1 110.655 68.07C110.675 67.92 110.705 67.745 110.745 67.545C110.795 67.345 110.84 67.13 110.88 66.9C110.83 66.89 110.775 66.885 110.715 66.885C110.655 66.875 110.595 66.86 110.535 66.84C110.475 67.04 110.415 67.235 110.355 67.425C110.305 67.615 110.255 67.805 110.205 67.995C110.125 68.345 110.065 68.72 110.025 69.12C109.985 69.51 109.985 69.915 110.025 70.335C110.045 70.525 110.095 70.72 110.175 70.92C110.265 71.12 110.37 71.3 110.49 71.46C110.61 71.62 110.745 71.745 110.895 71.835C111.055 71.925 111.21 71.955 111.36 71.925ZM111.495 71.595C111.545 71.555 111.575 71.555 111.585 71.595C111.595 71.625 111.575 71.655 111.525 71.685C111.485 71.715 111.43 71.74 111.36 71.76C111.3 71.77 111.23 71.77 111.15 71.76C111.07 71.75 110.985 71.72 110.895 71.67C110.805 71.62 110.72 71.54 110.64 71.43C110.57 71.34 110.51 71.21 110.46 71.04C110.42 70.87 110.39 70.705 110.37 70.545C110.35 70.375 110.345 70.23 110.355 70.11C110.365 69.99 110.39 69.93 110.43 69.93C110.48 69.93 110.515 70 110.535 70.14C110.565 70.28 110.59 70.395 110.61 70.485C110.65 70.645 110.705 70.81 110.775 70.98C110.845 71.15 110.92 71.285 111 71.385C111.1 71.515 111.19 71.595 111.27 71.625C111.35 71.645 111.425 71.635 111.495 71.595ZM115.095 67.05C114.985 67.42 114.845 67.795 114.675 68.175C114.515 68.555 114.345 68.905 114.165 69.225C114.145 69.245 114.12 69.28 114.09 69.33C114.06 69.38 114.04 69.405 114.03 69.405C114 69.395 113.985 69.36 113.985 69.3C113.985 69.24 113.99 69.2 114 69.18C114 69.01 114.025 68.79 114.075 68.52C114.135 68.25 114.2 68.025 114.27 67.845C114.28 67.795 114.31 67.655 114.36 67.425C114.42 67.185 114.475 66.92 114.525 66.63C114.575 66.33 114.605 66.045 114.615 65.775C114.635 65.495 114.615 65.29 114.555 65.16C114.515 65.1 114.515 65.07 114.555 65.07C114.565 65.07 114.6 65.09 114.66 65.13C114.78 65.25 114.875 65.395 114.945 65.565C115.025 65.725 115.08 65.895 115.11 66.075C115.14 66.255 115.15 66.43 115.14 66.6C115.14 66.77 115.125 66.92 115.095 67.05ZM115.155 69.315C115.065 69.635 114.955 69.96 114.825 70.29C114.695 70.61 114.58 70.89 114.48 71.13C114.46 71.17 114.445 71.2 114.435 71.22C114.425 71.24 114.41 71.25 114.39 71.25C114.36 71.25 114.34 71.235 114.33 71.205C114.33 71.165 114.33 71.13 114.33 71.1C114.31 70.59 114.37 70.095 114.51 69.615C114.65 69.125 114.805 68.625 114.975 68.115C115.075 67.805 115.165 67.49 115.245 67.17C115.335 66.84 115.38 66.485 115.38 66.105C115.37 66.065 115.375 66.045 115.395 66.045C115.415 66.045 115.445 66.065 115.485 66.105C115.605 66.295 115.665 66.54 115.665 66.84C115.665 67.13 115.635 67.43 115.575 67.74C115.515 68.04 115.44 68.335 115.35 68.625C115.26 68.905 115.195 69.135 115.155 69.315ZM114.09 72C114.13 72.04 114.135 72.055 114.105 72.045C114.075 72.045 114.05 72.035 114.03 72.015C113.73 71.805 113.5 71.575 113.34 71.325C113.18 71.075 113.07 70.815 113.01 70.545C112.95 70.265 112.93 69.985 112.95 69.705C112.98 69.425 113.03 69.15 113.1 68.88C113.19 68.51 113.3 68.15 113.43 67.8C113.57 67.44 113.695 67.095 113.805 66.765C113.915 66.425 114.005 66.095 114.075 65.775C114.145 65.455 114.165 65.145 114.135 64.845C114.125 64.835 114.12 64.825 114.12 64.815C114.12 64.795 114.125 64.785 114.135 64.785C114.145 64.785 114.165 64.81 114.195 64.86C114.355 65.19 114.425 65.53 114.405 65.88C114.395 66.22 114.34 66.57 114.24 66.93C114.14 67.28 114.02 67.635 113.88 67.995C113.74 68.355 113.625 68.715 113.535 69.075C113.475 69.305 113.435 69.55 113.415 69.81C113.395 70.07 113.405 70.33 113.445 70.59C113.485 70.84 113.555 71.09 113.655 71.34C113.755 71.58 113.9 71.8 114.09 72ZM114.21 71.43C114.25 71.55 114.295 71.655 114.345 71.745C114.405 71.835 114.47 71.92 114.54 72C114.55 72 114.555 72.005 114.555 72.015C114.565 72.035 114.565 72.045 114.555 72.045C114.525 72.045 114.48 72.03 114.42 72C114.28 71.95 114.165 71.885 114.075 71.805C113.995 71.725 113.925 71.585 113.865 71.385C113.835 71.305 113.81 71.21 113.79 71.1C113.78 70.98 113.775 70.87 113.775 70.77C113.775 70.66 113.78 70.57 113.79 70.5C113.81 70.43 113.84 70.395 113.88 70.395C113.9 70.395 113.925 70.45 113.955 70.56C113.985 70.67 114.01 70.745 114.03 70.785C114.05 70.895 114.075 71.01 114.105 71.13C114.145 71.25 114.18 71.35 114.21 71.43ZM115.38 63.675C115.72 63.675 115.965 63.575 116.115 63.375C116.265 63.175 116.34 62.915 116.34 62.595C116.34 62.435 116.285 62.27 116.175 62.1C116.075 61.92 115.925 61.775 115.725 61.665C115.715 61.655 115.695 61.645 115.665 61.635C115.645 61.615 115.625 61.605 115.605 61.605C115.595 61.615 115.605 61.64 115.635 61.68C115.665 61.71 115.69 61.74 115.71 61.77C115.81 61.9 115.86 62.095 115.86 62.355C115.86 62.565 115.815 62.74 115.725 62.88C115.635 63.01 115.535 63.12 115.425 63.21C115.315 63.29 115.215 63.355 115.125 63.405C115.035 63.445 114.99 63.48 114.99 63.51C114.99 63.59 115.04 63.64 115.14 63.66C115.25 63.67 115.33 63.675 115.38 63.675ZM114.825 63.075C114.995 63.035 115.155 62.955 115.305 62.835C115.465 62.705 115.545 62.545 115.545 62.355C115.545 62.235 115.5 62.095 115.41 61.935C115.33 61.775 115.205 61.655 115.035 61.575C115.015 61.565 114.97 61.55 114.9 61.53C114.84 61.5 114.8 61.49 114.78 61.5C114.76 61.51 114.775 61.545 114.825 61.605C114.875 61.665 114.91 61.72 114.93 61.77C115.01 61.94 115.04 62.085 115.02 62.205C115 62.315 114.96 62.415 114.9 62.505C114.85 62.595 114.795 62.68 114.735 62.76C114.675 62.83 114.645 62.905 114.645 62.985C114.645 63.095 114.705 63.125 114.825 63.075ZM114.39 62.265C114.39 62.315 114.405 62.37 114.435 62.43C114.465 62.49 114.515 62.52 114.585 62.52C114.635 62.52 114.675 62.49 114.705 62.43C114.735 62.36 114.75 62.305 114.75 62.265C114.75 62.215 114.735 62.16 114.705 62.1C114.675 62.03 114.635 61.995 114.585 61.995C114.515 61.995 114.465 62.03 114.435 62.1C114.405 62.16 114.39 62.215 114.39 62.265ZM120.915 67.845C120.945 67.575 120.95 67.29 120.93 66.99C120.91 66.69 120.845 66.415 120.735 66.165C120.635 65.905 120.475 65.69 120.255 65.52C120.045 65.35 119.765 65.265 119.415 65.265C118.945 65.265 118.535 65.395 118.185 65.655C117.835 65.905 117.535 66.22 117.285 66.6C117.035 66.97 116.84 67.37 116.7 67.8C116.56 68.22 116.47 68.605 116.43 68.955C116.37 69.435 116.36 69.85 116.4 70.2C116.45 70.55 116.535 70.84 116.655 71.07C116.775 71.29 116.925 71.455 117.105 71.565C117.295 71.675 117.5 71.73 117.72 71.73C118.03 71.74 118.355 71.655 118.695 71.475C119.045 71.285 119.37 71.025 119.67 70.695C119.97 70.355 120.23 69.945 120.45 69.465C120.68 68.975 120.835 68.435 120.915 67.845ZM116.085 68.88C116.125 68.48 116.225 68.04 116.385 67.56C116.545 67.08 116.765 66.635 117.045 66.225C117.335 65.815 117.68 65.475 118.08 65.205C118.48 64.925 118.945 64.785 119.475 64.785C119.875 64.785 120.205 64.88 120.465 65.07C120.725 65.26 120.925 65.505 121.065 65.805C121.205 66.095 121.295 66.415 121.335 66.765C121.375 67.105 121.375 67.43 121.335 67.74C121.245 68.46 121.07 69.085 120.81 69.615C120.55 70.145 120.245 70.59 119.895 70.95C119.545 71.3 119.175 71.565 118.785 71.745C118.395 71.915 118.02 72 117.66 72C117.39 72 117.145 71.94 116.925 71.82C116.715 71.7 116.535 71.515 116.385 71.265C116.245 71.005 116.145 70.68 116.085 70.29C116.035 69.89 116.035 69.42 116.085 68.88ZM117.765 70.995C117.715 70.995 117.665 70.98 117.615 70.95C117.565 70.91 117.525 70.865 117.495 70.815C117.465 70.765 117.445 70.715 117.435 70.665C117.425 70.615 117.445 70.58 117.495 70.56C117.525 70.55 117.565 70.585 117.615 70.665C117.665 70.745 117.72 70.785 117.78 70.785C117.88 70.785 117.995 70.72 118.125 70.59C118.265 70.46 118.395 70.31 118.515 70.14C118.645 69.96 118.755 69.785 118.845 69.615C118.945 69.445 119.015 69.32 119.055 69.24C119.095 69.16 119.135 69.06 119.175 68.94C119.215 68.81 119.25 68.68 119.28 68.55C119.32 68.42 119.35 68.295 119.37 68.175C119.4 68.045 119.42 67.935 119.43 67.845C119.48 67.395 119.47 67.05 119.4 66.81C119.33 66.56 119.215 66.435 119.055 66.435C118.935 66.435 118.81 66.475 118.68 66.555C118.55 66.625 118.425 66.72 118.305 66.84C118.195 66.96 118.095 67.095 118.005 67.245C117.915 67.385 117.85 67.53 117.81 67.68C117.76 67.85 117.725 67.935 117.705 67.935C117.675 67.935 117.66 67.85 117.66 67.68C117.69 67.49 117.755 67.305 117.855 67.125C117.955 66.935 118.08 66.77 118.23 66.63C118.38 66.48 118.545 66.36 118.725 66.27C118.905 66.17 119.09 66.12 119.28 66.12C119.47 66.12 119.61 66.19 119.7 66.33C119.8 66.46 119.87 66.625 119.91 66.825C119.95 67.015 119.965 67.215 119.955 67.425C119.955 67.625 119.945 67.785 119.925 67.905C119.885 68.175 119.82 68.44 119.73 68.7C119.65 68.95 119.55 69.205 119.43 69.465C119.37 69.585 119.28 69.735 119.16 69.915C119.04 70.085 118.9 70.25 118.74 70.41C118.59 70.57 118.425 70.71 118.245 70.83C118.075 70.94 117.915 70.995 117.765 70.995ZM118.245 71.28C118.255 71.34 118.205 71.39 118.095 71.43C117.995 71.47 117.89 71.49 117.78 71.49C117.47 71.48 117.23 71.38 117.06 71.19C116.9 71 116.785 70.775 116.715 70.515C116.655 70.255 116.625 69.985 116.625 69.705C116.635 69.425 116.65 69.19 116.67 69C116.71 68.67 116.79 68.3 116.91 67.89C117.03 67.48 117.2 67.095 117.42 66.735C117.64 66.375 117.91 66.075 118.23 65.835C118.55 65.585 118.93 65.46 119.37 65.46C119.66 65.46 119.89 65.535 120.06 65.685C120.24 65.835 120.37 66.02 120.45 66.24C120.54 66.46 120.59 66.7 120.6 66.96C120.62 67.21 120.615 67.44 120.585 67.65C120.565 67.88 120.53 68.09 120.48 68.28C120.43 68.47 120.36 68.68 120.27 68.91C120.24 68.98 120.2 69.06 120.15 69.15C120.1 69.24 120.045 69.28 119.985 69.27C119.955 69.26 119.945 69.22 119.955 69.15C119.975 69.08 119.995 68.995 120.015 68.895C120.045 68.785 120.075 68.675 120.105 68.565C120.135 68.445 120.155 68.335 120.165 68.235C120.185 68.065 120.195 67.855 120.195 67.605C120.205 67.345 120.185 67.095 120.135 66.855C120.095 66.615 120.015 66.41 119.895 66.24C119.775 66.07 119.595 65.985 119.355 65.985C119.005 65.985 118.68 66.1 118.38 66.33C118.09 66.55 117.835 66.825 117.615 67.155C117.395 67.475 117.215 67.815 117.075 68.175C116.945 68.525 116.865 68.835 116.835 69.105C116.815 69.265 116.81 69.465 116.82 69.705C116.83 69.945 116.865 70.185 116.925 70.425C116.995 70.655 117.105 70.855 117.255 71.025C117.405 71.195 117.61 71.285 117.87 71.295C117.95 71.305 118.025 71.3 118.095 71.28C118.175 71.25 118.225 71.25 118.245 71.28ZM126.813 66.615C126.833 66.925 126.813 67.225 126.753 67.515C126.693 67.795 126.618 68.055 126.528 68.295C126.508 68.345 126.473 68.4 126.423 68.46C126.383 68.52 126.343 68.54 126.303 68.52C126.283 68.52 126.278 68.485 126.288 68.415C126.298 68.345 126.303 68.295 126.303 68.265C126.313 68.155 126.318 68.02 126.318 67.86C126.328 67.69 126.333 67.52 126.333 67.35C126.333 67.18 126.323 67.02 126.303 66.87C126.293 66.71 126.273 66.575 126.243 66.465C126.153 66.145 126.008 65.97 125.808 65.94C125.618 65.9 125.423 65.95 125.223 66.09C125.023 66.23 124.833 66.425 124.653 66.675C124.473 66.925 124.353 67.17 124.293 67.41C124.353 67.32 124.428 67.215 124.518 67.095C124.618 66.965 124.728 66.845 124.848 66.735C124.968 66.615 125.093 66.52 125.223 66.45C125.363 66.37 125.493 66.335 125.613 66.345C125.743 66.355 125.833 66.425 125.883 66.555C125.943 66.685 125.978 66.845 125.988 67.035C125.998 67.225 125.988 67.43 125.958 67.65C125.928 67.87 125.893 68.075 125.853 68.265C125.783 68.575 125.723 68.895 125.673 69.225C125.623 69.555 125.603 69.88 125.613 70.2C125.633 70.51 125.688 70.815 125.778 71.115C125.878 71.405 126.043 71.675 126.273 71.925C126.293 71.955 126.308 71.98 126.318 72C126.328 72.02 126.303 72.015 126.243 71.985C125.983 71.835 125.773 71.66 125.613 71.46C125.463 71.26 125.348 71.045 125.268 70.815C125.188 70.585 125.138 70.345 125.118 70.095C125.108 69.845 125.113 69.595 125.133 69.345C125.173 68.985 125.233 68.67 125.313 68.4C125.393 68.13 125.453 67.825 125.493 67.485C125.513 67.275 125.498 67.14 125.448 67.08C125.398 67.01 125.338 66.97 125.268 66.96C125.168 66.95 125.053 67.005 124.923 67.125C124.803 67.235 124.673 67.395 124.533 67.605C124.403 67.815 124.273 68.06 124.143 68.34C124.023 68.62 123.918 68.915 123.828 69.225C123.748 69.535 123.648 69.86 123.528 70.2C123.418 70.53 123.313 70.815 123.213 71.055C123.173 71.145 123.143 71.19 123.123 71.19C123.103 71.19 123.083 71.17 123.063 71.13C123.053 71.09 123.048 71.06 123.048 71.04C123.008 70.54 123.053 70.045 123.183 69.555C123.313 69.065 123.463 68.57 123.633 68.07C123.733 67.76 123.823 67.485 123.903 67.245C123.983 67.005 124.023 66.7 124.023 66.33C124.023 66.17 124.063 66.005 124.143 65.835C124.223 65.655 124.338 65.495 124.488 65.355C124.648 65.205 124.843 65.085 125.073 64.995C125.303 64.905 125.563 64.865 125.853 64.875C126.333 64.885 126.703 65 126.963 65.22C127.223 65.43 127.403 65.7 127.503 66.03C127.613 66.36 127.658 66.72 127.638 67.11C127.628 67.49 127.588 67.86 127.518 68.22C127.458 68.49 127.388 68.735 127.308 68.955C127.228 69.175 127.143 69.38 127.053 69.57C126.963 69.76 126.878 69.94 126.798 70.11C126.718 70.28 126.653 70.45 126.603 70.62C126.593 70.65 126.583 70.685 126.573 70.725C126.563 70.755 126.548 70.77 126.528 70.77C126.508 70.77 126.493 70.75 126.483 70.71C126.473 70.67 126.468 70.625 126.468 70.575C126.448 70.235 126.483 69.91 126.573 69.6C126.663 69.28 126.758 68.955 126.858 68.625C126.958 68.285 127.033 67.93 127.083 67.56C127.133 67.19 127.113 66.78 127.023 66.33C126.933 65.85 126.713 65.53 126.363 65.37C126.013 65.21 125.613 65.22 125.163 65.4C125.103 65.43 125.023 65.475 124.923 65.535C124.823 65.595 124.723 65.675 124.623 65.775C124.533 65.875 124.448 65.995 124.368 66.135C124.288 66.265 124.238 66.41 124.218 66.57C124.338 66.39 124.478 66.22 124.638 66.06C124.798 65.9 124.968 65.775 125.148 65.685C125.328 65.585 125.508 65.525 125.688 65.505C125.878 65.485 126.063 65.52 126.243 65.61C126.453 65.72 126.598 65.875 126.678 66.075C126.758 66.265 126.803 66.445 126.813 66.615ZM123.753 67.02C123.643 67.4 123.493 67.775 123.303 68.145C123.123 68.515 122.973 68.87 122.853 69.21C122.843 69.23 122.823 69.27 122.793 69.33C122.773 69.38 122.743 69.4 122.703 69.39C122.683 69.38 122.668 69.35 122.658 69.3C122.658 69.24 122.658 69.195 122.658 69.165C122.658 69.005 122.683 68.795 122.733 68.535C122.793 68.265 122.853 68.045 122.913 67.875C122.933 67.815 122.968 67.665 123.018 67.425C123.078 67.175 123.128 66.905 123.168 66.615C123.218 66.325 123.248 66.045 123.258 65.775C123.278 65.505 123.253 65.31 123.183 65.19C123.143 65.12 123.143 65.085 123.183 65.085C123.213 65.085 123.253 65.11 123.303 65.16C123.423 65.27 123.518 65.405 123.588 65.565C123.668 65.725 123.723 65.895 123.753 66.075C123.793 66.245 123.808 66.415 123.798 66.585C123.798 66.755 123.783 66.9 123.753 67.02ZM126.813 71.985C126.793 71.995 126.753 71.99 126.693 71.97C126.663 71.96 126.638 71.95 126.618 71.94C126.478 71.85 126.358 71.75 126.258 71.64C126.158 71.52 126.058 71.32 125.958 71.04C125.928 70.94 125.903 70.815 125.883 70.665C125.873 70.505 125.873 70.35 125.883 70.2C125.893 70.05 125.908 69.925 125.928 69.825C125.958 69.715 125.998 69.66 126.048 69.66C126.068 69.66 126.088 69.72 126.108 69.84C126.138 69.95 126.163 70.08 126.183 70.23C126.213 70.38 126.243 70.53 126.273 70.68C126.303 70.83 126.328 70.94 126.348 71.01C126.398 71.16 126.448 71.31 126.498 71.46C126.548 71.61 126.628 71.74 126.738 71.85C126.758 71.87 126.778 71.9 126.798 71.94C126.818 71.97 126.823 71.985 126.813 71.985ZM122.763 72.015C122.453 71.805 122.213 71.575 122.043 71.325C121.883 71.075 121.773 70.815 121.713 70.545C121.653 70.275 121.628 70 121.638 69.72C121.658 69.44 121.698 69.165 121.758 68.895C121.838 68.535 121.938 68.18 122.058 67.83C122.188 67.47 122.308 67.125 122.418 66.795C122.538 66.455 122.628 66.125 122.688 65.805C122.758 65.485 122.768 65.18 122.718 64.89C122.718 64.85 122.723 64.83 122.733 64.83C122.753 64.83 122.778 64.855 122.808 64.905C122.988 65.225 123.073 65.555 123.063 65.895C123.053 66.235 122.998 66.585 122.898 66.945C122.798 67.295 122.673 67.655 122.523 68.025C122.383 68.385 122.273 68.75 122.193 69.12C122.143 69.35 122.108 69.595 122.088 69.855C122.078 70.105 122.098 70.355 122.148 70.605C122.198 70.855 122.278 71.1 122.388 71.34C122.508 71.58 122.668 71.795 122.868 71.985C122.908 72.005 122.918 72.025 122.898 72.045C122.878 72.065 122.853 72.065 122.823 72.045C122.803 72.035 122.783 72.025 122.763 72.015ZM123.333 72.075C123.303 72.095 123.263 72.08 123.213 72.03C123.103 71.95 122.993 71.865 122.883 71.775C122.783 71.685 122.683 71.54 122.583 71.34C122.543 71.27 122.513 71.18 122.493 71.07C122.473 70.96 122.463 70.855 122.463 70.755C122.463 70.645 122.468 70.555 122.478 70.485C122.498 70.415 122.523 70.38 122.553 70.38C122.593 70.39 122.623 70.445 122.643 70.545C122.673 70.645 122.698 70.71 122.718 70.74C122.758 70.85 122.793 70.955 122.823 71.055C122.853 71.145 122.888 71.235 122.928 71.325C122.988 71.465 123.048 71.585 123.108 71.685C123.168 71.785 123.238 71.885 123.318 71.985C123.328 71.995 123.338 72.01 123.348 72.03C123.358 72.05 123.353 72.065 123.333 72.075Z" fill="#A9A9A9"/>
</svg>
